<svg xmlns:dc="http://purl.org/dc/elements/1.1/" xmlns:cc="http://creativecommons.org/ns#" xmlns:rdf="http://www.w3.org/1999/02/22-rdf-syntax-ns#" xmlns:svg="http://www.w3.org/2000/svg" xmlns="http://www.w3.org/2000/svg" xmlns:sodipodi="http://sodipodi.sourceforge.net/DTD/sodipodi-0.dtd" xmlns:inkscape="http://www.inkscape.org/namespaces/inkscape" version="1.1" id="svg2" xml:space="preserve" width="1414.12" height="264.30667" viewBox="0 0 1414.12 264.30667" sodipodi:docname="Anuvu Master Logo REVERSE.eps"><metadata id="metadata8"><rdf:RDF><cc:Work rdf:about=""><dc:format>image/svg+xml</dc:format><dc:type rdf:resource="http://purl.org/dc/dcmitype/StillImage"/></cc:Work></rdf:RDF></metadata><defs id="defs6"/><sodipodi:namedview pagecolor="fillCurrent" bordercolor="none" borderopacity="1" objecttolerance="10" gridtolerance="10" guidetolerance="10" inkscape:pageopacity="0" inkscape:pageshadow="2" inkscape:window-width="640" inkscape:window-height="480" id="namedview4"/><g id="g10" inkscape:groupmode="layer" inkscape:label="ink_ext_XXXXXX" transform="matrix(1.3333333,0,0,-1.3333333,0,264.30667)"><g id="g12" transform="scale(0.1)"><path d="m 3860.14,1774.65 c -152.4,138.42 -355.65,207.65 -609.59,207.65 -313.8,0 -542.32,-52.59 -702.72,-204.23 h -26.67 l -17.36,166.12 H 2199 V 39.2305 h 335.27 V 1060.29 c 0,208.24 59.66,363.86 179.08,466.73 119.35,102.86 271.75,154.3 457.19,154.3 177.74,0 318.71,-47.64 422.88,-142.88 104.14,-95.25 156.22,-241.92 156.22,-440.05 V 39.2305 h 339.1 V 1178.41 c 0,259.06 -76.2,457.79 -228.6,596.24" style="fill:fillCurrent;fill-opacity:1;fill-rule:nonzero;stroke:none" id="path14"/><path d="m 6948.77,597.27 -24.97,-0.54 V 1943.55 H 6584.71 V 39.2305 h 317.41 L 8479.7,1943.55 H 8080.75 L 6948.77,597.27" style="fill:fillCurrent;fill-opacity:1;fill-rule:nonzero;stroke:none" id="path16"/><path d="m 1088.07,594.02 c -82.83,0 -160.066,-3.469 -231.996,-11.129 l 674.866,802.619 24.97,0.54 -0.01,-890.429 C 1423.92,561.09 1268.05,594.02 1088.07,594.02 Z M 0,39.2305 h 224.449 v 0 h 175.219 c 11.109,13.1679 43.047,51.0898 58.504,70.1605 17.863,22.07 37.601,42.488 59.301,61.168 126.777,109.269 288.64,163.91 485.617,163.91 188.79,0 338.53,-50.61 449.18,-151.77 43.03,-39.359 77.13,-87.5506 103.4,-143.4685 h 0.23 329.68 9.41 V 1943.55 h -317.4 L 0,39.2305" style="fill:fillCurrent;fill-opacity:1;fill-rule:nonzero;stroke:none" id="path18"/><path d="M 5942.51,884.379 C 5942.51,686.25 5890.43,539.59 5786.3,444.34 5682.13,349.102 5541.15,301.461 5363.4,301.461 h -53.34 c -177.74,0 -318.71,47.641 -422.89,142.879 -104.13,95.25 -156.2,241.91 -156.2,440.039 V 1943.55 h -339.1 V 804.371 c 0,-259.062 76.2,-457.793 228.6,-596.25 C 4772.86,69.7109 4976.14,4.12891 5230.05,0.480469 c 44.54,-0.640625 175.16,-0.640625 213.36,0 C 5697.32,4.73828 5900.61,69.7109 6053,208.121 c 152.41,138.457 228.61,337.188 228.61,596.25 V 1943.55 h -339.1 V 884.379" style="fill:fillCurrent;fill-opacity:1;fill-rule:nonzero;stroke:none" id="path20"/><path d="M 10266.8,1943.55 V 884.379 c 0,-198.129 -52.1,-344.789 -156.2,-440.039 -104.2,-95.238 -245.14,-142.879 -422.89,-142.879 h -53.34 c -177.74,0 -318.71,47.641 -422.89,142.879 -104.13,95.25 -156.2,241.91 -156.2,440.039 V 1943.55 H 8716.17 V 804.371 c 0,-259.062 76.2,-457.793 228.6,-596.25 C 9097.16,69.7109 9300.45,4.12891 9554.36,0.480469 c 44.53,-0.640625 175.16,-0.640625 213.37,0 253.87,4.257811 457.17,69.230431 609.57,207.640531 152.4,138.457 228.6,337.188 228.6,596.25 V 1943.55 h -339.1" style="fill:fillCurrent;fill-opacity:1;fill-rule:nonzero;stroke:none" id="path22"/></g></g></svg>