<?xml version="1.0" encoding="utf-8"?>
<!-- Generator: Adobe Illustrator 25.4.1, SVG Export Plug-In . SVG Version: 6.00 Build 0)  -->
<svg version="1.1" id="Layer_1" xmlns="http://www.w3.org/2000/svg" xmlns:xlink="http://www.w3.org/1999/xlink" x="0px" y="0px"
	 viewBox="0 0 540 103.4" style="enable-background:new 0 0 540 103.4;" xml:space="preserve">
<style type="text/css">
	.st0{fill: fillCurrent;}
</style>
<g>
	<g>
		<path class="st0" d="M65.1,8.9H40.4c-1.5,0-2.7,1.2-2.7,2.7v34.6c0,0.7,0.8,1.1,1.3,0.7c4.6-3.4,10.3-5.3,16.6-5.3
			c12.7,0,22.6,7.2,26.5,17.9c0.3,0.9,1.6,0.7,1.6-0.3V27.6C83.8,17.3,75.4,8.9,65.1,8.9z"/>
		<path class="st0" d="M60.5,98.4c-1.6,0.2-3.2,0.4-4.9,0.4c-5.7,0-10.8-1.5-15.1-4.3c-0.7-0.5-1.1-0.7-1.1-0.7
			c-6.9-5.4-13-12-13-25V11.6c0-1.5-1.2-2.7-2.7-2.7h-5.2C8.4,8.9,0,17.3,0,27.6v46.5c0,10.2,8.2,18.4,18.3,18.6l0,0
			c4.2,0,6.3,2.8,10.1,5.3c1.6,1,3.5,2.1,5.6,3.1c1.1,0.5,2.4,1,3.8,1.4c1.5,0.4,3.2,0.7,5,0.8l0,0c6,0.5,13-0.4,18.2-3.4
			C61.9,99.5,61.4,98.2,60.5,98.4z"/>
		<path class="st0" d="M54.8,52.3c-10.3,0-17.9,7.7-17.9,17.9c0,10.1,7.6,17.9,17.9,17.9s17.8-7.6,17.8-17.9
			C72.6,59.9,65,52.3,54.8,52.3z"/>
	</g>
	<g>
		<path class="st0" d="M152.9,22.8c-8.1,0-15.3,2.5-21,7c-0.4,0.3-1,0-1-0.5V2c0-0.8-0.7-1.5-1.5-1.5h-10.7c-0.8,0-1.5,0.7-1.5,1.5
			v87.7c0,0.8,0.7,1.5,1.5,1.5h7.3c0.9,0,1.7-0.6,1.9-1.5l1.2-5.1c0.1-0.5,0.7-0.6,1-0.3c5.9,5.3,13.8,8.5,22.8,8.5
			c20.2,0,34.7-15,34.7-35C187.6,37.8,173.1,22.8,152.9,22.8z M151.8,79.7c-12.6,0-21.9-9.5-21.9-21.9c0-12.5,9.3-21.9,21.9-21.9
			c12.6,0,21.8,9.3,21.8,21.9S164.4,79.7,151.8,79.7z"/>
		<path class="st0" d="M251.8,31.7c-0.1,0.5-0.7,0.7-1,0.3c-6-5.7-14.2-9.1-23.6-9.1c-19.9,0-34.8,14.9-34.8,35
			c0,20,14.9,35.1,34.8,35.1c9.3,0,17.4-3.3,23.4-9c0.4-0.3,0.9-0.2,1,0.3l0.9,5.3c0.2,0.9,1,1.6,1.9,1.6h7.9c0.8,0,1.5-0.7,1.5-1.5
			V25.9c0-0.8-0.7-1.5-1.5-1.5h-7.5c-0.9,0-1.7,0.7-1.9,1.6L251.8,31.7z M228.3,79.7c-12.6,0-21.9-9.4-21.9-21.9s9.3-21.9,21.9-21.9
			c12.6,0,21.8,9.3,21.8,21.9C250,70.4,240.8,79.7,228.3,79.7z"/>
		<path class="st0" d="M300,51c-8.1-1.3-14.9-2.5-14.9-8.4c0-4.9,4.7-8.1,12.3-8.1c7.4,0,12,2.8,13,8.2c0.2,0.9,1,1.6,1.9,1.6h9.7
			c0.9,0,1.6-0.7,1.5-1.6c-1-12.1-10.9-19.8-25.8-19.8c-15.5,0-25.9,8.2-25.9,20.2c0,15.5,13.1,18,24.2,19.9
			c8.2,1.4,15.3,2.8,15.3,9.2c0,5.6-5.7,8.7-13,8.7c-7.4,0-13-3.1-14.2-9.2c-0.2-0.9-1-1.6-1.9-1.6h-10.1c-0.9,0-1.6,0.7-1.5,1.6
			c1.1,12.9,11.6,21.2,27.2,21.2c16.3,0,27.1-8.4,27.1-21.4C325,55,311.3,52.9,300,51z"/>
		<g>
			<path class="st0" d="M364,78.8c-8.1,0-12.5-4.4-12.5-12.4V37c0-0.4,0.4-0.8,0.8-0.8h17.5c0.8,0,1.5-0.7,1.5-1.5v-8.8
				c0-0.8-0.7-1.5-1.5-1.5h-17.6c-0.4,0-0.8-0.4-0.8-0.8V10.5c0-1.5-1.8-2.2-2.8-1.1L326.4,33c-1.1,1.2-0.3,3.2,1.4,3.2h9.2
				c0.4,0,0.8,0.4,0.8,0.8v30.4c0,14.8,9,23.8,23.7,23.8h8.7c0.8,0,1.5-0.7,1.5-1.5v-9.5c0-0.8-0.7-1.5-1.5-1.5L364,78.8L364,78.8z"
				/>
		</g>
		<path class="st0" d="M386.8,0L386.8,0c-3.9,0-7.1,3.2-7.1,7.1l0,0c0,3.9,3.2,7.1,7.1,7.1l0,0c3.9,0,7.1-3.2,7.1-7.1l0,0
			C393.9,3.1,390.8,0,386.8,0z"/>
		<path class="st0" d="M381.5,91.2h10.7c0.8,0,1.5-0.7,1.5-1.5V26c0-0.8-0.7-1.5-1.5-1.5h-10.7c-0.8,0-1.5,0.7-1.5,1.5v63.8
			C380,90.6,380.6,91.2,381.5,91.2z"/>
		<path class="st0" d="M436.5,22.8c-20.4,0-35.7,14.8-35.7,35c0,20.1,15.3,35,35.7,35l0,0c20.4,0,35.7-14.9,35.7-35
			C472.2,37.8,456.9,22.8,436.5,22.8z M436.5,79.8c-12.6,0-21.7-9.1-21.7-21.9S423.9,36,436.5,36s21.7,9.1,21.7,21.9
			C458.2,70.6,449.1,79.8,436.5,79.8z"/>
		<path class="st0" d="M540,51c0-16.4-9.8-28.1-25.4-28.1l0,0c-9.3,0-17.3,3.7-22.4,9.9c-0.3,0.4-0.9,0.3-1.1-0.2l-1.9-6.8
			c-0.2-0.8-1-1.4-1.9-1.4h-6.6c-0.8,0-1.5,0.7-1.5,1.5v63.8c0,0.8,0.7,1.5,1.5,1.5h10.7c0.8,0,1.5-0.7,1.5-1.5V55.5
			c0-11.8,7.4-20.2,17.9-20.2c10,0,15.3,6.4,15.3,18.6v35.9c0,0.8,0.7,1.5,1.5,1.5h10.7c0.8,0,1.5-0.7,1.5-1.5V51H540z"/>
	</g>
</g>
</svg>
