<svg id="Layer_1_Image" data-name="Layer 1 Image" xmlns="http://www.w3.org/2000/svg" viewBox="0 0 179.84 23.81"><path d="M99,4.77c0,1.75,0,3.28,0,4.8.09,3.4.14,6.81.34,10.21.14,2.61.23,2.6,2.63,3.4H95.37c2.52-.35,2.1-2.27,2.11-3.91,0-5.9,0-11.81,0-17.71,0-.46,0-.92.06-1.38L97.92,0l18,19.22c0-1.48,0-2.68,0-3.89-.08-3.68-.13-7.36-.27-11-.11-2.9-.16-2.9-2.75-3.74h6.76c-2.26.78-2.29.8-2.3,3.21,0,5.87,0,11.73,0,17.6a8.56,8.56,0,0,1-.24,2.07C110.65,17.62,104.91,11.23,99,4.77Z"/><path d="M34.5,23.19h-7c2-.42,1.84-2,1.85-3.43,0-5.31,0-10.62,0-15.93,0-2.54-.06-2.61-2.48-3.26h7.35a3.19,3.19,0,0,1-.7.26c-1.17.06-1.59.79-1.61,1.82,0,2.18,0,4.36-.06,6.54,0,.65.21.93.89.93q5.82,0,11.63,0c.73,0,1-.28,1-1,0-1.82,0-3.65-.06-5.47-.07-2.39-.14-2.43-2.43-3.1h7.2c-2.1.7-2.27.91-2.28,2.94,0,5.15,0,10.3,0,15.45,0,.12,0,.24,0,.36.09,2.88.09,2.88,2.79,3.83H43.34c1.86-.24,1.81-1.64,1.84-3,.06-2.65.08-5.3.17-7.95,0-.89-.3-1.16-1.19-1.15q-5.56,0-11.15,0c-.87,0-1.2.22-1.18,1.13.07,2.42,0,4.83.07,7.25C31.94,22.28,32,22.28,34.5,23.19Z"/><path d="M20.78,18.11c-.26,1.38-.44,2.77-.81,4.12a1.73,1.73,0,0,1-1.14.89,18.62,18.62,0,0,1-12.21-.8,11.14,11.14,0,0,1-6.5-12C1,4.24,4.78.76,10.42.15c3.44-.37,6.75.26,10.19.8l-.29,5.52c-.17,0-.23,0-.24,0-1-3.87-1.81-4.71-5.92-5.21C10.78.82,7.49,1.1,5,3.85c-1.9,2.08-2.3,4.66-2.28,7.31,0,6.32,5,12.29,13.47,11.07a4.38,4.38,0,0,0,4-3.64,3,3,0,0,1,.17-.53Z"/><path d="M57.52.42H70l-.44,3.8c-1-2.49-1.12-2.59-3.85-2.64-3.28-.06-3.28-.06-3.28,3.24,0,1.58,0,3.17,0,4.75,0,.76.2,1.09,1,1,1.16,0,2.32.06,3.48,0a20.54,20.54,0,0,0,2.6-.57l-.42,4c-.7-2.07-.79-2.13-3-2.24-.92-.05-1.84-.05-2.76-.12-.6,0-.89.14-.89.78,0,2.53,0,5.07,0,7.6,0,1.48.52,2,2,2.16a14.72,14.72,0,0,0,2.39.11c2.47-.08,2.92-.44,3.68-2.74l.31,0c-.2,1.14-.34,2.29-.65,3.4-.06.23-.75.41-1.15.42-3.67,0-7.35,0-11.13-.15,2.16-.38,2-2,2-3.39,0-5.35.09-10.7,0-16C59.89,1.25,59.8,1.25,57.52.42Z"/><path d="M126.81,23.22c1.46-.32,1.7-1.38,1.7-2.55.05-5.86.1-11.72.09-17.58,0-1.82-.32-2-2.42-2.59h12.47c-.11,1-.24,2.25-.39,3.74-.88-2.76-1.27-2.53-3.77-2.64-3.38-.15-3.39-.09-3.39,3.24,0,1.59,0,3.17,0,4.75,0,.78.27,1.07,1,1,1.24,0,2.48,0,3.72-.06a15,15,0,0,0,2.31-.54c0,.52-.12,1.2-.18,1.87s-.11,1.32-.17,2c-.37-.67-.56-1.46-1-1.79a4.57,4.57,0,0,0-2.06-.41c-.88-.09-1.76-.05-2.64-.14s-1,.25-1,.95c0,2.37,0,4.75,0,7.13.05,1.92.46,2.38,2.41,2.53a12.12,12.12,0,0,0,3.56-.2c.66-.16,1.21-.88,1.72-1.43.23-.24.25-.68.37-1l.3.06a23.13,23.13,0,0,1-.54,3.14c-.09.31-.81.61-1.25.61-1.95,0-3.91-.08-5.87-.11C130.16,23.2,128.48,23.22,126.81,23.22Z"/><path d="M154.36,12.2C156.24,9,158,5.92,159.75,2.86c.46-.82.65-1.68-.47-2.31h5.45c-2.08.37-3.13,1.93-4.11,3.49-1.55,2.45-3.09,4.91-4.46,7.46a9,9,0,0,0-.9,3.49c-.14,1.81,0,3.64,0,5.47s.25,2.11,2.17,2.4a.57.57,0,0,1,.44.33h-7c2.19-.5,1.69-2.26,1.87-3.75A14.82,14.82,0,0,0,149.63,8.3c-1.11-1.44-1.94-3.09-2.95-4.61C145.77,2.35,144.8,1,143.05.55h5.64c0,.63-.29,1.35,0,1.79C150.46,5.59,152.37,8.79,154.36,12.2Z"/><path d="M88.45.4V4.28l-.19,0a11.32,11.32,0,0,0-.66-1.77c-.95-1.58-4.2-2-6-.91a3.53,3.53,0,0,0-.89,5,24.65,24.65,0,0,0,3.06,3c1.06,1,2.25,1.8,3.23,2.83a6.64,6.64,0,0,1,1.3,8,7.25,7.25,0,0,1-7.45,3.25c-4.12-.79-3.51-.59-3.35-4.09a2.92,2.92,0,0,1,.3-1.28,3.92,3.92,0,0,1,.16.56,3.72,3.72,0,0,0,3,3.56A4.9,4.9,0,0,0,86.18,21a4.22,4.22,0,0,0,.13-4.9A30.34,30.34,0,0,0,83,12.71c-1.11-1.08-2.35-2.05-3.35-3.21a5.75,5.75,0,0,1-1-6.35c1-2.23,3-3,5.26-3.08A43.52,43.52,0,0,1,88.45.4Z"/><path d="M179.29.42l-.21,4.06C177.86,1.57,177,1,174.4,1a3.47,3.47,0,0,0-3.25,1.86,3.38,3.38,0,0,0,.33,3.91,33.94,33.94,0,0,0,3.19,3c1,.85,2,1.61,2.88,2.51,2.46,2.46,2.94,5.35,1.43,8.12-1.3,2.37-4.7,3.79-7.69,3.22-3.38-.64-3.55-.88-3.11-4.3,0-.37.12-.74.21-1.33a2.54,2.54,0,0,1,.22.51c.34,2.77,1.68,4,4.47,4.07a4.23,4.23,0,0,0,3.72-6.84,27.49,27.49,0,0,0-2.86-2.85,49.62,49.62,0,0,1-3.7-3.54A5.65,5.65,0,0,1,169.39,3c1-2.18,3.07-2.93,5.35-3C176.2,0,177.67.28,179.29.42Z"/></svg>