<?xml version="1.0" standalone="no"?>
<!DOCTYPE svg PUBLIC "-//W3C//DTD SVG 20010904//EN"
 "http://www.w3.org/TR/2001/REC-SVG-20010904/DTD/svg10.dtd">
<svg version="1.0" xmlns="http://www.w3.org/2000/svg"
 width="319.000000pt" height="206.000000pt" viewBox="0 0 319.000000 206.000000"
 preserveAspectRatio="xMidYMid meet">

<g transform="translate(0.000000,206.000000) scale(0.100000,-0.100000)"
fill="fillCurrent" stroke="none">
<path d="M1290 1425 c-382 -503 -380 -500 -380 -537 0 -51 36 -58 290 -58 247
0 275 6 310 62 17 29 20 50 20 165 0 127 -1 133 -26 162 -14 17 -33 31 -42 31
-23 -1 -138 -164 -134 -191 1 -12 -3 -28 -9 -35 -14 -17 -109 -19 -109 -3 0 5
86 122 190 260 132 172 197 249 210 249 21 0 48 -33 268 -321 77 -103 138
-189 135 -193 -9 -9 -86 -7 -102 3 -9 6 -12 19 -8 37 4 22 -7 43 -57 110 -33
46 -69 83 -78 84 -9 0 -30 -11 -45 -24 l-28 -24 0 -144 c0 -227 1 -228 329
-228 124 0 236 4 250 10 31 11 47 40 39 69 -6 22 -688 924 -701 928 -4 1 -149
-185 -322 -412z"/>
<path d="M924 1746 c-17 -8 -40 -26 -52 -41 -21 -27 -22 -36 -22 -277 l0 -250
34 -34 c26 -26 42 -34 70 -34 32 0 40 6 97 81 l62 81 -29 23 c-28 22 -29 26
-32 128 -5 146 -4 147 162 147 l125 0 63 83 c35 45 67 88 71 95 12 18 -506 17
-549 -2z"/>
<path d="M1751 1753 c0 -5 31 -46 68 -93 l67 -85 130 -5 c71 -3 135 -9 142
-13 8 -6 12 -43 12 -128 l0 -119 -29 -18 -29 -17 62 -80 c55 -71 66 -80 98
-83 29 -2 43 3 70 27 l33 29 3 254 c4 356 24 338 -368 338 -143 0 -260 -3
-259 -7z"/>
</g>
</svg>
