<svg id="Layer_1_Image" data-name="Layer 1 Image" xmlns="http://www.w3.org/2000/svg" viewBox="0 0 424.87 74.68"><defs><style>.cls-1{fill:fillCurrent;}.cls-2{fill:fillCurrent;}.cls-3{fill:fillCurrent;}.cls-4{fill:fillCurrent;}.cls-5{fill:fillCurrent;}.cls-6{fill:fillCurrent;}.cls-7{fill:fillCurrent;}.cls-8{fill:fillCurrent;}.cls-9{fill:fillCurrent;}.cls-10{fill:fillCurrent;}.cls-11{fill:fillCurrent;}.cls-12{fill:fillCurrent;}.cls-13{fill:fillCurrent;}.cls-14{fill:fillCurrent;}.cls-15{fill:fillCurrent;}.cls-16{fill:fillCurrent;}.cls-17{fill:fillCurrent;}.cls-18{fill:fillCurrent;}.cls-19{fill:fillCurrent;}.cls-20{fill:fillCurrent;}.cls-21{fill:fillCurrent;}.cls-22{fill:fillCurrent;}.cls-23{fill:fillCurrent;}</style></defs><path class="cls-1" d="M117,31.73V9.79c.36,0,.66-.13,1-.14,2.36,0,4.72,0,7.07,0,.89,0,1.22.32,1.2,1.18,0,1.76,0,3.51,0,5.27V46.36c0,1.6,0,1.4-1.56,1.64-3.21.52-5.18-.91-7.13-3.31-5.11-6.28-10.48-12.35-15.74-18.51-.15-.17-.31-.33-.62-.66,0,.6-.06,1-.06,1.43,0,6.5,0,13,0,19.5,0,1-.24,1.41-1.33,1.37-2.23-.08-4.47-.06-6.71,0-.9,0-1.2-.31-1.2-1.17q0-18,0-35.91c0-.83.34-1.17,1.15-1.08h.12c4.49-.08,4.49-.08,7.41,3.36q7.64,9,15.3,18c.27.32.57.61.85.92Z"/><path class="cls-2" d="M385.72,45a13.87,13.87,0,0,1-12.21,3.33,14.22,14.22,0,0,1-7.94-4.59c-4.56-5.13-5-13.65-1-19.48a14,14,0,0,1,9.18-6,14.77,14.77,0,0,1,10.75,2.1V10.63c0-1.59.1-1.67,1.65-1.81,1.87-.18,3.73-.39,5.6-.62,1.61-.19,1.83,0,1.83,1.58v28c0,.52,0,1,0,1.56.07.91.48,1.45,1.48,1.19.84-.22,1.19.17,1.3.93.23,1.53.46,3.07.7,4.6.15,1-.45,1.44-1.23,1.8A8,8,0,0,1,385.72,45ZM370.93,33.3a7.11,7.11,0,0,0,1.79,5.29,7,7,0,0,0,7.71,1.77c3-1,4.29-3.45,4.49-6.45s-.7-5.8-3.66-7.34C377.23,24.46,370.87,26.27,370.93,33.3Z"/><path class="cls-3" d="M178.93,19.65a46.63,46.63,0,0,1,6.16-1.74A14.28,14.28,0,0,1,201.41,30c1,5.74-.33,10.77-4.72,14.79a14,14,0,0,1-18.4.48l-.76-.62c0,.84-.05,1.4,0,1.94.09.8-.11,1.21-1,1.2q-2.88-.06-5.76,0c-.79,0-1-.31-1-1.07q0-18.5,0-37c0-.71.18-1.12,1-1.19q3.34-.32,6.67-.73c1.14-.14,1.58.24,1.56,1.42-.06,3.11,0,6.22,0,9.33Zm-.4,13.61c0,4.52,2.79,7.44,7.08,7.43,4.06,0,7-3.24,7.06-7.6s-3-7.55-7.21-7.55S178.53,28.54,178.53,33.26Z"/><path class="cls-3" d="M131.83,33c0-8.52,6.54-15,15.37-15.24,4.93-.12,9.31,1.12,12.88,4.67,7.44,7.42,4.85,20.57-4.86,24.65-7,3-15.51,1.14-20-4.31A14.16,14.16,0,0,1,131.83,33Zm16.32-7.48A7.23,7.23,0,0,0,140.82,33c0,4.55,3,7.67,7.37,7.67a7.25,7.25,0,0,0,7.15-7.54C155.35,28.81,152.26,25.54,148.15,25.54Z"/><path class="cls-4" d="M322.1,31.71c0,9.2-5,15.07-12.75,16.57a16.44,16.44,0,0,1-16.63-5.84c-5.59-6.63-4.09-21.26,9.36-24,5.66-1.16,11-.22,15.4,3.88A13.9,13.9,0,0,1,322.1,31.71Zm-23.31,1.52c0,4.49,3,7.65,7.28,7.62a7.37,7.37,0,0,0,7.11-7.64,7.17,7.17,0,0,0-7.24-7.43C301.75,25.79,298.78,28.89,298.79,33.23Z"/><path class="cls-4" d="M325.66,34.54c0-9.17,5.45-15.26,13.51-16.39,6.15-.86,11.49.83,15.51,5.54s4.23,10,2.16,15.42-6.32,8.24-11.92,9.19a17.28,17.28,0,0,1-11.07-1.58C328.44,43.92,325.8,39.33,325.66,34.54ZM349,33.27c0-4.43-3-7.5-7.24-7.49a7.2,7.2,0,0,0-7.15,7.52,7.3,7.3,0,0,0,7.3,7.55C345.94,40.85,349,37.57,349,33.27Z"/><path class="cls-5" d="M232,35.2c.08,3.59,3,6.34,7,6.51a11,11,0,0,0,8.09-2.64,1.22,1.22,0,0,1,2,.08c.88.93,1.82,1.8,2.77,2.64.78.69.74,1.27,0,2A15.17,15.17,0,0,1,243.83,48c-6.66,1.42-12.73.29-17.36-5-4.16-4.76-4.47-10.36-2.25-16,2.12-5.44,6.46-8.23,12.14-9a15.4,15.4,0,0,1,12.36,3.24,13.67,13.67,0,0,1,5,10.92c0,3.56.53,3.06-3.11,3.07-5.87,0-11.74,0-17.62,0C232.67,35.15,232.32,35.18,232,35.2Zm12.81-5.35a6.14,6.14,0,0,0-6.73-5.67c-3.36.2-6.11,2.81-5.89,5.67Z"/><path class="cls-6" d="M271.38,25.81H282.5c2.88,0,2.37-.15,2.41,2.45,0,1.2,0,2.4,0,3.59,0,.89-.3,1.17-1.19,1.16-3.59,0-7.19,0-10.79,0-1.55,0-1.58,0-1.57,1.62,0,3.91.05,7.81.06,11.72,0,1.47-.09,1.52-1.58,1.51-2.47,0-4.94,0-7.54,0,0-.59-.09-1.09-.09-1.59V13c0-3,0-3,3-3h22.18c1.56,0,1.56,0,1.56,1.6v4.19c0,1.71,0,1.71-1.77,1.71-4.8,0-9.59,0-14.39,0-1.09,0-1.49.3-1.47,1.38C271.41,21.1,271.38,23.36,271.38,25.81Z"/><path class="cls-7" d="M1.32,47.78a53.75,53.75,0,0,1,10-8.9A66.55,66.55,0,0,1,42,26.6a71.67,71.67,0,0,1,31,3,1.36,1.36,0,0,1,.84.8,34.78,34.78,0,0,1,.13,13.18c0,.07-.09.12-.19.24-1.57-.81-3.12-1.7-4.74-2.42-19.09-8.57-38.1-8.09-56.95.72C8.41,43.84,5,46,1.49,48Z"/><path class="cls-2" d="M412.65,48.64c-4.92-.11-9.06-1.44-12.45-4.75a1.19,1.19,0,0,1,0-2c1-1,1.92-2,2.8-3.11.71-.86,1.27-.77,2.06-.06a11,11,0,0,0,7.38,3,6.52,6.52,0,0,0,2.76-.55,1.76,1.76,0,0,0,.28-3.12,12.56,12.56,0,0,0-2.74-1.44c-1.92-.77-3.9-1.4-5.82-2.18-5.28-2.17-7.2-7.64-4.27-12.11a9.6,9.6,0,0,1,6.92-4c5.35-.87,10.35-.14,14.53,3.71.94.87,1,1.2.12,2.13S422.32,26,421.46,27a1.15,1.15,0,0,1-1.91.14,9.46,9.46,0,0,0-6.32-2.5,6.29,6.29,0,0,0-2.3.5,1.38,1.38,0,0,0-.29,2.54,8.8,8.8,0,0,0,1.88,1c2.21.93,4.45,1.77,6.63,2.74,4.93,2.19,7,7.17,4.9,11.7-1.54,3.31-4.54,4.53-7.86,5.16C414.94,48.5,413.65,48.54,412.65,48.64Z"/><path class="cls-1" d="M207.06,25.71c0-5.22,0-10.45,0-15.67,0-1.08.33-1.44,1.41-1.51,2.11-.14,4.2-.47,6.31-.66,1.35-.12,1.51.08,1.51,1.45V37.54c0,.52,0,1,0,1.55,0,1,.42,1.54,1.48,1.33.83-.17,1.14.17,1.24,1,.19,1.5.55,3,.65,4.48a2.12,2.12,0,0,1-.76,1.65c-4.6,3.09-11.52-.28-11.71-5.8-.18-5.33,0-10.68,0-16Z"/><path class="cls-8" d="M60.94,42.81c-3.62,0-7.25-.18-10.85,0-10.54.61-20.59,3-29.59,8.79A34.38,34.38,0,0,0,9.37,62.69,36.83,36.83,0,0,1,2.1,51.2c18.56-10.57,38.21-12.89,58.81-8.7Z"/><path class="cls-9" d="M60.23,8.09l5,4.78a6.13,6.13,0,0,1-1,0,31.79,31.79,0,0,0-10.79-.17,38.65,38.65,0,0,0-16,6.48,1.64,1.64,0,0,0-.63,2.37l-10.57,3a7.64,7.64,0,0,0-1.39-2.08,37.6,37.6,0,0,0-9.44-5.53l1.84-1.69A44.19,44.19,0,0,1,22.17,18c1.77,1.33,3.32,2.95,5,4.42.86.76,2.5,1,2.51.5a3.29,3.29,0,0,0-.86-2.12,27.36,27.36,0,0,0-3.61-2.91c-2.11-1.46-4.18-3.05-6.79-3.6A44.17,44.17,0,0,1,31,6.68a54.62,54.62,0,0,1,17.29-4c3-.22,5.4,1,7.75,2.55a32.15,32.15,0,0,0-3.88-.49,64.61,64.61,0,0,0-9.75.2,33.17,33.17,0,0,0-14.84,6.51,14.23,14.23,0,0,0-2.53,2.61,1.28,1.28,0,0,0,.09,1.24,2,2,0,0,0,1.43,0c.34-.11.6-.51.87-.8a24.91,24.91,0,0,1,7.41-5.36A30.82,30.82,0,0,1,54.67,6.81C56.54,7.17,58.38,7.66,60.23,8.09Zm-3.15,2.38a2.81,2.81,0,0,0-2.69-1.6c-2.92-.2-5.85-.33-8.78-.27a24.3,24.3,0,0,0-13.53,4.77,19.73,19.73,0,0,0-2.95,2.21c-.42.44-.36,1.34-.52,2,.57-.05,1.16-.06,1.72-.16.21,0,.39-.27.58-.41,1.53-1.13,3-2.39,4.61-3.37a20.57,20.57,0,0,1,13.64-2.78,46.73,46.73,0,0,0,6.59,0A5.15,5.15,0,0,0,57.08,10.47Zm-11.53,3c-.57-.37-.86-.7-1.18-.74a3.71,3.71,0,0,0-1.66.07,53.82,53.82,0,0,0-6.22,2.3,23.36,23.36,0,0,0-4.39,3,1.83,1.83,0,0,0-.4,1.73c.4.8,1.23.53,1.86.1.95-.66,1.87-1.35,2.77-2.06,2.24-1.79,4.43-3.65,7.58-3.58C44.36,14.29,44.83,13.82,45.55,13.43Z"/><path class="cls-4" d="M73.12,47.43A38,38,0,0,1,54.77,70.34a11.55,11.55,0,0,1-3-6.75c-.41-4.57,1.59-8.11,5-10.93A23.13,23.13,0,0,1,69.81,47.6C70.82,47.5,71.85,47.49,73.12,47.43Z"/><path class="cls-10" d="M15.77,68.17l-1.68-1.43a18.79,18.79,0,0,0,1.86-1C21,62.15,25.93,58.49,31,55a28.82,28.82,0,0,1,9.47-4.43c2.5-.58,5.08-.85,7.6-1.37a33.5,33.5,0,0,0,3.6-1.16l-.09-.47a16.62,16.62,0,0,0-1.73,0c-1.31.12-2.6.33-3.9.45a30.12,30.12,0,0,0-11.8,3.49,110.2,110.2,0,0,0-14.56,9.3c-1.12.85-2.27,1.67-3.41,2.5a33,33,0,0,1,9.88-9.54A53.11,53.11,0,0,1,47,46.16c.55-.09,1.1-.14,1.65-.21.18.07.36.16.54.21l8.11,2.18L55,49.54c-2.15.34-4.35.48-6.44,1-8.85,2.35-17.43,5.4-24.85,11C20.93,63.58,18.4,65.94,15.77,68.17Z"/><path class="cls-11" d="M36.34,0A62.05,62.05,0,0,0,.1,31.81c-1-4.54,5.59-17,12.08-22.59A36.69,36.69,0,0,1,36.34,0Z"/><path class="cls-12" d="M15.77,68.17c2.63-2.23,5.16-4.59,7.91-6.65,7.42-5.55,16-8.6,24.85-11,2.09-.55,4.29-.69,6.44-1l-5.77,4.3a3.46,3.46,0,0,0-.72,0,61.52,61.52,0,0,0-15.77,5.72c-3.95,2.17-7.66,4.8-11.4,7.35a21.54,21.54,0,0,0-2.91,2.9Z"/><path class="cls-13" d="M27.27,73.43,25.82,73c.66-1.41,1.29-2.82,2-4.2a3.22,3.22,0,0,0,.13-3.38,49.2,49.2,0,0,0-3.3,7.21l-1.51-.59c.46-1.07,1.56-2,1.08-3.28l-.44-.17-1.82,3-2.58-1.23c.36-.24.73-.45,1.06-.72.94-.79,1.83-1.65,2.8-2.41,3.8-3,8.15-4.95,12.45-7,1.31-.64,2.72-1.07,4.09-1.6a2.49,2.49,0,0,1-.14.69,91.88,91.88,0,0,0-6.35,15.28l-4.6-.75c.82-2,1.69-3.93,2.45-5.92.47-1.21.78-2.49,1.16-3.73L31.84,64c-.49.89-1,1.75-1.45,2.65C29.32,68.9,28.31,71.17,27.27,73.43Z"/><path class="cls-9" d="M70.05,19.82,70.68,21l-1.05-.17c-2.89-.42-5.77-1-8.67-1.21-1.45-.1-3.07-.29-4.43.68a3.26,3.26,0,0,1-.8.13,77.33,77.33,0,0,0-16.58.78,3.87,3.87,0,0,1-.59,0c1.11-.82,2.21-1.66,3.34-2.47a26,26,0,0,1,13.57-4.66,34.75,34.75,0,0,1,11.7,1.15c.57.85,1.14,1.69,1.7,2.54-.46,0-.93-.05-1.39-.12a69.88,69.88,0,0,0-8.8-1.36,69,69,0,0,0-9.49.7,7.63,7.63,0,0,0-2.83.9c-.47.27-.67,1-1,1.59.47.19,1,.57,1.4.52a16.23,16.23,0,0,0,3.38-.69,28,28,0,0,1,16.1-.49Z"/><path class="cls-14" d="M47.27,70.07l.61,1c-3.72.28-7.37.86-10.67,2.73-.34.18-.54.59-.81.9l-1.21,0c.85-2.48,1.71-5,2.53-7.45.94-2.86,1.84-5.74,2.76-8.61v-.45c.52-.18,1-.39,1.56-.55L47.46,56l-.7,1.19c-1.16.36-2.33.7-3.47,1.12-.26.09-.41.49-.61.75a3.2,3.2,0,0,0,1,.48c.7.07,1.42,0,2.14,0l-.25,1c-1.73.26-3.49.41-5,1.67a3.91,3.91,0,0,0,1.71.7c1,.09,2,0,3,0V64.1c-1.3.33-2.61.63-3.9,1-.92.27-1.11.92-.76,1.8l5.1-.41.5,1.45c-2.27.53-4.54,1-6.8,1.61a4.93,4.93,0,0,0-1.13.65v.41c.5.22,1,.69,1.5.63C42.28,70.92,44.77,70.47,47.27,70.07Z"/><path class="cls-15" d="M60.23,8.09c-1.85-.43-3.69-.92-5.56-1.28A30.82,30.82,0,0,0,34.88,9.13a24.91,24.91,0,0,0-7.41,5.36c-.27.29-.53.69-.87.8a2,2,0,0,1-1.43,0,1.28,1.28,0,0,1-.09-1.24,14.23,14.23,0,0,1,2.53-2.61A33.17,33.17,0,0,1,42.45,4.93a64.61,64.61,0,0,1,9.75-.2,32.15,32.15,0,0,1,3.88.49Z"/><path class="cls-16" d="M16.21,63.36c1.14-.83,2.29-1.65,3.41-2.5a110.2,110.2,0,0,1,14.56-9.3A30.12,30.12,0,0,1,46,48.07c1.3-.12,2.59-.33,3.9-.45a16.62,16.62,0,0,1,1.73,0l.09.47a33.5,33.5,0,0,1-3.6,1.16c-2.52.52-5.1.79-7.6,1.37A28.82,28.82,0,0,0,31,55C25.93,58.49,21,62.15,16,65.7a18.79,18.79,0,0,1-1.86,1L16,63.63l.25-.28Z"/><path class="cls-17" d="M47.46,56,42,57.6c-.53.16-1,.37-1.56.55l-.73.46h0c-1.37.53-2.78,1-4.09,1.6-4.3,2.07-8.65,4.07-12.45,7-1,.76-1.86,1.62-2.8,2.41-.33.27-.7.48-1.06.72l-1-.53a21.54,21.54,0,0,1,2.91-2.9c3.74-2.55,7.45-5.18,11.4-7.35a61.52,61.52,0,0,1,15.77-5.72,3.46,3.46,0,0,1,.72,0l-1.53,1.9-.23.26Z"/><path class="cls-15" d="M67.17,15.26a34.75,34.75,0,0,0-11.7-1.15A26,26,0,0,0,41.9,18.77c-1.13.81-2.23,1.65-3.34,2.47l-1.66.29a1.64,1.64,0,0,1,.63-2.37,38.65,38.65,0,0,1,16-6.48,31.79,31.79,0,0,1,10.79.17,6.13,6.13,0,0,0,1,0Z"/><path class="cls-18" d="M6.14,29.39l.94-1.68c.51.37,1,.76,1.53,1.12,1.41,1,2.83,2,4.24,3A62.68,62.68,0,0,0,.76,44,44.08,44.08,0,0,1,4.91,31.72a18.25,18.25,0,0,0,2.43,1.65,1.7,1.7,0,0,0,1.51-.24C9.07,33,9,32,8.74,31.75A32.53,32.53,0,0,0,6.14,29.39Z"/><path class="cls-19" d="M115.6,67.48a6.72,6.72,0,0,1-1.34-.81c-1.22-1.26-2.38-2.58-3.57-3.87l-.37.24v4.05h-2.38V58a6.58,6.58,0,0,1,1.29.73c1.32,1.2,2.6,2.45,4.07,3.86V58.43h2.3Z"/><path class="cls-20" d="M70.05,19.82l-3.8-1a28,28,0,0,0-16.1.49,16.23,16.23,0,0,1-3.38.69c-.44,0-.93-.33-1.4-.52.32-.55.52-1.32,1-1.59a7.63,7.63,0,0,1,2.83-.9,69,69,0,0,1,9.49-.7,69.88,69.88,0,0,1,8.8,1.36c.46.07.93.08,1.39.12v0l.24.29Z"/><path class="cls-21" d="M180.38,62.77a17.25,17.25,0,0,1-.83,2.77,3,3,0,0,1-3,1.74,3.13,3.13,0,0,1-3-1.8,6.14,6.14,0,0,1-.07-5.42,3.17,3.17,0,0,1,3.09-1.88,3.12,3.12,0,0,1,3.14,2A22.74,22.74,0,0,1,180.38,62.77Zm-2.51.08a4.26,4.26,0,0,0-.2-1.39c-.24-.43-.68-1-1.06-1.05a1.47,1.47,0,0,0-1.09,1,11.07,11.07,0,0,0,.09,3c0,.27.63.65,1,.64a1.34,1.34,0,0,0,1-.67A6.18,6.18,0,0,0,177.87,62.85Z"/><path class="cls-21" d="M126.05,63.78l1.54,1c-.76,1.88-2.7,2.78-5,2.38a4.54,4.54,0,0,1-3.72-4.38,4.45,4.45,0,0,1,3.56-4.48,4.28,4.28,0,0,1,5.15,2.29l-1.53,1.07c-1.89-1.56-3.11-1.75-4.15-.64a2.58,2.58,0,0,0,0,3.39C123,65.5,124.38,65.27,126.05,63.78Z"/><path class="cls-22" d="M137,60.45h-3.59V61.6h2.54v2h-2.57V65h3.79v2.12H131a1.73,1.73,0,0,1-.1-.37V58.44H137Z"/><path class="cls-23" d="M167.11,65.19h2.49v1.92h-6.77a6.68,6.68,0,0,1,.64-1.1c.89-1,1.84-2,2.73-3a2.69,2.69,0,0,0,.76-1.31c0-.42-.39-.87-.61-1.31a12.56,12.56,0,0,0-1,1c-.1.11,0,.36,0,.58h-2.22a2.75,2.75,0,0,1,1.39-3.31,3.56,3.56,0,0,1,4.2.57C170.63,61.62,168.7,63.25,167.11,65.19Z"/><path class="cls-22" d="M92,65.25l1.37-1a8,8,0,0,0,1.64.93c.35.1.83-.2,1.25-.32a3.83,3.83,0,0,0-.73-.9c-.68-.41-1.45-.67-2.11-1.1a2.25,2.25,0,0,1-1.07-2.36,2.42,2.42,0,0,1,1.67-2A3.49,3.49,0,0,1,98.42,60L97,61.1a6.51,6.51,0,0,0-1.39-.77c-.25-.08-.61.2-.92.32.17.24.29.57.53.7.55.32,1.16.51,1.73.8,1.41.72,1.89,1.62,1.62,3a2.72,2.72,0,0,1-2.68,2.13A3.65,3.65,0,0,1,92,65.25Z"/><path class="cls-21" d="M154,67c.57-.79,1.13-1.58,1.69-2.38-2.17-1.24-2.82-2.49-2.25-4.2a3.41,3.41,0,0,1,4.6-2,3.16,3.16,0,0,1,1.57,4.57,16.82,16.82,0,0,1-2.77,3.73c-.56.53-1.75.39-2.66.55Zm4.16-5.5c-.64-.53-1.08-1.16-1.42-1.11a1.66,1.66,0,0,0-1,1.09c-.05.27.6,1,1,1S157.45,62,158.12,61.52Z"/><path class="cls-15" d="M18.41,14.31c2.61.55,4.68,2.14,6.79,3.6a27.36,27.36,0,0,1,3.61,2.91,3.29,3.29,0,0,1,.86,2.12c0,.49-1.65.26-2.51-.5-1.67-1.47-3.22-3.09-5-4.42a44.19,44.19,0,0,0-4.83-2.78Z"/><path class="cls-16" d="M36.4,74.68c.27-.31.47-.72.81-.9,3.3-1.87,6.95-2.45,10.67-2.73l1.26,1.68a33.62,33.62,0,0,1-8.94,1.9C38.94,74.72,37.67,74.66,36.4,74.68Z"/><path class="cls-9" d="M24.67,25.13,23,25.85a51.77,51.77,0,0,0-10.23-6.07l1.75-1.89c1.3.77,2.62,1.5,3.89,2.32C20.66,21.66,23,23,24.67,25.13Z"/><path class="cls-15" d="M9.23,24.35l1.45-2c.2.12.39.25.59.36,2.71,1.48,5.58,2.73,7.62,5.19-.88.49-1.75,1-2.62,1.49a6.54,6.54,0,0,0-.75-.74C13.43,27.23,11.33,25.8,9.23,24.35Z"/><path class="cls-12" d="M57.29,48.34l-8.11-2.18c-.18,0-.36-.14-.54-.21l13-.73,1.73,1Z"/><path class="cls-17" d="M40.48,58.6c-.92,2.87-1.82,5.75-2.76,8.61-.82,2.49-1.68,5-2.53,7.45l-1.92-.09a91.88,91.88,0,0,1,6.35-15.28,2.49,2.49,0,0,0,.14-.69h.72Z"/><path class="cls-21" d="M149.82,58.17V67.1h-2.31V61.21l-1.47.35-.59-2Z"/><path class="cls-15" d="M24.67,25.13c-1.65-2.18-4-3.47-6.24-4.92-1.27-.82-2.59-1.55-3.89-2.32l1-1a37.6,37.6,0,0,1,9.44,5.53,7.64,7.64,0,0,1,1.39,2.08Z"/><path class="cls-9" d="M18.89,27.94c-2-2.46-4.91-3.71-7.62-5.19-.2-.11-.39-.24-.59-.36l1.47-1.85c.1.12.17.28.3.36q4.29,3,8.6,5.89Z"/><path class="cls-22" d="M104.17,67.12H102V58.41h2.22Z"/><path class="cls-20" d="M56.53,20.33c1.36-1,3-.78,4.43-.68,2.9.21,5.78.79,8.67,1.21l1.05.17.77,1.53c-3.57-.56-7-1.13-10.51-1.66C59.47,20.68,58,20.52,56.53,20.33Z"/><path class="cls-9" d="M9.23,24.35c2.1,1.45,4.2,2.88,6.29,4.34a6.54,6.54,0,0,1,.75.74l-1.95,1.34L7.91,26.29Z"/><path class="cls-15" d="M21.05,26.79q-4.31-2.94-8.6-5.89c-.13-.08-.2-.24-.3-.36.21-.25.42-.51.64-.76A51.77,51.77,0,0,1,23,25.85Z"/><path class="cls-16" d="M47.27,70.07c-2.5.4-5,.85-7.49,1.17-.47.06-1-.41-1.5-.63V70.2a4.93,4.93,0,0,1,1.13-.65c2.26-.56,4.53-1.08,6.8-1.61Z"/><path class="cls-20" d="M7.91,26.29l6.41,4.48-1.47,1c-1.41-1-2.83-2-4.24-3-.52-.36-1-.75-1.53-1.12Z"/><path class="cls-16" d="M27.27,73.43c1-2.26,2.05-4.53,3.12-6.78.43-.9,1-1.76,1.45-2.65l.44.17c-.38,1.24-.69,2.52-1.16,3.73-.76,2-1.63,3.95-2.45,5.92Z"/><path class="cls-16" d="M45.72,66.49l-5.1.41c-.35-.88-.16-1.53.76-1.8,1.29-.37,2.6-.67,3.9-1Z"/><path class="cls-15" d="M6.14,29.39a32.53,32.53,0,0,1,2.6,2.36c.26.29.33,1.2.11,1.38a1.7,1.7,0,0,1-1.51.24,18.25,18.25,0,0,1-2.43-1.65Z"/><path class="cls-16" d="M24.63,72.67a49.2,49.2,0,0,1,3.3-7.21,3.22,3.22,0,0,1-.13,3.38c-.69,1.38-1.32,2.79-2,4.2Z"/><path class="cls-16" d="M45.27,62.91c-1,0-2,.07-3,0a3.91,3.91,0,0,1-1.71-.7c1.48-1.26,3.24-1.41,5-1.67Z"/><path class="cls-16" d="M45.78,59.56c-.72,0-1.44,0-2.14,0a3.2,3.2,0,0,1-1-.48c.2-.26.35-.66.61-.75,1.14-.42,2.31-.76,3.47-1.12Z"/><path class="cls-16" d="M21.94,71.58l1.82-3,.44.17c.48,1.29-.62,2.21-1.08,3.28Z"/><path class="cls-16" d="M63.32,46.24l-1.73-1H66.8v.41Z"/><path class="cls-7" d="M1.49,48l-.29,0,.12-.27Z"/><path class="cls-14" d="M47.44,56l.23-.26Z"/><path class="cls-9" d="M69.1,18.12l-.24-.29Z"/><path class="cls-10" d="M16.23,63.35l-.25.28Z"/><path class="cls-20" d="M57.08,10.47a5.15,5.15,0,0,1-1.33.46,46.73,46.73,0,0,1-6.59,0,20.57,20.57,0,0,0-13.64,2.78c-1.62,1-3.08,2.24-4.61,3.37-.19.14-.37.37-.58.41-.56.1-1.15.11-1.72.16.16-.69.1-1.59.52-2a19.73,19.73,0,0,1,2.95-2.21A24.3,24.3,0,0,1,45.61,8.6c2.93-.06,5.86.07,8.78.27A2.81,2.81,0,0,1,57.08,10.47Z"/><path class="cls-15" d="M45.55,13.43c-.72.39-1.19.86-1.64.85-3.15-.07-5.34,1.79-7.58,3.58-.9.71-1.82,1.4-2.77,2.06-.63.43-1.46.7-1.86-.1a1.83,1.83,0,0,1,.4-1.73,23.36,23.36,0,0,1,4.39-3,53.82,53.82,0,0,1,6.22-2.3,3.71,3.71,0,0,1,1.66-.07C44.69,12.73,45,13.06,45.55,13.43Z"/><path class="cls-13" d="M40.48,58.6h-.73l.73-.46Z"/></svg>