<svg id="Layer_1_Image" data-name="Layer 1 Image" xmlns="http://www.w3.org/2000/svg" viewBox="0 0 1149.7 799.97"><path d="M0,649.73V550H49.76V250H0V150.23H50.05v-4.81c0-14.75,0-29.5,0-44.25.08-31.32,12-57.36,35.75-77.63C104.79,7.36,127.06,0,152.05,0Q321,.17,489.9.05q253.86,0,507.72,0c19.06,0,37,4,53.21,14,29,17.88,46,43.75,48.53,77.85,1.35,17.78.52,35.72.69,53.59,0,1.44.14,2.88.23,4.68h49.42v100h-49.43v300h49.38v100H1100v4.44c0,14.87,0,29.75,0,44.62,0,17.83-3.94,34.77-13.17,50.09-20.11,33.4-49.77,50.65-88.88,50.68q-248.79.14-497.59,0-174,0-348,.05c-18.53,0-36-3.73-51.91-13.27-31-18.62-48.33-46-50.14-82.29-.83-16.59-.26-33.24-.32-49.86,0-1.44,0-2.88,0-4.63H45Zm999.67,50.14V100.21H150.26V699.87Z"/><path d="M704.45,377.2c10.49,1.41,19.33,4.83,26.9,11.08,11.84,9.78,18.49,22.4,18.55,37.73q.32,87.56,0,175.1c-.07,25.76-21.25,47.75-47.07,48.55-19.22.59-38.5.51-57.72-.06C624.2,649,604.06,630,600.82,608.82a65.61,65.61,0,0,1-.79-9.69q0-199.1,0-398.19c0-25.53,16.94-45.75,42.07-50.28a35.37,35.37,0,0,1,6.33-.54c18.37,0,36.75-.32,55.11.2,22.37.63,42.52,19.19,45.7,41.37a72.26,72.26,0,0,1,.75,10.07c0,40.12-.64,80.25.26,120.35C750.84,349.23,734.19,372.8,704.45,377.2Zm-4.79,222.64V400.19H650.28V599.84ZM650.29,200.12V349.61H699.7V200.12Z"/><path d="M900,299.79V200.15H850.19V349.86h99.65c.08,1.75.19,3.08.19,4.41q0,122.43,0,244.85c0,28.63-21.84,50.57-50.45,50.77q-24.57.18-49.12,0c-28.27-.19-49.71-21.37-50.38-49.6,0-.62,0-1.25,0-1.87q0-198.36,0-396.72c0-17.61,6.74-31.76,20.85-42.25,7.69-5.72,16.43-9.12,26.06-9.22,19.12-.2,38.25-.43,57.36.11,22.15.63,43,20.8,45.17,42.86.37,3.72.55,7.48.56,11.22q.06,45.36,0,90.74v4.63Zm-.12,100.46H850.26V599.76h49.63Z"/><path d="M400,150.29h50V599.77h49.95V150.36H550v4q0,221.77.12,443.56c0,26.27-18.14,47.49-42.21,51.38a34.87,34.87,0,0,1-5.59.49c-18.74,0-37.5.33-56.23-.19-22.61-.63-43.45-20.79-45.52-43.3-.34-3.6-.54-7.22-.54-10.84q0-219.9,0-439.81Z"/><path d="M250.05,450V649.63h-50v-4.16q0-221.61-.14-443.22c0-26.79,18.44-47.91,42.37-51.66a33.85,33.85,0,0,1,5.22-.45c18.87,0,37.76-.35,56.61.2,22.42.64,43.24,20.76,45.36,43.06.36,3.72.55,7.48.55,11.22q0,97.11,0,194.23c0,25.08-16.51,45.39-40.88,50.23a56,56,0,0,1-10.43.92c-14.74.1-29.49,0-44.24,0Zm49.74-50.21V200.19h-49.6V399.83Z"/></svg>