<?xml version="1.0" encoding="UTF-8"?>
<svg xmlns="http://www.w3.org/2000/svg" xmlns:xlink="http://www.w3.org/1999/xlink" width="854pt" height="235.92pt" viewBox="0 0 854 235.92" version="1.1">
<defs>
<clipPath id="clip1">
  <path d="M 299 191 L 324 191 L 324 235.921875 L 299 235.921875 Z M 299 191 "/>
</clipPath>
<clipPath id="clip2">
  <path d="M 331 190 L 366 190 L 366 235.921875 L 331 235.921875 Z M 331 190 "/>
</clipPath>
<clipPath id="clip3">
  <path d="M 367 190 L 414 190 L 414 235.921875 L 367 235.921875 Z M 367 190 "/>
</clipPath>
<clipPath id="clip4">
  <path d="M 418 191 L 473 191 L 473 235.921875 L 418 235.921875 Z M 418 191 "/>
</clipPath>
<clipPath id="clip5">
  <path d="M 476 191 L 520 191 L 520 235.921875 L 476 235.921875 Z M 476 191 "/>
</clipPath>
<clipPath id="clip6">
  <path d="M 521 190 L 559 190 L 559 235.921875 L 521 235.921875 Z M 521 190 "/>
</clipPath>
<clipPath id="clip7">
  <path d="M 567 191 L 596 191 L 596 235.921875 L 567 235.921875 Z M 567 191 "/>
</clipPath>
<clipPath id="clip8">
  <path d="M 614 190 L 656 190 L 656 235.921875 L 614 235.921875 Z M 614 190 "/>
</clipPath>
<clipPath id="clip9">
  <path d="M 675 190 L 713 190 L 713 235.921875 L 675 235.921875 Z M 675 190 "/>
</clipPath>
<clipPath id="clip10">
  <path d="M 714 191 L 758 191 L 758 235.921875 L 714 235.921875 Z M 714 191 "/>
</clipPath>
<clipPath id="clip11">
  <path d="M 763 191 L 772 191 L 772 235.921875 L 763 235.921875 Z M 763 191 "/>
</clipPath>
<clipPath id="clip12">
  <path d="M 782 190 L 816 190 L 816 235.921875 L 782 235.921875 Z M 782 190 "/>
</clipPath>
<clipPath id="clip13">
  <path d="M 814 191 L 854 191 L 854 235.921875 L 814 235.921875 Z M 814 191 "/>
</clipPath>
<clipPath id="clip14">
  <path d="M 22 158 L 95 158 L 95 235.921875 L 22 235.921875 Z M 22 158 "/>
</clipPath>
</defs>
<g id="surface1">
<path style=" stroke:none;fill-rule:nonzero;fill:fillCurrent;fill-opacity:1;" d="M 298.527344 136.011719 C 304.234375 140.289063 311.101563 143.917969 319.789063 143.917969 C 325.625 143.917969 330.6875 142.238281 330.6875 137.050781 C 330.6875 132.378906 326.664063 130.695313 318.886719 128.753906 C 302.933594 124.730469 296.972656 117.472656 296.972656 104.632813 C 296.972656 89.464844 308.515625 80.777344 323.683594 80.777344 C 332.890625 80.777344 339.238281 82.980469 344.945313 86.351563 L 344.945313 105.285156 C 338.980469 100.355469 332.371094 97.242188 324.460938 97.242188 C 318.628906 97.242188 315.773438 99.835938 315.773438 103.46875 C 315.773438 108.394531 320.179688 109.949219 328.347656 112.019531 C 344.171875 116.175781 349.609375 123.5625 349.609375 136.402344 C 349.609375 153.128906 336.253906 160.386719 319.921875 160.386719 C 311.359375 160.386719 303.582031 158.054688 298.527344 154.941406 L 298.527344 136.011719 "/>
<path style=" stroke:none;fill-rule:nonzero;fill:fillCurrent;fill-opacity:1;" d="M 377.363281 144.4375 L 372.046875 159.089844 L 351.691406 159.089844 L 381.640625 82.074219 L 404.84375 82.074219 L 434.800781 159.089844 L 413.664063 159.089844 L 408.476563 144.4375 Z M 393.179688 101.390625 L 383.191406 128.75 L 402.902344 128.75 Z M 393.179688 101.390625 "/>
<path style=" stroke:none;fill-rule:nonzero;fill:fillCurrent;fill-opacity:1;" d="M 454.511719 159.089844 L 425.855469 82.074219 L 446.605469 82.074219 L 466.4375 139.507813 L 486.015625 82.074219 L 506.636719 82.074219 L 477.980469 159.089844 L 454.511719 159.089844 "/>
<path style=" stroke:none;fill-rule:nonzero;fill:fillCurrent;fill-opacity:1;" d="M 568.441406 142.105469 L 568.441406 159.09375 L 516.578125 159.09375 L 516.578125 82.074219 L 567.539063 82.074219 L 567.539063 99.058594 L 535.636719 99.058594 L 535.636719 112.285156 L 564.683594 112.285156 L 564.683594 128.878906 L 535.636719 128.878906 L 535.636719 142.105469 L 568.441406 142.105469 "/>
<path style=" stroke:none;fill-rule:nonzero;fill:fillCurrent;fill-opacity:1;" d="M 635.085938 129.269531 L 635.085938 82.074219 L 653.753906 82.074219 L 653.753906 159.089844 L 635.476563 159.089844 L 603.320313 112.804688 L 603.320313 159.089844 L 584.652344 159.089844 L 584.652344 82.074219 L 604.097656 82.074219 L 635.085938 129.269531 "/>
<path style=" stroke:none;fill-rule:nonzero;fill:fillCurrent;fill-opacity:1;" d="M 726.5 106.320313 C 721.703125 101.519531 714.570313 98.152344 705.621094 98.152344 C 692.917969 98.152344 685.660156 107.484375 685.660156 120.578125 C 685.660156 134.199219 693.957031 143.015625 706.398438 143.015625 C 715.609375 143.015625 721.316406 140.285156 728.058594 134.972656 L 728.058594 154.679688 C 720.535156 159.222656 713.398438 160.386719 705.492188 160.386719 C 681.246094 160.386719 665.820313 143.917969 665.820313 120.578125 C 665.820313 97.113281 681.636719 80.777344 705.492188 80.777344 C 713.398438 80.777344 720.273438 82.074219 726.5 85.703125 L 726.5 106.320313 "/>
<path style=" stroke:none;fill-rule:nonzero;fill:fillCurrent;fill-opacity:1;" d="M 762.941406 159.09375 L 743.625 159.09375 L 743.625 82.078125 L 762.941406 82.078125 L 762.941406 159.09375 "/>
<path style=" stroke:none;fill-rule:nonzero;fill:fillCurrent;fill-opacity:1;" d="M 796.519531 144.4375 L 791.203125 159.089844 L 770.851563 159.089844 L 800.800781 82.074219 L 824.003906 82.074219 L 853.957031 159.089844 L 832.824219 159.089844 L 827.636719 144.4375 Z M 812.339844 101.390625 L 802.351563 128.75 L 822.0625 128.75 Z M 812.339844 101.390625 "/>
<g clip-path="url(#clip1)" clip-rule="nonzero">
<path style=" stroke:none;fill-rule:nonzero;fill:fillCurrent;fill-opacity:1;" d="M 299.378906 235.175781 L 299.378906 191.140625 L 323.84375 191.140625 L 323.84375 197.8125 L 306.9375 197.8125 L 306.9375 210.636719 L 322.207031 210.636719 L 322.207031 217.304688 L 306.9375 217.304688 L 306.9375 235.175781 L 299.378906 235.175781 "/>
</g>
<g clip-path="url(#clip2)" clip-rule="nonzero">
<path style=" stroke:none;fill-rule:nonzero;fill:fillCurrent;fill-opacity:1;" d="M 339.339844 235.175781 L 331.777344 235.175781 L 331.777344 191.210938 C 334.445313 190.769531 339.1875 190.398438 342.746094 190.398438 C 354.3125 190.398438 360.617188 195.507813 360.617188 204.773438 C 360.617188 211.230469 356.980469 215.898438 351.867188 217.832031 L 365.136719 235.175781 L 356.019531 235.175781 L 344.304688 219.539063 L 339.339844 219.539063 Z M 339.339844 213.304688 L 343.042969 213.304688 C 349.050781 213.304688 352.902344 210.710938 352.902344 205 C 352.902344 199.960938 349.421875 196.992188 342.746094 196.992188 C 341.859375 196.992188 340.152344 197.070313 339.339844 197.144531 L 339.339844 213.304688 "/>
</g>
<g clip-path="url(#clip3)" clip-rule="nonzero">
<path style=" stroke:none;fill-rule:nonzero;fill:fillCurrent;fill-opacity:1;" d="M 390.492188 190.394531 C 403.167969 190.394531 413.328125 199.664063 413.328125 213.160156 C 413.328125 226.648438 403.167969 235.917969 390.492188 235.917969 C 377.742188 235.917969 367.664063 226.648438 367.664063 213.160156 C 367.664063 199.664063 377.742188 190.394531 390.492188 190.394531 M 390.492188 197.21875 C 382.046875 197.21875 375.445313 203.523438 375.445313 213.160156 C 375.445313 222.792969 382.046875 229.097656 390.492188 229.097656 C 398.945313 229.097656 405.539063 222.792969 405.539063 213.160156 C 405.539063 203.523438 398.945313 197.21875 390.492188 197.21875 "/>
</g>
<g clip-path="url(#clip4)" clip-rule="nonzero">
<path style=" stroke:none;fill-rule:nonzero;fill:fillCurrent;fill-opacity:1;" d="M 441.722656 235.175781 L 431.273438 201.070313 L 425.933594 235.175781 L 418.441406 235.175781 L 425.488281 191.140625 L 434.898438 191.140625 L 445.570313 226.054688 L 456.03125 191.140625 L 465.523438 191.140625 L 472.492188 235.175781 L 464.925781 235.175781 L 459.585938 201.070313 L 449.136719 235.175781 L 441.722656 235.175781 "/>
</g>
<g clip-path="url(#clip5)" clip-rule="nonzero">
<path style=" stroke:none;fill-rule:nonzero;fill:fillCurrent;fill-opacity:1;" d="M 487.980469 224.796875 L 484.128906 235.171875 L 476.121094 235.171875 L 493.242188 191.136719 L 502.511719 191.136719 L 519.710938 235.171875 L 511.488281 235.171875 L 507.628906 224.796875 Z M 497.839844 198.257813 L 490.28125 218.5625 L 505.328125 218.5625 Z M 497.839844 198.257813 "/>
</g>
<g clip-path="url(#clip6)" clip-rule="nonzero">
<path style=" stroke:none;fill-rule:nonzero;fill:fillCurrent;fill-opacity:1;" d="M 557.152344 201.8125 C 554.039063 198.925781 549.515625 197.21875 544.699219 197.21875 C 535.800781 197.21875 529.351563 203.519531 529.351563 213.15625 C 529.351563 222.941406 536.023438 229.320313 544.699219 229.320313 C 547.4375 229.320313 549.441406 229.023438 551.222656 228.277344 L 551.222656 214.9375 L 558.789063 214.9375 L 558.789063 232.65625 C 555.300781 234.804688 549.960938 235.921875 544.550781 235.921875 C 530.835938 235.921875 521.5625 226.941406 521.5625 213.15625 C 521.5625 199.667969 531.28125 190.394531 544.324219 190.394531 C 549.296875 190.394531 553.601563 191.582031 557.152344 193.734375 L 557.152344 201.8125 "/>
</g>
<g clip-path="url(#clip7)" clip-rule="nonzero">
<path style=" stroke:none;fill-rule:nonzero;fill:fillCurrent;fill-opacity:1;" d="M 595.261719 228.503906 L 595.261719 235.175781 L 567.90625 235.175781 L 567.90625 191.140625 L 594.8125 191.140625 L 594.8125 197.808594 L 575.394531 197.808594 L 575.394531 209.675781 L 593.40625 209.675781 L 593.40625 216.195313 L 575.394531 216.195313 L 575.394531 228.503906 L 595.261719 228.503906 "/>
</g>
<g clip-path="url(#clip8)" clip-rule="nonzero">
<path style=" stroke:none;fill-rule:nonzero;fill:fillCurrent;fill-opacity:1;" d="M 623.800781 211.152344 C 621.136719 208.410156 619.203125 205.078125 619.203125 201.074219 C 619.203125 194.839844 623.800781 190.398438 630.992188 190.398438 C 638.035156 190.398438 642.855469 194.472656 642.855469 200.921875 C 642.855469 206.78125 639.222656 210.339844 634.769531 212.789063 L 643.148438 221.761719 C 644.5625 219.089844 645.375 215.976563 645.519531 212.859375 L 651.824219 212.859375 C 651.753906 217.828125 650.195313 222.574219 647.449219 226.429688 L 655.609375 235.171875 L 646.78125 235.171875 L 643.003906 231.171875 C 639.296875 234.0625 634.699219 235.84375 629.515625 235.84375 C 620.617188 235.84375 614.980469 231.316406 614.980469 223.757813 C 614.980469 217.683594 618.539063 214.488281 624.320313 211.746094 Z M 628.175781 215.753906 C 624.171875 217.683594 622.324219 220.347656 622.324219 223.535156 C 622.324219 227.46875 625.285156 229.984375 630.03125 229.984375 C 633.515625 229.984375 636.476563 228.800781 638.925781 226.941406 Z M 630.992188 208.707031 C 633.957031 207.152344 636.109375 205 636.109375 201.144531 C 636.109375 198.109375 634.035156 196.324219 631.066406 196.253906 C 628.105469 196.253906 626.25 198.257813 626.25 201 C 626.25 203.148438 627.289063 204.777344 629.652344 207.300781 L 630.992188 208.707031 "/>
</g>
<g clip-path="url(#clip9)" clip-rule="nonzero">
<path style=" stroke:none;fill-rule:nonzero;fill:fillCurrent;fill-opacity:1;" d="M 675.03125 191.210938 C 678.289063 190.765625 682.742188 190.394531 686.746094 190.394531 C 704.316406 190.394531 712.621094 199.519531 712.621094 212.417969 C 712.621094 226.503906 703.941406 235.84375 686.890625 235.84375 C 682.445313 235.84375 678.289063 235.546875 675.03125 235.023438 Z M 682.589844 228.945313 C 684.226563 229.171875 685.925781 229.242188 687.5625 229.242188 C 697.714844 229.242188 704.757813 223.910156 704.757813 212.417969 C 704.757813 202.925781 698.679688 197.363281 687.042969 197.363281 C 685.632813 197.363281 684.074219 197.441406 682.589844 197.585938 L 682.589844 228.945313 "/>
</g>
<g clip-path="url(#clip10)" clip-rule="nonzero">
<path style=" stroke:none;fill-rule:nonzero;fill:fillCurrent;fill-opacity:1;" d="M 726.261719 224.796875 L 722.402344 235.171875 L 714.398438 235.171875 L 731.519531 191.136719 L 740.785156 191.136719 L 757.988281 235.171875 L 749.765625 235.171875 L 745.902344 224.796875 Z M 736.117188 198.257813 L 728.558594 218.5625 L 743.605469 218.5625 Z M 736.117188 198.257813 "/>
</g>
<g clip-path="url(#clip11)" clip-rule="nonzero">
<path style=" stroke:none;fill-rule:nonzero;fill:fillCurrent;fill-opacity:1;" d="M 771.488281 235.175781 L 763.929688 235.175781 L 763.929688 191.140625 L 771.488281 191.140625 L 771.488281 235.175781 "/>
</g>
<g clip-path="url(#clip12)" clip-rule="nonzero">
<path style=" stroke:none;fill-rule:nonzero;fill:fillCurrent;fill-opacity:1;" d="M 790.015625 235.175781 L 782.457031 235.175781 L 782.457031 191.210938 C 785.125 190.769531 789.867188 190.398438 793.433594 190.398438 C 804.992188 190.398438 811.296875 195.507813 811.296875 204.773438 C 811.296875 211.230469 807.65625 215.898438 802.546875 217.832031 L 815.820313 235.175781 L 806.699219 235.175781 L 794.980469 219.539063 L 790.015625 219.539063 Z M 790.015625 213.304688 L 793.722656 213.304688 C 799.730469 213.304688 803.585938 210.710938 803.585938 205 C 803.585938 199.960938 800.105469 196.992188 793.433594 196.992188 C 792.539063 196.992188 790.832031 197.070313 790.015625 197.144531 L 790.015625 213.304688 "/>
</g>
<g clip-path="url(#clip13)" clip-rule="nonzero">
<path style=" stroke:none;fill-rule:nonzero;fill:fillCurrent;fill-opacity:1;" d="M 845.621094 191.136719 L 854 191.136719 L 838.0625 218.347656 L 838.0625 235.175781 L 830.496094 235.175781 L 830.496094 218.347656 L 814.554688 191.136719 L 822.9375 191.136719 L 834.351563 211.234375 L 845.621094 191.136719 "/>
</g>
<path style=" stroke:none;fill-rule:nonzero;fill:fillCurrent;fill-opacity:1;" d="M 206.070313 169.265625 C 204.324219 127.8125 157.933594 109.738281 127.921875 96.554688 C 82.648438 76.707031 61.34375 65.652344 60.292969 40.871094 C 59.800781 29.105469 63.71875 20.167969 69.902344 13.699219 C 74.660156 8 81.421875 4.09375 87.285156 1.605469 C 57.515625 9.175781 22.71875 29.136719 24.207031 64.460938 C 25.140625 86.484375 37.066406 107.742188 95.035156 130.734375 C 157.371094 155.382813 170.296875 164.03125 171.386719 189.726563 C 171.855469 200.773438 165.832031 217.316406 149.410156 228.046875 C 145.609375 230.914063 141.804688 232.714844 137.644531 234.878906 C 173.183594 227.515625 207.542969 204.234375 206.070313 169.265625 "/>
<path style=" stroke:none;fill-rule:nonzero;fill:fillCurrent;fill-opacity:1;" d="M 193.234375 92.351563 C 178.570313 90.089844 178.328125 101.066406 180.859375 106.097656 C 185.273438 114.886719 199 118.046875 208.390625 115.101563 C 227.496094 109.117188 234.277344 86.878906 223.386719 66.191406 C 223.386719 66.191406 215.582031 95.785156 193.234375 92.351563 "/>
<path style=" stroke:none;fill-rule:nonzero;fill:fillCurrent;fill-opacity:1;" d="M 136.253906 -0.00390625 C 178.902344 23.460938 159.378906 61.601563 179.625 73.378906 C 195.226563 82.4375 210.472656 70.515625 207.6875 52.445313 C 204.675781 32.90625 184.207031 17.71875 165.925781 9.367188 C 152.371094 3.179688 142.457031 1.234375 136.253906 -0.00390625 "/>
<path style=" stroke:none;fill-rule:nonzero;fill:fillCurrent;fill-opacity:1;" d="M 134.167969 23.113281 C 123.335938 13.449219 109.703125 14.21875 99.390625 17.316406 C 88.234375 20.664063 78.984375 30.242188 78.445313 40.597656 C 78.046875 48.136719 83.316406 60.191406 96.335938 58.335938 C 112.191406 56.066406 109.359375 43.386719 117.175781 33.644531 C 126.621094 21.878906 134.167969 23.113281 134.167969 23.113281 "/>
<path style=" stroke:none;fill-rule:nonzero;fill:fillCurrent;fill-opacity:1;" d="M 166.882813 88.09375 C 147.242188 91.90625 129.402344 80.667969 126.144531 66.402344 C 124.007813 57.054688 125.3125 49.558594 129.84375 45.75 C 135.417969 41.058594 142.863281 40.773438 148.601563 46.894531 C 154.824219 53.53125 151.410156 60.078125 154.347656 70.628906 C 157.1875 80.859375 166.882813 88.09375 166.882813 88.09375 "/>
<path style=" stroke:none;fill-rule:nonzero;fill:fillCurrent;fill-opacity:1;" d="M 231.046875 137.640625 C 230.496094 128.105469 225.839844 122.140625 218.953125 123.101563 C 211.433594 124.148438 208.605469 130.695313 211.484375 139.332031 C 213.898438 146.578125 220.839844 151.410156 218.023438 172.9375 C 221.761719 168.871094 232.183594 157.488281 231.046875 137.640625 "/>
<path style=" stroke:none;fill-rule:nonzero;fill:fillCurrent;fill-opacity:1;" d="M 37.792969 142.679688 C 52.460938 144.964844 52.71875 133.996094 50.195313 128.960938 C 45.804688 120.160156 32.085938 116.964844 22.683594 119.894531 C 3.570313 125.839844 -3.257813 148.066406 7.585938 168.777344 C 7.585938 168.777344 15.453125 139.191406 37.792969 142.679688 "/>
<g clip-path="url(#clip14)" clip-rule="nonzero">
<path style=" stroke:none;fill-rule:nonzero;fill:fillCurrent;fill-opacity:1;" d="M 94.582031 235.152344 C 51.988281 211.59375 71.582031 173.5 51.359375 161.683594 C 35.777344 152.582031 20.511719 164.476563 23.257813 182.554688 C 26.222656 202.097656 46.660156 217.328125 64.933594 225.714844 C 78.46875 231.933594 88.375 233.898438 94.582031 235.152344 "/>
</g>
<path style=" stroke:none;fill-rule:nonzero;fill:fillCurrent;fill-opacity:1;" d="M 96.714844 212.042969 C 107.527344 221.730469 121.160156 220.984375 131.488281 217.917969 C 142.640625 214.589844 151.90625 205.027344 152.472656 194.671875 C 152.890625 187.136719 147.640625 175.066406 134.617188 176.898438 C 118.761719 179.128906 121.570313 191.816406 113.730469 201.542969 C 104.261719 213.285156 96.714844 212.042969 96.714844 212.042969 "/>
<path style=" stroke:none;fill-rule:nonzero;fill:fillCurrent;fill-opacity:1;" d="M 64.136719 146.988281 C 83.78125 143.21875 101.601563 154.492188 104.832031 168.765625 C 106.945313 178.121094 105.625 185.605469 101.082031 189.417969 C 95.507813 194.09375 88.0625 194.367188 82.332031 188.230469 C 76.121094 181.574219 79.546875 175.035156 76.640625 164.480469 C 73.824219 154.246094 64.136719 146.988281 64.136719 146.988281 "/>
<path style=" stroke:none;fill-rule:nonzero;fill:fillCurrent;fill-opacity:1;" d="M 0.078125 97.308594 C 0.605469 106.84375 5.257813 112.8125 12.136719 111.871094 C 19.664063 110.839844 22.503906 104.300781 19.644531 95.65625 C 17.242188 88.402344 10.3125 83.5625 13.179688 62.039063 C 9.429688 66.097656 -1.011719 77.453125 0.078125 97.308594 "/>
</g>
</svg>
