
<svg width="1000px" height="165px" viewBox="0 0 1000 165" version="1.1" xmlns="http://www.w3.org/2000/svg" xmlns:xlink="http://www.w3.org/1999/xlink">
    <title>Sung King Logo</title>
    <g id="Sung-King-Logo" stroke="none" stroke-width="1" fill="fillCurrent" fill-rule="evenodd">
        <path d="M32.37,134.336 C27.72,133.602 23.683,132.501 20.259,131.033 C13.407,128 8.416,123.619 5.285,117.894 C2.151,112.169 0.39,105.148 0,96.828 L30.241,96.828 L30.241,97.121 C30.535,102.016 32.246,105.687 35.379,108.131 C38.51,110.579 43.061,111.802 49.032,111.802 C54.218,111.802 58.01,110.873 60.41,109.012 C62.807,107.154 64.007,104.755 64.007,101.819 C64.007,100.449 63.761,99.25 63.272,98.222 C62.781,97.195 61.999,96.339 60.923,95.653 C58.868,94.186 55.955,93.036 52.188,92.203 C48.42,91.373 43.943,90.566 38.756,89.781 C34.058,88.999 29.53,87.971 25.177,86.698 C20.821,85.427 16.979,83.615 13.653,81.266 C10.226,79.017 7.535,76.055 5.578,72.385 C3.619,68.715 2.642,64.042 2.642,58.365 C2.642,55.135 3.057,52.103 3.89,49.263 C4.72,46.426 5.92,43.783 7.487,41.335 C10.717,36.345 15.561,32.454 22.021,29.665 C28.48,26.876 36.455,25.481 45.949,25.481 C60.238,25.481 71.149,28.394 78.686,34.216 C86.221,40.04 90.38,48.822 91.165,60.567 L62.244,60.567 C61.852,56.163 60.286,52.959 57.547,50.952 C54.806,48.947 50.695,47.942 45.216,47.942 C40.125,47.942 36.554,48.848 34.499,50.658 C32.444,52.47 31.416,54.646 31.416,57.19 C31.416,60.813 33.544,63.26 37.801,64.531 C42.059,65.804 47.906,67.077 55.344,68.348 C60.238,69.229 64.935,70.33 69.438,71.651 C73.938,72.972 77.902,74.759 81.329,77.009 C84.852,79.358 87.641,82.418 89.697,86.185 C91.752,89.953 92.78,94.724 92.78,100.498 C92.78,110.873 89.059,119.289 81.623,125.748 C74.184,132.207 62.979,135.437 48.005,135.437 C42.229,135.437 37.017,135.07 32.37,134.336" id="Fill-1" fill="fillCurrent"></path>
        <polyline id="Fill-4" fill="fillCurrent" points="99.091 133.088 99.091 106.81 118.616 106.81 118.616 53.667 99.091 53.667 99.091 27.83 165.741 27.83 165.741 53.667 146.215 53.667 146.215 106.81 165.741 106.81 165.741 133.088 99.091 133.088"></polyline>
        <polyline id="Fill-5" fill="fillCurrent" points="204.2 70.55 204.2 133.088 177.335 133.088 177.335 27.83 204.347 27.83 245.158 89.047 245.158 27.83 272.023 27.83 272.023 133.088 245.892 133.088 204.2 70.55"></polyline>
        <path d="M354.085,107.838 C352.812,115.864 349.656,122.47 344.616,127.656 C339.574,132.845 332.161,135.437 322.376,135.437 C309.359,135.437 299.621,131.499 293.162,123.619 C286.703,115.743 283.473,103.287 283.473,86.258 L283.473,76.129 C283.473,70.453 283.987,65.29 285.015,60.641 C286.042,55.994 287.584,51.809 289.639,48.088 C293.651,40.553 299.401,34.927 306.888,31.206 C314.375,27.488 323.158,25.628 333.239,25.628 C347.822,25.628 359.052,29.03 366.931,35.831 C374.808,42.634 379.091,52.69 379.776,65.999 L379.776,66.587 L349.975,66.587 L349.975,66.439 C349.582,61.546 348.089,57.755 345.498,55.062 C342.903,52.372 338.671,51.024 332.799,51.024 C326.046,51.024 321.055,53.105 317.825,57.264 C314.595,61.425 312.981,68.006 312.981,77.009 L312.981,85.23 C312.882,94.529 314.424,101.135 317.605,105.049 C320.784,108.964 325.801,110.92 332.653,110.92 C338.427,110.92 342.856,109.43 345.938,106.443 C349.021,103.46 350.758,99.668 351.149,95.066 L330.157,95.066 L330.157,76.568 L379.63,76.568 L379.63,133.088 L356.288,133.088 L354.085,107.838" id="Fill-6" fill="fillCurrent"></path>
        <polyline id="Fill-7" fill="fillCurrent" points="660.448 86.845 646.649 102.847 646.649 133.088 618.463 133.088 618.463 27.83 646.649 27.83 646.649 68.201 681.148 27.83 715.206 27.83 681.148 67.76 716.381 133.088 684.377 133.088 660.448 86.845"></polyline>
        <polyline id="Fill-8" fill="fillCurrent" points="719.315 133.088 719.315 106.81 738.84 106.81 738.84 53.667 719.315 53.667 719.315 27.83 785.964 27.83 785.964 53.667 766.439 53.667 766.439 106.81 785.964 106.81 785.964 133.088 719.315 133.088"></polyline>
        <polyline id="Fill-9" fill="fillCurrent" points="824.426 70.55 824.426 133.088 797.56 133.088 797.56 27.83 824.572 27.83 865.383 89.047 865.383 27.83 892.248 27.83 892.248 133.088 866.117 133.088 824.426 70.55"></polyline>
        <path d="M974.309,107.838 C973.036,115.864 969.88,122.47 964.84,127.656 C959.798,132.845 952.385,135.437 942.599,135.437 C929.583,135.437 919.845,131.499 913.386,123.619 C906.927,115.743 903.697,103.287 903.697,86.258 L903.697,76.129 C903.697,70.453 904.211,65.29 905.239,60.641 C906.265,55.994 907.807,51.809 909.863,48.088 C913.875,40.553 919.625,34.927 927.112,31.206 C934.598,27.488 943.382,25.628 953.463,25.628 C968.045,25.628 979.275,29.03 987.155,35.831 C995.032,42.634 999.315,52.69 1000,65.999 L1000,66.587 L970.199,66.587 L970.199,66.439 C969.806,61.546 968.313,57.755 965.722,55.062 C963.127,52.372 958.895,51.024 953.023,51.024 C946.27,51.024 941.279,53.105 938.049,57.264 C934.819,61.425 933.204,68.006 933.204,77.009 L933.204,85.23 C933.106,94.529 934.647,101.135 937.829,105.049 C941.008,108.964 946.025,110.92 952.876,110.92 C958.65,110.92 963.079,109.43 966.162,106.443 C969.244,103.46 970.982,99.668 971.373,95.066 L950.38,95.066 L950.38,76.568 L999.854,76.568 L999.854,133.088 L976.511,133.088 L974.309,107.838" id="Fill-10" fill="fillCurrent"></path>
        <path d="M595.936,96.88 C549.808,104.669 507.791,128.951 477.98,165 C453.536,143.135 427.47,123.538 400.106,106.312 C411.688,91.884 424.59,78.624 438.596,66.687 L457.379,87.257 C454.417,88.085 451.594,89.581 449.168,91.797 C440.887,99.358 440.304,112.199 447.865,120.48 C455.426,128.759 468.267,129.342 476.548,121.782 C480.7,117.99 483.119,112.552 483.159,106.929 C483.222,98.094 477.158,92.341 471.635,86.293 C469.19,83.616 450.217,62.837 447.251,59.589 C460.337,49.268 474.297,40.062 488.975,32.089 L503.083,56.136 C500.013,56.33 496.941,57.207 494.107,58.87 C484.436,64.544 481.196,76.983 486.87,86.654 C492.544,96.325 504.984,99.566 514.655,93.892 C519.505,91.046 523.002,86.23 524.21,80.738 C526.109,72.109 521.372,65.221 517.228,58.157 C515.388,55.021 501.075,30.626 498.909,26.935 C513.796,19.57 529.358,13.451 545.441,8.689 L554.259,35.197 C551.216,34.749 548.029,34.968 544.911,36.005 C534.271,39.544 528.515,51.038 532.055,61.678 C535.594,72.317 547.088,78.073 557.728,74.534 C563.063,72.759 567.486,68.775 569.809,63.654 C573.46,55.609 570.26,47.887 567.674,40.115 C566.525,36.659 557.566,9.728 556.24,5.743 C556.238,5.735 556.234,5.725 556.232,5.718 C565.361,3.394 574.641,1.5 584.049,0.065 C585.283,32.385 589.221,64.769 595.936,96.88" id="Fill-11" fill="fillCurrent"></path>
    </g>
</svg>						