<svg id="Layer_1" data-name="Layer 1" xmlns="http://www.w3.org/2000/svg" viewBox="0 0 1757.54 1080"><defs><style>.cls-1{fill:fillCurrent;}.cls-2{fill:fillCurrent;}.cls-3{fill:fillCurrent;}.cls-4{fill:fillCurrent;}.cls-5{fill:fillCurrent;}.cls-6{fill:fillCurrent;}.cls-7{fill:fillCurrent;}.cls-8{fill:fillCurrent;}.cls-9{fill:fillCurrent;}.cls-10{fill:fillCurrent;}.cls-11{fill:fillCurrent;}.cls-12{fill:fillCurrent;}.cls-13{fill:fillCurrent;}.cls-14{fill:fillCurrent;}.cls-15{fill:fillCurrent;}.cls-16{fill:fillCurrent;}.cls-17{fill:fillCurrent;}.cls-18{fill:fillCurrent;}.cls-19{fill:fillCurrent;}.cls-20{fill:fillCurrent;}.cls-21{fill:fillCurrent;}.cls-22{fill:fillCurrent;}</style></defs><path class="cls-1" d="M20.38,696C24.8,675,27,653.18,34.2,633.15c9.56-26.69,23-52,34.74-77.88,44.57-64,107.77-105,174.27-142l5.81,1.7c-4,8.17-8.07,16.48-12.23,24.72a42.41,42.41,0,0,1-3.56,5.31c-6.92,9.64-14.16,19.07-20.71,29-4.4,6.64-2.87,9,5.14,9.88-17.61,9.76-35.7,18.76-52.73,29.44-30.27,19-60.34,38.21-83.44,66.54-26.09,32-42.22,68-48.07,108.8q-2.18,17.55-4.33,35.11l-.34,5.22q0,23.4.07,46.79.55,7.27,1.1,14.55l1.17,6.31-.28.49.3.49q.74,3.84,1.45,7.67l.69,3.4,13,38.8c.48.74.95,1.49,1.43,2.24h-.21l9.71,18L59,871.35l5.6,7.4,1.68,2.12,2.88,3.74,4.5,5.44,1.61,1.73,2,2.22,8.7,9c16.06,16.91,35.9,28,57.1,37l8.11,3.44.42.37.55-.09a91,91,0,0,0,9,4.31c29.35,10.35,59.53,17.3,90.58,19.07,25.05,1.42,50.34,3,75.27,1.13,41.15-3.14,82.12-8.83,123.11-13.87,20.29-2.5,40.46-6,60.69-9l5.45-.46c5.14-.52,10.29-.86,15.39-1.58,20.73-2.94,41.45-6,62.17-9l3.61-.27,24-3.46,7.3-.53c3-.18,6.08-.25,9.11-.56q39.72-4.08,79.45-8.25l4.31,7.32c-5.77,7.91-13.05,14.4-15.86,22.45-6,17.08-18,29-29.46,41.86-4.43,5-6,12.53-8.84,18.92L591.38,1021q-29.48,3.57-59,7.14c-15.43,1.89-30.85,3.86-46.27,5.75-23.28,2.86-46.55,5.83-69.85,8.49-20,2.29-40,5.7-60,5.92-26.53.29-53.1-2-79.64-3.26-32-1.55-62.59-9.73-92-21.42-33.39-13.25-64.26-31.2-90.47-56.33L68.9,937.74,44.44,899.07c-2.54-6.16-5.37-12.22-7.58-18.51C23.54,842.75,16,803.77,16.34,763.66,16.54,741.1,19,718.56,20.38,696Z"/><path class="cls-2" d="M1742.55,167.83l12.46.26c-.73,5.54.21,12.11-2.47,16.43-10.68,17.17-22.52,33.62-33.85,50.4-1.69,2.5-3,5.3-4.41,8l-26.74,38.93-30,43.86c-13.37,19.4-26.88,38.7-39.9,58.34-1.43,2.17-.63,6.42.21,9.4,7.8,27.4,15.7,54.77,23.88,82.06,3.73,12.47,8.15,24.73,12.26,37.08v.65q1.77,5.76,3.55,11.52l-.22-.14q2,6.76,4.06,13.51l-.16.57.43.41q1.11,5.5,2.21,11l-.09,7.44a2.05,2.05,0,0,0-.42,1.51l-2.1,3.92.15-.2-16.88,7.51-38.45,10.34-16-1.65-6-4.85c-.39-3.27-.37-6.65-1.23-9.79-6.66-24.27-13.5-48.5-20.27-72.75-2.23-8-4.44-15.95-7.12-25.59-11.73,18.59-22.41,35.41-33,52.31q-26.57,42.53-53,85.12l.18-.14-1.86,2.17.1-.12c-5.34,2.66-10.45,6-16.06,7.83-10.46,3.41-21.2,5.94-31.83,8.84l-22,2.23a1.35,1.35,0,0,0-1.41-.37l-2.23-1.89.13.12a9.05,9.05,0,0,1-.23-1.8c2.12-1.15,5.08-1.76,6.21-3.53,6.18-9.73,11.91-19.74,17.8-29.66,12.36-18.88,25-37.63,37-56.69,18-28.31,35.6-56.84,53.37-85.28,9.09-13.83,18.31-27.56,27.12-41.56a11.21,11.21,0,0,0,1.16-8.4c-15.1-45.05-30.48-90-45.79-135-2.21-7.64,1.17-11.27,8.45-13.25q27.53-7.51,54.8-15.95c2.36-.73,4-3.91,5.92-6,.51.1,1,.19,1.55.27l1.91,2.14-.23-.19q11.37,40.29,22.85,80.56c.23.82,2.08,1.18,3.18,1.75.09.83.18,1.65.26,2.47v10l2.52.8L1604.69,298c12.91-22.88,26.34-45.48,38.55-68.73,8.93-17,18-32.6,39.43-35.77,9-1.34,17.71-4.89,26.52-7.53,14.76-4.41,29.5-8.9,44.25-13.35l0-1.71Z"/><path class="cls-3" d="M344.48,361.65c28.76-12.88,57.36-26.14,86.31-38.59,76.6-32.93,153.05-66.22,230.13-98,60.61-25,122.07-47.95,183.17-71.78a63.41,63.41,0,0,1,6.14-1.74c-.17,4.74-1.23,9.65-.35,14.18,3.48,17.75-2.09,33-16.4,42.3-14.66,9.54-23.11,21.86-27.65,37.91-1.93.92-3.81,2-5.8,2.73-49.25,18.54-98.61,36.77-147.73,55.62Q554.08,342,456.17,380.54c-32.69,12.89-65,26.71-97.48,40.15-15.55,6.44-31.07,13-46.6,19.48-5-3.95-3.63-7.78-.69-12.59q17-27.81,33.07-56.17C345.87,369,344.54,364.94,344.48,361.65Z"/><path class="cls-4" d="M1211.72,35.38c46.63-12.36,93.85-21,142-24.52a420.57,420.57,0,0,1,136.64,12.05c1,1.56,1.72,3.86,3.17,4.57,15.51,7.57,27.75,18.89,37.29,33,3.55,5.25,5.37,11.65,8.35,17.32,7.84,14.93,14.69,30.05,11.78,47.62l-16.76-8.84c0-20.92-11.17-37.28-23.57-52.13-13-15.55-29.17-27.85-50-32.07-10.74-2.18-21.78-7.1-32.17-6-23,2.45-46.16,5.15-65.36,21.64-12,10.26-24.68,19-29.8,34.81l-3.66,1.7-1.83.91c-16.63,2.12-33.48,3.15-49.82,6.6-29.42,6.23-58.54,13.91-87.78,21,0-2.12-.51-4.41.14-6.32,1-3.07,3.87-5.79,4.16-8.84C1196.68,76,1203.56,55.54,1211.72,35.38Z"/><path class="cls-5" d="M805.83,245.93c4.54-16.05,13-28.37,27.65-37.91,14.31-9.31,19.88-24.55,16.4-42.3-.88-4.53.18-9.44.35-14.18,40.22-14.8,80.32-29.94,120.7-44.27,26-9.2,52.32-17.21,78.5-25.76-1.88,4.51-5.07,8.93-5.39,13.55-1.21,17.28-10.76,31.25-17.31,46.39-1,2.31-4.14,3.6-5.86,5.71-9.14,11.2-24.85,16.57-28.72,32.43-13.86,4.79-27.77,9.45-41.57,14.39Q878.18,219.89,805.83,245.93Z"/><path class="cls-1" d="M992.15,179.59c3.87-15.86,19.58-21.23,28.72-32.43,1.72-2.11,4.86-3.4,5.86-5.71,6.55-15.14,16.1-29.11,17.31-46.39.32-4.62,3.51-9,5.39-13.55l162.29-46.13c-8.16,20.16-15,40.65-17.15,62.51-.29,3-3.12,5.77-4.16,8.84-.65,1.91-.13,4.2-.14,6.32l-46.88,16.17h0l-23.69,7.5-5.77,2-5.35,1.71-5.72,1.92-5.42,1.74-2,.62-12.14,4.56c-4.38,1.22-8.84,2.23-13.15,3.69Q1031.15,166.17,992.15,179.59Z"/><path class="cls-6" d="M1551,125.44c2.91-17.57-3.94-32.69-11.78-47.62-3-5.67-4.8-12.07-8.35-17.32-9.54-14.13-21.78-25.45-37.29-33-1.45-.71-2.13-3-3.17-4.57l5.3,1.39,2.9,1.21c21.25,8.12,43.5,14.33,63.58,24.73,56.9,29.47,98.07,74.92,126.95,131.84-16.24,5.33-34.29,7.28-44.54,23.83q-4.15-4.28-8.28-8.54c-2.11-2.6-4.1-5.31-6.33-7.79C1607,164,1580.31,143.12,1551,125.44Z"/><path class="cls-7" d="M1710.33,561.31l-11.58,33.63c-.53-1.79-1.06-3.57-2.15-7.3-3,6.89-4.87,12-7.33,16.75-6.17,12-12.62,23.82-19,35.72l2.28-6.88q9.44-21.21,18.85-42.44,3.46-11.09,6.92-22.17,6.9-20.93,13.79-41.84l-.15-.1.89-2.31,4.82-36.7c1.34-7.5,3.58-14.95,3.89-22.49,2.6-63.68-8.37-124.91-34.07-183.36l26.74-38.93a376.66,376.66,0,0,1,19.37,94.74c.6,22.95,1.24,45.89,1.77,68.84.16,6.62,0,13.25-.05,19.87v.15q-.84,8.36-1.7,16.72c-2.42,14.61-4.43,29.3-7.36,43.81C1721.28,511.84,1715.68,536.55,1710.33,561.31Z"/><path class="cls-5" d="M344.48,361.65c.06,3.29,1.39,7.3,0,9.76q-16,28.36-33.07,56.17c-2.94,4.81-4.31,8.64.69,12.59-10.45,4.87-20.88,9.77-31.34,14.6q-31.53,14.55-63.09,29c-8-.87-9.54-3.24-5.14-9.88,6.55-9.89,13.79-19.32,20.71-29a42.41,42.41,0,0,0,3.56-5.31C241,431.41,245,423.1,249,414.93l-5.81-1.7Z"/><path class="cls-8" d="M1742.55,167.83l10.91,3.09,0,1.71c-14.75,4.45-29.49,8.94-44.25,13.35-8.81,2.64-17.5,6.19-26.52,7.53-21.47,3.17-30.5,18.76-39.43,35.77-12.21,23.25-25.64,45.85-38.55,68.72l-3.19-4.54-.93-1.92,0,0,9.24-16.63,0,0,5.6-11h0l1.82-1.92-.06.06,6-8.86-.38-2.23,0,.08q5.49-10.25,11-20.5l9.4-14.69-.1.15,1.94-3.82-.24.08c1.26-1.2,3-2.18,3.69-3.66,4.49-10,12.28-15.38,22.71-17.88,6.78-1.62,13.37-4,20-6.08l40.42-12.71Z"/><path class="cls-9" d="M1691.16,184.63c-6.67,2.06-13.26,4.46-20,6.08-10.43,2.5-18.22,7.91-22.71,17.88-.67,1.48-2.43,2.46-3.69,3.66q-.08-3.17-.13-6.33c10.24-16.56,28.29-18.51,44.53-23.84l.1.16Z"/><path class="cls-1" d="M1735.37,426.34c0-6.62.21-13.25.05-19.87-.53-23-1.17-45.89-1.77-68.84C1737.93,367.13,1739.18,396.68,1735.37,426.34Z"/><path class="cls-10" d="M1691.16,184.63l-1.94-2.39c10.84-3.14,21.64-6.41,32.54-9.33,3.14-.84,6.54-.69,9.82-1Z"/><path class="cls-1" d="M1733.66,443.21q.85-8.35,1.7-16.72Q1734.52,434.85,1733.66,443.21Z"/><path class="cls-4" d="M1498.59,25.51l-2.9-1.21Z"/><path class="cls-4" d="M717.41,921.21c16.37-1.36,32.8-2.26,49.09-4.23,17.53-2.11,34.88-5.66,52.4-7.8,34.73-4.24,69.52-8,104.3-11.84,7.61-.85,15.27-1.31,22.91-1.94l12.67,3.9c-2.93,5-4.95,10.16-8.42,14-4,4.44-10,7.16-14,11.61-11.23,12.38-22.29,25-32.63,38.08-5.45,6.92-14.2,12.37-13.1,23.14-3.26,1.18-6.45,3-9.8,3.42-14.51,1.63-29.08,2.69-43.6,4.22-20.87,2.2-41.72,4.65-62.58,7-16,1.77-32,3.55-48.07,5.19-19.67,2-39.35,3.92-59,5.87,2.86-6.39,4.41-13.93,8.84-18.92C687.85,980,699.89,968.06,705.86,951c2.81-8.05,10.09-14.54,15.86-22.45Z"/><path class="cls-11" d="M28.75,728.91c.87,8.94,2.29,17.88,2.42,26.84.09,6.64-1.5,13.3-2.35,20Q28.79,752.32,28.75,728.91Z"/><path class="cls-11" d="M31.11,797.54c5.8,1.55,4.83,4.38,1.45,7.67Q31.84,801.39,31.11,797.54Z"/><path class="cls-12" d="M143.12,940l8.11,3.44Z"/><path class="cls-11" d="M29.92,790.25l1.17,6.3Z"/><path class="cls-13" d="M46.21,847.41l1.43,2.23Z"/><path class="cls-10" d="M1508.61,445.13c-17.77,28.44-35.4,57-53.37,85.28-12.09,19.06-24.68,37.81-37,56.69q-3-2.91-6-5.84l0,0,3.75-5.67-.13.21,2.2-3.71-.1.08c1.24-1.9,2.49-3.79,3.73-5.68l-.12.09q1.86-2.85,3.74-5.7l-.15.09c1.26-1.89,2.53-3.78,3.79-5.68l-.16.2,1.87-2.2h-.33c1.18-1.87,2.36-3.73,3.53-5.6h.11l4.27-7.07-.14.07,4-3.69c10.42-17.09,20.79-34.2,31.28-51.25,6.15-10,12.47-19.87,18.71-29.8l5.17-7.68-.15.09q2.59-3.88,5.21-7.76l-.07-.28,2.68.95Z"/><path class="cls-14" d="M1508.61,445.13,1505,441.3c.54-1.94,1.07-3.88,1.61-5.82l-.08.12,3.84-7.42-.06.1,2-2.64,2-2.88,3.49-4,5.82-10.76,4.92-7.69.19.17c1.31-3.5,4.38-7.44,3.61-10.4-2.73-10.64-6.66-21-10.4-31.35-.6-1.67-2.56-2.85-3.89-4.26l-4.35-17.84q-12.66-37.65-25.31-75.31l2.81-1.12c15.31,45,30.69,89.93,45.79,135a11.21,11.21,0,0,1-1.16,8.4C1526.92,417.57,1517.7,431.3,1508.61,445.13Z"/><path class="cls-8" d="M1491.1,260.19c-.94.37-1.87.75-2.81,1.11q-.68-7.65-1.34-15.26.9-.94,1.83-1.89l21.5-7.66,36.86-11,13.18-.31,0-.14c-2,2.05-3.56,5.23-5.92,6q-27.27,8.41-54.8,15.95C1492.27,248.92,1488.89,252.55,1491.1,260.19Z"/><path class="cls-15" d="M1392.6,619.65a.89.89,0,0,0-.39-1.2c.16-.62.31-1.24.46-1.86l1.23-5.87-.18.16,2.19-3.76-.12.2c.66-1,1.31-2,2-3l14.5-23.09q3,2.93,6,5.84c-5.89,9.92-11.62,19.93-17.8,29.66-1.13,1.77-4.09,2.38-6.21,3.53C1393.67,620.07,1393.13,619.85,1392.6,619.65Z"/><path class="cls-14" d="M1601.5,293.46l3.19,4.54-12.38,24.84-2.52-.8V312c.44-1.37.87-2.74,1.31-4.12l.16.27,2-3.7,0,0q2.79-5.55,5.6-11.09l-.22-.17Z"/><path class="cls-10" d="M1591.1,307.91c-.44,1.38-.87,2.75-1.31,4.12-.08-.82-.17-1.64-.26-2.47Z"/><path class="cls-1" d="M1534.22,116.6a5.65,5.65,0,0,0-1.69.16l-3.57-2.69c-.64-3-1.18-5.94-1.94-8.87-4.55-17.55-16-30.13-28.36-42.87-18.1-18.64-40-26.66-64.82-29.13-24.64-2.45-45.66,7.73-66.24,19.13-9.12,5.06-22.7,22.72-24.73,30.85a11.11,11.11,0,0,0-1.08,1.47l-.51-.29-.56.2-5.48-.16-1.88-1.54c5.12-15.78,17.85-24.55,29.8-34.81,19.2-16.49,42.37-19.19,65.36-21.64,10.39-1.11,21.43,3.81,32.17,6,20.79,4.22,37,16.52,50,32.07C1523.05,79.32,1534.23,95.68,1534.22,116.6Z"/><path class="cls-16" d="M1333.36,82.86l1.88,1.54-5.54.16Z"/><path class="cls-17" d="M1364.84,921.76c-26.14,4.6-52.27,9.27-78.42,13.75-4.51.78-9.15.8-13.73,1.17-1.21-3.41-2.43-6.82-3.4-9.55,8.86-9.49,17.83-17.79,25.25-27.29,15.51-19.87,28.11-42.44,54.63-54L1331.55,842l30.63-6c71.43-13.83,141.52-31.42,203.36-72.28l5.48-3.56-.09.08,3.17-2.41.17,0,2-1.56.21.41-.31-.34,2.57-2.22,1.53-1,3.3-2.51,0,0,4-3.3-.07.14,2.12-1.93,1.84-1.55,3.13-2.57,0,0,1.94-1.73.57.34-.6-.28,2-1.85.33.33-.39-.25,2-1.9h-.08l3.89-3.54-.05.06,12.9-13.12-.13.12,1.83-2,.38.47-.44-.41c.6-.65,1.21-1.3,1.81-2l.31.71-.35-.69,1.56-1.93.12-.17,2.55-3,0,0,5.05-6.09.21.5-.3-.44,2.45-3.23,0,0,3.27-4.12,0,.11,2.4-3.34v0l3.39-4.59c.2-.87.39-1.73.58-2.6l-.08.09a7,7,0,0,0,1.5-.32l1.69-2.28-.14.21,12.94-21.15.34-.7,5.49-9.43-.06.11c.66-1.24,1.33-2.47,2-3.71l0,0,5.17-9.57,0-.08c6.33-11.9,12.78-23.74,19-35.72,2.46-4.78,4.34-9.86,7.33-16.75,1.09,3.73,1.62,5.51,2.15,7.3a1.11,1.11,0,0,1-.35,1.38c-.51,1.4-1,2.81-1.52,4.22a1,1,0,0,1-.34,1.31c-.42,1-.85,2-1.28,3.06l-.63,2.49c-.51,1.28-1,2.56-1.51,3.84l0-.1c-.69,1.6-1.37,3.2-2.06,4.81-2.95,8.23-5.67,16.55-8.9,24.67-24.32,61-53.22,119.44-100.51,166.37-16.91,16.78-36.25,31.12-54.48,46.58-29.55,18.26-59,36.72-92.22,47.87Z"/><path class="cls-7" d="M1692.3,616.35a3.47,3.47,0,0,0-1.2-.4c.69-1.61,1.37-3.21,2.06-4.81C1692.87,612.87,1692.59,614.61,1692.3,616.35Z"/><path class="cls-7" d="M1696.88,600.54c.51-1.41,1-2.82,1.52-4.22C1697.89,597.72,1697.39,599.13,1696.88,600.54Z"/><path class="cls-7" d="M1693.12,611.24c.5-1.28,1-2.56,1.51-3.84C1694.12,608.68,1693.62,610,1693.12,611.24Z"/><path class="cls-7" d="M1695.26,604.91c.43-1,.86-2,1.28-3.06C1696.12,602.87,1695.69,603.89,1695.26,604.91Z"/><path class="cls-11" d="M1712,526.68c.29-.77.59-1.54.89-2.31C1712.6,525.14,1712.3,525.91,1712,526.68Z"/><path class="cls-9" d="M1630,234.48a2.57,2.57,0,0,0,.35-1.56c.64-.7,1.29-1.39,1.94-2.09l-.07.14c.48-.17,1-.31,1.47-.44h0q-5.48,10.25-11,20.5c.11-1.19.21-2.37.32-3.56l2.05-3.65,2-3.54c.64-1.13,1.27-2.26,1.9-3.4h-.14Z"/><path class="cls-10" d="M1600.59,291.57l9.24-16.63Z"/><path class="cls-9" d="M1635.57,225.26l7.55-9.42-9.4,14.69h0c.22-1.11.43-2.21.65-3.32l-.19.23Z"/><path class="cls-10" d="M1609.81,275l5.6-11Z"/><path class="cls-10" d="M1617.17,262c.14-1.73.29-3.46.44-5.19l-.1,0,1.38-2a1,1,0,0,0,.54-1.14,14.44,14.44,0,0,0,1.59-.76l2.17.25Z"/><path class="cls-9" d="M1643,216l1.94-3.82Z"/><path class="cls-9" d="M1623.19,253.18l-2.17-.25.06-1.85a1.81,1.81,0,0,1,1.73-.13C1622.94,251.69,1623.06,252.43,1623.19,253.18Z"/><path class="cls-10" d="M1615.41,263.9l1.82-1.92Z"/><path class="cls-10" d="M1601.5,293.46l-2.91-.21,2-1.71Z"/><path class="cls-5" d="M1340.79,108.93q6.27-12.65,12.52-25.3c1.61-1.81,3.29-3.56,4.82-5.43,24.41-29.9,66.7-41.89,100.65-28.51q2.35,12.12-14.69,13l-5.67-3.56c-12.52,5-14.29,17.19-18.66,27.66-2.37-.7-4.73-1.41-7.1-2.08s-4.82-1.33-7.24-2q-.68,3-1.37,6c-8.14,5.49-16.17,11.16-24.46,16.42-10.72,6.8-24.38,9.26-31.28,21.38l-9.31-2.86Q1339.9,116.28,1340.79,108.93Zm31.06-31.5c-13.56,6.25-21.57,18.89-19.91,31.52Z"/><path class="cls-15" d="M118.32,627.69l-.6-11.07a5.78,5.78,0,0,0,.35-1.7l1.5-2c.19-.59.39-1.18.58-1.78l7.25-5.6a8.64,8.64,0,0,0,1.74-.34l2.31-1.36,1.54-1.53c10.71-2.3,21.33-5.27,32.16-6.58,4.24-.52,8.92,2.67,13.41,4.18q-.27,15.69-.53,31.38-.28,5.61-.59,11.21c-.27,1.2-.55,2.39-.82,3.58-.13-9.88-.15-19.75-.43-29.63-.14-4.91-.73-9.82-1.12-14.73-2.52-1.16-5.37-3.77-7.49-3.27q-18.68,4.43-37,10.18c-6,1.87-9.68,6.32-9.2,13.19l-.19,2.51-1.31,3.33Z"/><path class="cls-15" d="M1247,214.09c-.22.82-.43,1.64-.65,2.46a3.21,3.21,0,0,0-1.52,1l0-11.22c3.25-7.44-2.06-6.22-5.51-4.79-11.1,4.61-22,9.79-32.91,14.75l-1.28-1.39,5-4.07-.07,0c.62-.7,1.23-1.41,1.84-2.12a9,9,0,0,0,1.71-.32l1.94-1.53a15.22,15.22,0,0,0,1.76-.35l2-1.49,12.95-5.07,5.79-2.2a1.39,1.39,0,0,0,1.42-.23l9.09.26-.09-.11,1.63,2.32-.24.28q-.72,5.46-1.45,10.92C1247.83,212.12,1247.39,213.11,1247,214.09Z"/><path class="cls-13" d="M1338.2,149.46l-3,5.62c-3.4-12.28-5.18-24.5,1.1-36.51,1.64-3.13,3-6.42,4.47-9.64q-.9,7.35-1.79,14.7-.37,9.36-.77,18.72Z"/><path class="cls-18" d="M1337.17,173.46c1.21,1.25,2.41,2.51,3.61,3.76l-6.39-.4Z"/><path class="cls-18" d="M1248.42,197.73l-9.09-.26C1242.47,193.77,1245.6,190.31,1248.42,197.73Z"/><path class="cls-18" d="M127.4,605.58l-7.25,5.6C118.63,606.09,119.1,605.73,127.4,605.58Z"/><path class="cls-13" d="M1231.93,197.54l-.56-2.8,2.4,2.78Z"/><path class="cls-18" d="M1231.93,197.54l1.84,0,4.14.18-5.79,2.21C1232.06,199.12,1232,198.33,1231.93,197.54Z"/><path class="cls-19" d="M1211.81,208.66c-.61.71-1.22,1.42-1.84,2.12C1210.59,210.08,1211.2,209.37,1211.81,208.66Z"/><path class="cls-19" d="M1215.46,206.81l-1.94,1.53Z"/><path class="cls-19" d="M1219.17,205l-2,1.49Z"/><path class="cls-18" d="M1250,199.94l-1.63-2.32Z"/><path class="cls-18" d="M131.45,603.88l-2.31,1.36Z"/><path class="cls-13" d="M1342.87,83.18a7.84,7.84,0,0,1,1.18,1l-2.25.42A10.22,10.22,0,0,1,1342.87,83.18Z"/><path class="cls-9" d="M118.32,627.69h1.54l.45,117.95q-.14,59.11-.28,118.23c-.06,8.83-.38,17.67-.1,26.49.27,8.42,1.17,16.82,1.8,25.23a11.76,11.76,0,0,0,.14,1.78l-.56.54-.75,0-.75,0-1.5-1.48,0-.52-.45-.24-1.77-2.16-.39-.38-.5.24a1.59,1.59,0,0,0,.11-1c.46-8.18,1.27-16.37,1.32-24.55q.75-127.31,1.31-254.6C118,631.36,118.2,629.53,118.32,627.69Z"/><path class="cls-9" d="M121.74,919.29c-.14-.46-.28-.92-.43-1.37l.56-.54,3.36,1.63.28.7h-2Z"/><path class="cls-13" d="M116.11,913.52l1.77,2.16Z"/><path class="cls-13" d="M118.31,916.44l1.5,1.48Z"/><path class="cls-13" d="M121.74,919.29l1.79.41Z"/><path class="cls-11" d="M311,450c-.22.51-.33,1.3-.7,1.45s-1-.36-1.5-.58c.22-.51.33-1.31.7-1.45S310.49,449.78,311,450Z"/><path class="cls-7" d="M1331.55,842l17.62,3.85c-26.52,11.56-39.12,34.13-54.63,54-7.42,9.5-16.39,17.8-25.25,27.29,1,2.73,2.19,6.14,3.4,9.55-22.77,4.1-45.48,8.53-68.32,12.22-23.2,3.75-46.49,7-69.78,10.09-26.92,3.64-53.88,6.94-80.82,10.4-3.92.5-7.84,1-11.77,1.57,3.65-5.77,6.63-12.1,11-17.2,18.68-21.61,37.43-43.17,56.93-64,5.49-5.87,1.87-9.66.28-14.48l9.22-2.2,11.31-1.58a1.5,1.5,0,0,0,1.55-.18l24.32-3.49,3.39-.29,6.52-1.38.39.35.46-.25c30.33-4.34,60.68-8.58,91-13C1282.8,849.61,1307.16,845.74,1331.55,842Z"/><path class="cls-6" d="M1110.25,875.27c1.59,4.82,5.21,8.61-.28,14.48-19.5,20.84-38.25,42.4-56.93,64-4.41,5.1-7.39,11.43-11,17.2-41.28,5-82.55,10.14-123.87,14.8-9.06,1-18.32.27-27.49.35-1.1-10.77,7.65-16.22,13.1-23.14,10.34-13.12,21.4-25.7,32.63-38.08,4-4.45,10-7.17,14-11.61,3.47-3.82,5.49-9,8.42-14l-12.67-3.9q52.42-6.48,104.87-12.94Q1080.61,878.82,1110.25,875.27Z"/><path class="cls-7" d="M1657.46,663.45l-12.94,21.15Z"/><path class="cls-7" d="M1663.29,653.32l-5.49,9.43Z"/><path class="cls-7" d="M1670.37,640.19l-5.17,9.57Z"/><path class="cls-20" d="M1130.78,871.49l-11.31,1.58Z"/><path class="cls-20" d="M1166.56,866.15l-6.52,1.38Z"/><path class="cls-7" d="M1665.23,649.72c-.67,1.24-1.34,2.47-2,3.71C1663.89,652.19,1664.56,651,1665.23,649.72Z"/><path class="cls-7" d="M1644.66,684.39l-1.69,2.28c0-.6,0-1.2,0-1.79A6.83,6.83,0,0,1,1644.66,684.39Z"/><path class="cls-20" d="M1643,684.88c0,.59,0,1.19,0,1.79a7,7,0,0,1-1.5.32Z"/><path class="cls-2" d="M1032.77,712.73l-5.78,1-3.08.51-3.47-.64-4.3,1-14.73,1.82-1.12-1.8c1.92-2,5.15-3.71,5.54-6,2-11.33,3.34-22.77,4.56-34.22.19-1.78-1.46-3.77-2.27-5.66l-2.29.46a57.28,57.28,0,0,1-.77,7.56c-1.5,6.43-3.26,12.79-4.92,19.17.22-1.89.45-3.79.67-5.68l-1.28-1.6c-2.18.47-5.34.21-6.34,1.56-2.93,4-5,8.53-7.41,12.87L959,725.68l-7.55,3.12-3.5.7-18.43,0q-2.91-1.84-5.8-3.71c8.39-.74,12.84-6.85,16.44-13.19,3.73-6.59,5.65-14.24,9.5-20.75,7-11.81,14.8-23.12,22.27-34.64a21.25,21.25,0,0,0,4.34-1.33c21.9-12.2,29.82-33.56,36.36-55.8,4.31-13.92,9.16-27.69,12.77-41.78,3.71-14.47,6.16-29.27,9.23-43.91,3.56-17,7.61-34,10.56-51.12.83-4.84-1.43-10.21-2.27-15.34l-1.83.68q-1.47,8.32-3,16.67c0-3-.18-6-.07-9,.41-12.11-5.45-16.27-16.63-11.62-2.23.93-4.7,1.9-6.3,3.58-7.72,8.13-15.17,16.51-22.72,24.8,2.3-7.49-4.09-15.5,1.36-23,.51-.7-1.34-3.09-2-4.73-1.13-2.7-2.28-5.39-3.27-8.14-3.08-8.54-9.74-16.4-5.14-26.48.17-.37-.42-1.09-.66-1.65,16-15.28,33.22-27.47,58.22-24.33l-8.12-8a5.65,5.65,0,0,1,1.69.16l7.17,2-.09-.13,5.9,3.45-.07-.06q5.52,4.37,11.06,8.71c.24.87.49,1.74.73,2.6.62,3.38,1.23,6.76,1.85,10.13l2.65-.36c1.42-7.79,3-15.54,4.22-23.36,1.5-9.89,6.43-15.93,16.65-18.08,12.87-2.71,25.54-6.35,38.29-9.58l3.85.24a67.66,67.66,0,0,1-.66,8.21c-11.76,58.05-23.67,116.08-35.38,174.14-9.47,46.91-18.73,93.86-28.08,140.8-.16,1.19-.33,2.38-.5,3.57l-7.44,22.08.15-.13-2,2,.18-.18-2.18,1.9.15-.2-15,5.78Z"/><path class="cls-9" d="M487.67,839.79l-.45-.21-.34.35-9.22,2.25-1.87.59c-18.65,3.15-37.15,3.36-55.33-2.8l-.7-.22-23.19-20.07-1.71-2.56a.93.93,0,0,0-.58-1.18l-1.37-2.09-2.14-3.42-1.48-2.26-2.16-6.95L385.69,799l.19.15c0-1.13.05-2.25.07-3.38q2.4,1.93,4.81,3.86l1,2.38c.23-.19.67-.49.64-.55-.37-.76-.81-1.48-1.23-2.2l-4-44.25L391,720c2.63.54,6,.23,7.75,1.78,7,6.31,15.33,12.17,19.67,20.11,5.46,10,14.39,11,22.3,14.37,0-9.43-.11-18.45.14-27.45,0-1.16,1.94-2.26,3-3.38-.63,18.88-.08,37.41,15.52,51.37-1.2,12.07,3.52,17.06,17.33,18.89,11.81,1.56,23.86,2.43,29.81,15.9.83,1.89,7.15,1.95,10.88,1.78,3.43-.16,6.79-1.79,10.19-2.77a3,3,0,0,0,0,1.68,1,1,0,0,0-.37,1.27l-12.91,11.55.11-.1-2.34,1.9-.71,0-.6.41-2,1.57.09-.1-2.37,1.84-3.15,1.87ZM394,806.16c-.2.05-.51,0-.59.15a2,2,0,0,0-.15.74l1-.2Z"/><path class="cls-10" d="M660.21,797.27c-7.42.68-14.83,1.43-22.26,2-4.24.33-8.5.35-12.75.51l-1.83-.42a6,6,0,0,1-.18-1.46Z"/><path class="cls-10" d="M693.56,784.77l-3.9,5.1-5.59,1.74-5.35.55Z"/><path class="cls-10" d="M617.44,795.84l-3.31,0-.6-.42-.72,0-4.45-3.16Z"/><path class="cls-2" d="M125.23,919l-3.36-1.63a11.76,11.76,0,0,1-.14-1.78c.63-2.53,1.79-5.05,1.82-7.59.15-14.66,0-29.33,0-44,.51-26,1.19-52.08,1.47-78.13.15-13.46-.41-26.93-.64-40.4q.44-56.5.91-113c.12-13.94,2-16.84,15.38-21.16,11.31-3.65,22.9-6.41,34.37-9.57.39,4.91,1,9.82,1.12,14.73.28,9.88.3,19.75.43,29.63l-3.12,70.17-.18,3.67c-1.2,15.07-2.56,30.14-3.44,45.23-.13,2.3,2,4.72,3.05,7.09.68,3.8-2.73,6.49-3.29,8.81-1.5,6.2.33,13.21,1,22.17,6.24-19.8,11.87-37.7,17.51-55.59l1.63-5.73c4.68-14.76,9.43-29.5,14-44.28,9.08-29.15,17.8-58.42,27.31-87.43C234,601.49,239,593.44,243,585.07c10,.9,14.53,5.86,15.24,15.71a98.65,98.65,0,0,0,2.79,17.6c1.63,6.27,4.37,12.24,6.28,18.45,1.42,4.59,1.58,9.67,3.52,14,3.85,8.53,9.77,16.28,12.62,25.07,4.68,14.4,3.93,14.64,18.16,14.53-.92,12.08-2,24.14-2.65,36.23-.15,2.76,1,5.6,1.56,8.4L299.27,746l-2.13,18,1.56.26q8.42-23,16.84-46c5.34-3.39,8.42-1,10.71,4a74.06,74.06,0,0,0,5.31,9.9c2.66,4.07,7,7.49,8.33,11.88,2.52,8.16,7.59,9.3,14.64,7.92-1,3.83-1.66,7.74-2.92,11.46-7.64,22.5-15.42,44.95-23.14,67.42a1,1,0,0,0-.36,1.35l-1.53,4.14a.88.88,0,0,0-.4,1.2L322.23,849l.19-.19L318.31,860l.25-.27c-.36.8-.72,1.59-1.07,2.39a1.33,1.33,0,0,0-.39,1.56c-.58,1.34-1.17,2.69-1.75,4l-.2.68c-.64,1-1.27,2-1.89,2.92l-3.61,3.56.06,0-31.27,9.43L263.7,888.1l-12.82,2.07a5.47,5.47,0,0,0-1.75-.37l-1.86-2.15.18.13c-.34-.86-.68-1.71-1-2.57,2.07-4.31,5.37-8.46,6-13,1.82-13.51,2.79-27.15,3.72-40.76.51-7.5.27-15.05.37-22.58,1.22-12.33,2.53-24.66,3.63-37q4.61-51.71,9.06-103.44l-1.76-.07q-2.15,8.1-4.3,16.2l-4.71,6.4c-5.26,14.35-10.47,28.71-15.78,43q-15.45,41.69-31,83.34l0,0-5,13.37a.74.74,0,0,0-.34,1.13c-.54,1.47-1.09,2.93-1.63,4.4l-.41.32.17.5c-1.11,2.8-2.22,5.61-3.34,8.41a.8.8,0,0,0-.33,1.17c-1.05,2.69-2.11,5.37-3.17,8.06l-.6,2.48c-1.13,2.87-2.27,5.74-3.4,8.6l-.37.32.18.45-1.86,4.88v.55l-2,4.8.13-.2-2.12,5.44h.13L182,897l.19-.21c.09.86.17,1.71.26,2.57l-9,9.27-35.16,7.06-9.18,2.73Z"/><path class="cls-2" d="M1547.14,225.48l13-1.86a13.39,13.39,0,0,0,.19,1.55Z"/><path class="cls-15" d="M1497.13,448.39q2.61-3.88,5.21-7.76Q1499.73,444.52,1497.13,448.39Z"/><path class="cls-15" d="M1492.11,456l5.17-7.68Z"/><path class="cls-15" d="M1434,547.72l4.27-7.07Z"/><path class="cls-15" d="M1430.38,553.33c1.18-1.87,2.37-3.73,3.54-5.59Z"/><path class="cls-15" d="M1425.21,561l3.79-5.67Z"/><path class="cls-15" d="M1421.62,566.62q1.86-2.85,3.74-5.69Q1423.49,563.77,1421.62,566.62Z"/><path class="cls-15" d="M1418,572.21l3.73-5.68C1420.5,568.42,1419.25,570.31,1418,572.21Z"/><path class="cls-15" d="M1502.27,440.35l4.29-4.87c-.54,1.94-1.07,3.88-1.61,5.82Z"/><path class="cls-15" d="M1412.29,581.3l3.75-5.66Z"/><path class="cls-15" d="M1438.15,540.72l4-3.69Z"/><path class="cls-15" d="M1415.91,575.84l2.2-3.71Z"/><path class="cls-15" d="M1428.84,555.53c.63-.73,1.25-1.47,1.87-2.2Z"/><path class="cls-10" d="M1598.81,293.42q-2.8,5.55-5.6,11.09Q1596,299,1598.81,293.42Z"/><path class="cls-10" d="M1593.23,304.48l-2,3.7Z"/><path class="cls-10" d="M1513.6,336.62q-5.28-11-10.58-21.9a28.06,28.06,0,0,0-1.72-2.75l-.57-5.59-1.11-2.16.18.09q-.88-2.74-1.79-5.49c-.34-1.17-.67-2.35-1-3.52l-1.14-2.45-7.32-20.77c-.17-.86-.34-1.73-.5-2.59-.45-1-.9-2-1.36-3,.09-.3.32-.63.25-.88a13.5,13.5,0,0,0-.73-1.66l-1.32-3q.25-8.2.53-16.41L1487,246q.67,7.62,1.34,15.26Q1501,299,1513.6,336.62Z"/><path class="cls-10" d="M1528.63,400.47c-.32-5.17.17-10.54-1.12-15.46-2.69-10.31-6.32-20.38-9.56-30.55,1.33,1.41,3.29,2.59,3.89,4.26,3.74,10.36,7.67,20.71,10.4,31.35C1533,393,1529.94,397,1528.63,400.47Z"/><path class="cls-10" d="M1523.52,408l4.92-7.69Z"/><path class="cls-15" d="M1506.48,435.6l3.84-7.42Z"/><path class="cls-10" d="M1514.21,422.76l3.49-4Z"/><path class="cls-15" d="M1510.26,428.28l2-2.64Z"/><path class="cls-10" d="M1508.59,235.57l1.69.92-21.5,7.66c-.58-.48-1.15-1-1.72-1.46l19.42-7.23Z"/><path class="cls-10" d="M1488.78,244.15q-.93.94-1.83,1.89l-1.53-1.51,1.64-1.84C1487.63,243.18,1488.2,243.67,1488.78,244.15Z"/><path class="cls-2" d="M1392.67,616.59l1.23-5.87Z"/><path class="cls-2" d="M1393.72,610.88l2.19-3.76Z"/><path class="cls-2" d="M1395.79,607.32l2-3C1397.1,605.34,1396.45,606.33,1395.79,607.32Z"/><path class="cls-17" d="M1514.14,101.49q3.81,20.33,7.61,40.66-6.66,21.24-13.3,42.48c-3.76,4.68-7.39,9.47-11.29,14-34,39.76-103.1,39.23-136.47-1a22,22,0,0,1-1.86-3.16c.65-3.06,1.3-6.13,2-9.19,7.69,5.92,19.64-1.61,24.51-8.1,4.73,8.89,8.79,18.26,14.57,26.42,2,2.89,10.1,5.2,12.18,3.59,4.22-3.28,8.09-9.16,8.75-14.4,1-8.32-4.73-14.35-10.75-20.14-6.87-6.61-12.41-14.6-18.53-22,.91-1,1.82-2,2.72-3,3.73,5.2,6.64,11.45,11.46,15.27,3.69,2.92,10.51,4.77,14.62,3.33,2.91-1,5.55-8.68,4.83-12.76-.92-5.2-4.26-11.31-8.49-14.31-10.74-7.62-15.82-17.58-16.89-30.2l3.44-1.8q5.61,12,11.2,23.93l5.67,5.54,6.79,5.5q2,9.94,3.91,19.91c11.65-1.35,17.75-4.69,25.3-14,8-10.45,10.83-22.6,11.68-35.42l6,6L1513,98.82a2.51,2.51,0,0,1,0,.27ZM1453,182.09a60.93,60.93,0,0,0,9.62-31.48c-7.41,4.64-14.62,9.33-22,13.73-3.6,2.15-7.51,3.78-11.27,5.64-14.15,8.28,2.18,18-2.83,27.32C1439.29,196.86,1447.76,192.25,1453,182.09Z"/><path class="cls-7" d="M1604.08,732.58l12.9-13.12Z"/><path class="cls-7" d="M1624.6,710.65l5.05-6.08Z"/><path class="cls-7" d="M1565.54,763.76l5.48-3.56Z"/><path class="cls-7" d="M1583.53,750.58l4-3.3Z"/><path class="cls-7" d="M1600.24,736.06l3.89-3.54Z"/><path class="cls-7" d="M1637.58,694.09l3.39-4.59Z"/><path class="cls-7" d="M1632,701.42l3.27-4.12Z"/><path class="cls-7" d="M1635.19,697.41l2.4-3.34Z"/><path class="cls-7" d="M1629.56,704.62c.81-1.08,1.63-2.15,2.45-3.23C1631.19,702.47,1630.37,703.54,1629.56,704.62Z"/><path class="cls-7" d="M1622.07,713.58l2.55-3Z"/><path class="cls-7" d="M1570.93,760.28l3.18-2.4Z"/><path class="cls-7" d="M1576.17,756.36l2.57-2.22Z"/><path class="cls-7" d="M1580.27,753.13l3.3-2.5Z"/><path class="cls-7" d="M1591.42,743.94l3.13-2.57Z"/><path class="cls-7" d="M1594.57,741.4l1.94-1.73Z"/><path class="cls-7" d="M1596.48,739.73l2-1.85Z"/><path class="cls-7" d="M1587.46,747.42l2.12-1.93Z"/><path class="cls-7" d="M1598.37,738l2-1.9Z"/><path class="cls-7" d="M1574.27,757.85l2-1.56Z"/><path class="cls-7" d="M1616.85,719.58l1.83-2Z"/><path class="cls-7" d="M1618.62,717.62l1.81-2Z"/><path class="cls-7" d="M1620.39,715.68c.53-.64,1-1.28,1.57-1.93C1621.43,714.39,1620.91,715,1620.39,715.68Z"/><path class="cls-9" d="M129.08,918.43l9.18-2.73Z"/><path class="cls-15" d="M1174.47,247.43a3.14,3.14,0,0,0,.38-1.67l1.48-2.06a8.31,8.31,0,0,0,.53-1.76c.68-1.2,1.36-2.41,2-3.62l1.48-1.8c.74-.6,1.49-1.19,2.24-1.78l-.19.19,1.85-2.19-.13.15,1.35-2.08,14.25-11.9c.4.38.78.77,1.15,1.16-12.45,11.63-23.84,24-28.07,41.24-.4,1.65-1.9,3-2.89,4.55q.84-5.36,1.7-10.72l-.16.05c.57-1.39,1.13-2.79,1.69-4.19l.09-.54C1173.66,249.45,1174.07,248.44,1174.47,247.43Z"/><path class="cls-10" d="M455.27,479c0,1.78-.07,3.56-.1,5.34l-3.27,3.21-1.72-1.94c1.78-7.26-4.12-3.94-5.95-3.58-9.94,2-19.74,4.61-29.59,7l2.41-3.27-.08.11,9.82-3.79a.71.71,0,0,0,1-.29l11.37-3.21.16.39Z"/><path class="cls-18" d="M392.8,500.32c-1.1-1.72-2.26-3.4-3.18-5.21a20.45,20.45,0,0,1,2.58-1.79l2.46,5.14a11.65,11.65,0,0,1-.07,1.77A17.88,17.88,0,0,1,392.8,500.32Z"/><path class="cls-18" d="M405.71,489.22l.05,2-1.46,1.88-4.11-.15Z"/><path class="cls-15" d="M1199.74,218.91l5.33-4c.42.46.84.93,1.27,1.39l-5.45,3.8C1200.52,219.68,1200.14,219.29,1199.74,218.91Z"/><path class="cls-18" d="M1178.89,238.32c-.67,1.21-1.35,2.42-2,3.62C1177.54,240.74,1178.22,239.53,1178.89,238.32Z"/><path class="cls-18" d="M1185.49,230.81l-1.35,2.08Z"/><path class="cls-18" d="M1184.27,232.74l-1.85,2.19Z"/><path class="cls-18" d="M1182.61,234.74c-.75.59-1.5,1.18-2.24,1.78C1181.11,235.92,1181.86,235.33,1182.61,234.74Z"/><path class="cls-1" d="M1403.21,107.19l-3.44,1.79-4.89,9.27c-5.59,2.09-11.42,3.69-16.71,6.37-8.24,4.18-15.89,9.55-24.22,13.53-4.81,2.29-10.45,2.86-15.72,4.2q.39-9.36.77-18.72l9.31,2.86c6.9-12.12,20.56-14.58,31.28-21.38,8.29-5.26,16.32-10.93,24.46-16.42Z"/><path class="cls-1" d="M1458.78,49.69a76.47,76.47,0,0,1,39.1,25.79l-26.13,9.39-5.48.68-9.22,1.33c-3.61-.76-8.68,1.89-9.37-5.11-.64-6.41-2.35-12.72-3.59-19.07Q1461.15,61.79,1458.78,49.69Z"/><path class="cls-4" d="M1419.76,86.8c-1.72,7.41,2.14,11.42,8.16,13.65,5-3.94,10.11-7.59,14.67-11.86,1.61-1.51,2.9-4.79,2.43-6.82-1.77-7.64-4.33-15.1-6.6-22.63l5.67,3.56c1.24,6.35,3,12.66,3.59,19.07.69,7,5.76,4.35,9.37,5.11l.32.46-25.07,16-5,1.82-21.93-22.47c2.42.66,4.84,1.31,7.24,2S1417.39,86.1,1419.76,86.8Z"/><path class="cls-3" d="M1371.85,77.43,1351.94,109C1350.28,96.32,1358.29,83.68,1371.85,77.43Z"/><path class="cls-4" d="M1338.23,142.35c5.27-1.34,10.91-1.91,15.72-4.2,8.33-4,16-9.35,24.22-13.53,5.29-2.68,11.12-4.28,16.71-6.37q-1.07,7.38-2.12,14.76c-10.37,12.94-24.86,19.27-39.09,25.48l-6-6.82c-2.25,4.32-4,7.65-5.75,11l-3.75-13.2Z"/><path class="cls-6" d="M1342,162.66c1.75-3.34,3.5-6.67,5.75-11l6,6.82c14.23-6.21,28.72-12.54,39.09-25.48q.73,7.32,1.48,14.65c-.9,1-1.81,2-2.72,3l-6.13,11.75-26,15.23-8.25-12.09c-.55,6.48-.94,11.06-1.33,15.64Q1345.89,171.93,1342,162.66Z"/><path class="cls-7" d="M1349.82,181.21c.39-4.58.78-9.16,1.33-15.64l8.25,12.09,26-15.23-.09,14.76c-4.87,6.49-16.82,14-24.51,8.1-.66,3.06-1.31,6.13-2,9.19Z"/><path class="cls-6" d="M1427.35,105.2l5-1.82,8.6,18.7c10.06-2.3,18.42-6.52,23.2-15.39,3.48-6.46,7.42-13.37,2.08-20.92l.09-.22,5.48-.68V102.7l2.61,1.58,30.36-19.35q4.17,6.94,8.32,13.89l-39.3,19.87-6-6c-11.32,5.56-22.9,10.64-33.79,16.94-3.31,1.91-4.69,7.16-7,10.88a13.12,13.12,0,0,0-.14,1.66l-6.79-5.5,3.73-5.52c.49-.35,1-.67,1.47-1C1437.46,119.75,1437.63,117.69,1427.35,105.2Z"/><path class="cls-4" d="M1504.72,84.93l-30.36,19.35-2.61-1.58V84.87l26.13-9.39Z"/><path class="cls-6" d="M1514.14,101.49l-1.06-2.4C1513.44,99.89,1513.79,100.69,1514.14,101.49Z"/><path class="cls-8" d="M175.07,601.76c-11.47,3.16-23.06,5.92-34.37,9.57-13.41,4.32-15.26,7.22-15.38,21.16q-.52,56.5-.91,113l-4.1.16-.45-117.95c.44-1.11.87-2.22,1.31-3.34.07-.83.13-1.66.19-2.5-.48-6.87,3.23-11.32,9.2-13.19q18.31-5.76,37-10.18C169.7,598,172.55,600.6,175.07,601.76Z"/><path class="cls-14" d="M121.36,621.86c-.06.84-.12,1.67-.19,2.5C121.23,623.53,121.29,622.7,121.36,621.86Z"/><path class="cls-2" d="M1215,330.39l-1.14,4.65c.39,2.18.77,4.37,1.16,6.55,3.73,5.69,5.71,1.41,8-1.37,13-15.51,28.41-27.41,49.39-29.15,7.83-.65,15.81.45,23.73.76l17.21,9.23,5,4.23-.1-.1c3.93,9.95,9.08,19.6,11.56,29.89,7.61,31.65,5.27,63.65-.26,95.24C1315.7,529.48,1293.9,605,1227.82,658.71l.09-.11c-16.85,10.51-35,15.58-55,13.54l-3.5-.57c-7-2.86-16.3-9.85-20.44-7.55-5.38,3-6.67,13.37-9.72,20.57l.14-.13-8.84,2.54-1.92.52-37.92,8.28c-5.53,4.34-8.83,1.25-11.64-3.49l1.83-11,3.93,12.93c2.23-6.5,4-10.36,4.86-14.41,5-23.87,9.73-47.79,14.53-71.69q6.74-33.55,13.42-67.12c2.46-10.9,5-21.78,7.34-32.72,3.79-18.14,7.34-36.34,11.07-54.51,2.37-11.57,4.88-23.12,7.33-34.69,2.41-10.65,4.91-21.29,7.23-32,7.47-34.5,15.74-68.86,22.07-103.57,7.61-41.69,33.21-65.36,72.07-77.2l0,11.22-29.58,111.12c-.23.15-.66.32-.64.43A6.76,6.76,0,0,0,1215,330.39Zm46.54,68.41-2-1.87-1.85,0c-9.11-10.79-17.41-11.75-28.29-2.53-15.24,12.92-24.61,30.18-30.15,48.71-8.16,27.26-14.71,55.07-20.61,82.93-4.13,19.43-6.45,39.29-8.7,59.05-.82,7.2.23,15,8.52,18.74-4.94,5.49-.18,6.58,3.62,7.11,8.93,1.24,16.64-1.31,23.47-7.6,19.06-17.56,28.24-40.89,37.52-64.06,4-10.09,6.34-20.87,9.43-31.35,1.52-5.21,3-10.46,4.59-15.64,7.43-23.72,13-47.84,11.36-72.83-.45-7-4.57-13.83-7-20.74Z"/><path class="cls-8" d="M1244.76,206.31c-38.86,11.84-64.46,35.51-72.07,77.2-6.33,34.71-14.6,69.07-22.07,103.57-2.32,10.68-4.82,21.32-7.23,32l-4,.12q2-13.12,3.94-26.24.93-4.08,1.84-8.16c.72-2.32,1.63-4.59,2.13-7q10.73-51.58,21.35-103.18c0-2.36.09-4.71.14-7.07l0,.34,1.2-2c1-1.51,2.49-2.9,2.89-4.55,4.23-17.28,15.62-29.61,28.07-41.24l5.45-3.8c11-5,21.81-10.14,32.91-14.75C1242.7,200.09,1248,198.87,1244.76,206.31Z"/><path class="cls-14" d="M120.31,745.65l4.1-.16c.23,13.47.79,26.94.64,40.4-.28,26.05-1,52.09-1.47,78.13l-3.55-.14Q120.17,804.77,120.31,745.65Z"/><path class="cls-10" d="M120,863.88l3.55.14c0,14.66.12,29.33,0,44,0,2.54-1.19,5.06-1.82,7.59-.63-8.41-1.53-16.81-1.8-25.23C119.65,881.55,120,872.71,120,863.88Z"/><path class="cls-9" d="M912.86,718.17,911,716.33l-2.72-3.06,0,.14c.29-.89.58-1.78.86-2.67-.72-2.27-1.34-4.6-2.2-6.82-4.9-12.73-11.73-24.91-10.74-39.25,5-6.65,10.31-13.14,15-20,1.8-2.63,2.58-6.08,3.39-9.26,1-3.82,1.15-7.86,2.28-11.61,3.67-12.14,8.16-24.06,11.24-36.34,1.9-7.58,2.14-15.65,2.54-23.54,1-18.92,2-37.85,2.06-56.78,0-4.77-3.38-9.56-5.21-14.34l13-29.39c12.14-19.56,24.21-39.17,42.1-54.24.24.56.83,1.28.66,1.65-4.6,10.08,2.06,17.94,5.14,26.48,1,2.75,2.14,5.44,3.27,8.14.69,1.64,2.54,4,2,4.73-5.45,7.46.94,15.47-1.36,23l-1.94,3.23-1.73,3,.1.46-.38.26L987,482.37l.23-.27q-1.1,2.07-2.21,4.14-1.1,2.43-2.21,4.86L981.34,494l.15.45-.38.3-1.68,2.3c-5.2,15.79-10.74,31.49-15.51,47.42-3.47,11.59-5.92,23.49-8.83,35.25l0,9.15-.57,5.56-1,9.25c-.07,1.24-.13,2.48-.2,3.72-2.69,12.16-3.9,24.12,4.66,34.77l1.08,2.06,2.69,2.88.13.06.75,4.47,9.3,5.6c-7.47,11.52-15.29,22.83-22.27,34.64-3.85,6.51-5.77,14.16-9.5,20.75-3.6,6.34-8,12.45-16.44,13.19l.13,0-3.76-2.08.12.08-2.37-1.61.21.21-2.25-1.67.55,0-.53.15Z"/><path class="cls-8" d="M982.66,409.15c-17.89,15.07-30,34.68-42.1,54.24l-5.91.07c3.2-5.84,6.27-11.76,9.63-17.51,4.65-7.95,9.51-15.78,14.29-23.66l.18.38c.66-1.23,1.31-2.46,2-3.69v0q3.66-3.72,7.33-7.45v0l1.86-1.88-.07,0,3.78-3.77,0,.06,1.86-1.87,0,0,1.88-1.86,0,0,1.87-1.85h0q21.52-11.15,43-22.3l4.72-2.2,5.9.86,8.11,8C1015.88,381.68,998.61,393.87,982.66,409.15Z"/><path class="cls-14" d="M1030.85,507.44q3.63-21.06,7.27-42.11,1.47-8.34,3-16.67l1.83-.68c.84,5.13,3.1,10.5,2.27,15.34-3,17.14-7,34.09-10.56,51.12-3.07,14.64-5.52,29.44-9.23,43.91-3.61,14.09-8.46,27.86-12.77,41.77l-5.29-.37-.46-3.57-.09.09q3.56-11.17,7.1-22.35l2-3.17Z"/><path class="cls-8" d="M1122.81,352.31c-12.75,3.23-25.42,6.87-38.29,9.58-10.22,2.15-15.15,8.19-16.65,18.08-1.2,7.82-2.8,15.57-4.22,23.36l-2.65.36c-.62-3.37-1.23-6.75-1.85-10.13q4.24-16,8.5-31.92l0,.06,1.87-1.88h0c15.52-3.95,31-7.94,46.58-11.82C1119.63,347.12,1123.88,345.68,1122.81,352.31Z"/><path class="cls-10" d="M1007.32,599.75l5.29.37c-6.54,22.25-14.46,43.61-36.36,55.81a21.25,21.25,0,0,1-4.34,1.33l-9.3-5.6c5.4-.62,12.32,2.46,14.52-6l0,.35,2.09-2.11,3.44-3.39,2.1-2.07-.27.09c1.12-1.36,2.25-2.72,3.37-4.09l0,.25,2.25-3.67-.17.09q3.78-6.5,7.54-13l-.2.15,5.5-11.31-.2.08Z"/><path class="cls-10" d="M1000.29,714.61l-1.73-2.14c.14-1.22.27-2.43.41-3.65l1.17-12.85c1.66-6.38,3.42-12.74,4.92-19.17a57.28,57.28,0,0,0,.77-7.56l2.29-.46c.81,1.89,2.46,3.88,2.27,5.66-1.22,11.45-2.59,22.89-4.56,34.22C1005.44,710.9,1002.21,712.64,1000.29,714.61Z"/><path class="cls-10" d="M1122.81,352.31c1.07-6.63-3.18-5.19-6.75-4.3-15.54,3.88-31.06,7.87-46.58,11.82l15-7.45,4-.88,3.38-1,11.27-2.93,3.48-.82,11.2-3,6.48-.13,2.49,1.92-.13,0c0,2.35.05,4.7.08,7.05Z"/><path class="cls-10" d="M1058.42,391q1.21-9.7,2.44-19.41l-.17-.1,1-2.12.75-3.32,1.32-2.24,3.91-2.13q-4.26,16-8.5,31.92C1058.91,392.7,1058.66,391.83,1058.42,391Z"/><path class="cls-10" d="M1000.81,690.29l-1.28-1.6Z"/><path class="cls-15" d="M476.43,711.07c-8.54,2.92-17.16,5.62-25.56,8.9-2.64,1-4.68,3.61-7,5.48-1,1.12-2.95,2.22-3,3.38-.25,9-.14,18-.14,27.45-7.91-3.41-16.84-4.39-22.3-14.37-4.34-7.94-12.67-13.8-19.67-20.11-1.72-1.55-5.12-1.24-7.75-1.78q9.1-31.46,18.22-62.89c9.24,9,18.89,17.53,27.53,27,3.54,3.89,4.8,9.88,11.54,9.9l12.7-3.49Q468.73,700.82,476.43,711.07Z"/><path class="cls-15" d="M459.4,776.82c13.91,9,27.74,5.61,41.55-.29l.68.7c-10.92,10.46-24.31,7.48-37.42,6.86,7.85,6,16.6,7.43,25.85,5.28,26.93-6.26,44.65-25.41,61.72-45.18,3.3-3.82,2.33-7.67-4-7.52l-.13-.14c2-.72,5.56-2.41,5.82-2,1.52,2.37,3.5,5.48,3,7.89-1.34,6.87-3.76,13.54-5.8,20.27-1.07,3.5-2.23,7-3.35,10.45l.09.05q-3.75,9.25-7.52,18.52l.16-.13c-.41.74-.82,1.48-1.24,2.22a1.14,1.14,0,0,0-.49,1.38l-1.27,2.3a1.25,1.25,0,0,0-.55,1.47l-1.31,2.21a1.11,1.11,0,0,0-.58,1.33l-1.81,2.37.08-.07-1.53,1.94a1.53,1.53,0,0,0-.4,1.49c-.5.16-1,.31-1.51.45l-1.94,2,.08-.06c-3.4,1-6.76,2.61-10.19,2.77-3.73.17-10,.11-10.88-1.78-6-13.47-18-14.34-29.81-15.9C462.92,793.88,458.2,788.89,459.4,776.82Z"/><path class="cls-14" d="M409.26,657.13Q400.16,688.57,391,720l-3.87,35c-1.17-2.68-3.66-5.55-3.3-8,3.09-21.57,6.07-43.19,10.37-64.54,2.62-13,7.5-25.51,11.37-38.24l-.23.05,2-3.79-.22,0L411,633l-.15.11,2-3.77-.28-.16,2.69.38,5.13,1.82Q414.86,644.25,409.26,657.13Z"/><path class="cls-10" d="M405.61,644.17c-3.87,12.73-8.75,25.26-11.37,38.24-4.3,21.35-7.28,43-10.37,64.54-.36,2.47,2.13,5.34,3.3,8l4,44.25-.44.37-4.8-3.86c-10-31.24-7.11-62.73.26-93.68C390.91,682.34,399,663.44,405.61,644.17Z"/><path class="cls-10" d="M394,806.16l.27.69-1,.2a2,2,0,0,1,.15-.74C393.48,806.19,393.79,806.21,394,806.16Z"/><path class="cls-10" d="M391.19,799.22c.42.72.86,1.44,1.23,2.2,0,.06-.41.36-.64.55l-1-2.38Z"/><path class="cls-21" d="M633.51,670.36c.57,11.17.32,22.46,1.93,33.48s7.8,19.64,17.29,25.7c0,1.73-.72,4.5.06,5,10.47,7,21.92,8.64,33.77,4.43,19.56-7,34.58-20.43,47.9-35.71,4.78-5.48,7.57-12.68,11.27-19.1.08,5.17,1.4,10.7,0,15.43-4,13.63-9.17,26.94-13.88,40.37h0q-1.93,4.63-3.89,9.26l.14-.09-3.94,7.34.12-.06c-1.24,1.9-2.47,3.8-3.71,5.69l.12-.09c-1.39,1.91-2.78,3.8-4.17,5.7-.39.56-.79,1.11-1.19,1.67l-1.89,2.06-1.93,1.76-3.41,2.3-2,1.63.08-.09L704.12,779l-4.92,2.09L696,783.57l-.17.08-2.34,1.12h0l-14.84,7.39L675,793.54l-11.13,3.17-3.61.56-37,.62-5.75-2-9.08-3.54.07,0-3.68-2,.06,0-2.7-1.59a4.43,4.43,0,0,0-1,.21l-1.61-.88.11.11-2.15-1.33.11-.59-2.18-1.49-5.39-5.4-3.08-3c-.25-.33-.51-.65-.77-1,0-.61.09-1.22.14-1.83.4-1.72,1.73-4,1.08-5.08-9.86-16.75-12.6-35.26-13.94-54.17q1-21.15,2.08-42.31c6.46,4.54,13.14,6.54,20.59,2.12a4.28,4.28,0,0,1,3.53.11C611.85,680.77,622.86,677.21,633.51,670.36Z"/><path class="cls-15" d="M876,662.74c8.33-4.46,8.61,1.16,7.13,6.45C877.29,690,872.88,711.51,858.85,729c-.47.55-.94,1.09-1.42,1.63-.64.73-1.29,1.46-1.94,2.18l.14-.14-2,2,.14-.13-2,2,.13-.14-2,2,.12-.13-11.33,9.12.09-.11-9.13,5.49-42,9.68-16.58-7.6.12.15-2.12-1.76,0,0-1.92-1.72c-.62-.64-1.25-1.28-1.87-1.93l-1.74-2,.09.1-1.93-1.95.08.08c.45-1.15.89-2.3,1.33-3.46l.38-11.23c6.71-3.65,14.18-6.38,20-11.14,11.91-9.75,28.94-14.46,33-32.43.4-1.8,3.7-2.94,5.65-4.38.8,7.45,5.77,9.12,12.17,8.8l-8.23,4.25c5.94,5.44,12,4.58,17,1.29,11.08-7.32,21.43-15.73,32.39-23.25C881.39,670.19,880.47,666.75,876,662.74Z"/><path class="cls-10" d="M763.51,731.08c-.13,3.75-.25,7.49-.38,11.23l-5.07-4.1-2-5.29c.72-15.26.09-30.74,2.5-45.73,3.52-21.91,9.23-43.46,14-65.16.38,1.3,1.29,2.69,1.07,3.88-2.37,13-5.15,26-7.21,39.09-.43,2.72,1.64,5.83,2.56,8.76-1.52,8.68-3.62,17.31-4.41,26.06C763.6,710.19,763.8,720.66,763.51,731.08Z"/><path class="cls-2" d="M909.58,716.16l-1.26-2.89,2.71,3.06A8.83,8.83,0,0,0,909.58,716.16Z"/><path class="cls-2" d="M912.86,718.17l2.94,2.76Z"/><path class="cls-2" d="M920.07,723.81l3.76,2.08Z"/><path class="cls-2" d="M917.82,722.28l2.37,1.61Z"/><path class="cls-2" d="M915.78,720.82l2.25,1.67Z"/><path class="cls-2" d="M1451.4,278.77c-.09.83-.18,1.67-.26,2.5q-2.52,10.74-5,21.46l-.6,3.57q-1.49,6.54-3,13.09c-.17,1.2-.35,2.4-.52,3.6q-11,50.34-21.91,100.68-21.54,100-43,199.93l-5.28,7.53-16.36,4.19-20.32,4.27-16.63,2.64-1.91-3.58c1.87-10.47,3.67-21,5.63-31.42,4.08-21.82,8.34-43.6,12.35-65.44,2.19-12,4-24,6-36s3.87-24.05,6.2-36c5.7-29.3,11.64-58.54,17.49-87.81,5.62-29,11.56-57.9,16.7-87,2.12-12,7.53-19.18,19.83-22,15.21-3.47,30.08-8.41,45.18-12.4,3.64-1,5.81-1.82,3.6-5.89l3.87,11.11Q1452.46,272.31,1451.4,278.77Z"/><path class="cls-15" d="M1309.06,627.67c3.81-18.19,7.59-36.38,11.46-54.56,1.46-6.84,3.13-13.64,4.71-20.46,0,3.92.61,7.94-.07,11.73-3.78,20.88-8.14,41.66-11.63,62.58-.6,3.62,2,7.78,3.12,11.69l1.91,3.58-5.45.18-2-1.78-1.71-1.9-.32-5.53a1.9,1.9,0,0,0,0-1.78C1309.08,630.17,1309.07,628.92,1309.06,627.67Z"/><path class="cls-10" d="M573.42,714.36c1.34,18.91,4.08,37.42,13.94,54.17.65,1.1-.68,3.36-1.08,5.08a16,16,0,0,1-1.55-.4l-2.22-3.35c-16.66-29.48-18.86-61.33-15.12-94.06.72-6.34,2.77-12.52,4.21-18.77-.58,16.42-1.33,32.85-1.57,49.28C570,709,572.23,711.68,573.42,714.36Z"/><path class="cls-10" d="M586.91,776.41l3.08,3Z"/><path class="cls-10" d="M595.38,784.78l2.18,1.49Z"/><path class="cls-10" d="M602.11,788.75l2.7,1.59-1.81.07Z"/><path class="cls-10" d="M663.82,796.71,675,793.54l-2.25,1.65Z"/><path class="cls-10" d="M696,783.57l3.16-2.52Z"/><path class="cls-10" d="M693.53,784.77l2.34-1.12Z"/><path class="cls-10" d="M604.75,790.31l3.68,2Z"/><path class="cls-9" d="M527.53,810.68l1.94-2a5.38,5.38,0,0,1-.27,1.69A6,6,0,0,0,527.53,810.68Z"/><path class="cls-9" d="M306.07,559.61l1.57,1.73c.48,3.61,1.52,7.24,1.34,10.82-.76,15.56-1.88,31.1-2.87,46.65q-2.12,33.06-4.22,66.12l-1.49,1.18,1.4.69-.15,3.61c-14.23.11-13.48-.13-18.16-14.53-2.85-8.79-8.77-16.54-12.62-25.07-1.94-4.31-2.1-9.39-3.52-14-1.91-6.21-4.65-12.18-6.28-18.45a98.65,98.65,0,0,1-2.79-17.6c-.71-9.85-5.24-14.81-15.24-15.7,11.18-3.65,22.32-7.4,33.54-10.92,9.34-2.93,18.76-5.6,28.15-8.38l-.22-3-9.64-1.67Z"/><path class="cls-9" d="M378,686.77l-21.71,61.56-1.8,3.52,0,0c-7,1.38-12.12.24-14.64-7.92-1.36-4.39-5.67-7.81-8.33-11.88a74.06,74.06,0,0,1-5.31-9.9c-2.29-5-5.37-7.4-10.71-4l11.16-34.94,14.85-38.88c2.87,1.46,7.06,2.17,8.36,4.51,5.56,10,11.15,20.11,15,30.82C367.55,687.23,370.67,689.87,378,686.77Z"/><path class="cls-8" d="M294.87,561.11l9.64,1.67.22,3c-9.39,2.78-18.81,5.45-28.15,8.38-11.22,3.52-22.36,7.27-33.54,10.92-4,8.36-9,16.41-11.91,25.15-9.51,29-18.23,58.28-27.31,87.43-4.61,14.78-9.36,29.52-14,44.28-.66-2.22-2.12-4.54-1.84-6.63.88-6.42,2.43-12.75,3.72-19.12l0,.07c1.4-2.9,3.21-5.68,4.16-8.72q19.62-62.6,39-125.25l4.82-4.65-.07,0,42.48-12.57,5.44-2.16,7.59-1.89Z"/><path class="cls-10" d="M246.31,854.78l.3-5.56c2.61-32.6,5.12-65.21,7.88-97.8,1.31-15.49,3.27-30.93,4.58-46.42.4-4.62-.39-9.34-.64-14,1.57-2.13,3.14-4.27,4.72-6.4-1.15,17.32-2.18,34.64-3.47,51.95-1.59,21.57-3.48,43.12-5,64.7-.18,2.5,1.18,5.1,1.83,7.66-.1,7.53.14,15.08-.37,22.58-.93,13.61-1.9,27.25-3.72,40.76-.61,4.51-3.91,8.66-6,13l.22-.29.39-13.7Q246.69,863,246.31,854.78Z"/><path class="cls-14" d="M256.51,808.9c-.65-2.56-2-5.16-1.83-7.66,1.52-21.58,3.41-43.13,5-64.7,1.29-17.31,2.32-34.63,3.47-51.95q2.13-8.1,4.29-16.2l.88,0,.88.1q-4.51,51.72-9.06,103.44C259,784.24,257.73,796.57,256.51,808.9Z"/><path class="cls-14" d="M326.7,683.24l-11.16,34.94q-8.42,23-16.84,46l-1.56-.26,2.13-18q4.29-13.05,8.6-26.09l-.26,0,2-3.77,0,.13q6.56-15.66,13.1-31.34Z"/><path class="cls-14" d="M172.93,772.28l8-24.63,7.24,0c-5.64,17.89-11.27,35.79-17.51,55.59-.67-9-2.5-16-1-22.17C170.2,778.77,173.61,776.08,172.93,772.28Z"/><path class="cls-10" d="M188.15,747.67l-7.24,0q5.37-15.72,10.75-31.46c-1.29,6.37-2.84,12.7-3.72,19.12-.28,2.09,1.18,4.41,1.84,6.63C189.24,743.85,188.69,745.76,188.15,747.67Z"/><path class="cls-10" d="M307.87,719.87q-4.31,13.05-8.6,26.09L300.56,735Z"/><path class="cls-9" d="M269.2,668.46l-.88-.1-.88,0Z"/><path class="cls-11" d="M1423.81,131.14l-3.73,5.52-5.67-5.54Z"/><path class="cls-10" d="M346.31,605.52c.21-1.18.43-2.36.64-3.55l1.89-5.5-.11.08,3.75-9.34-.09.06,3.45-9.43q8.45-23.08,16.9-46.16l.05-.71,2.1-4.63-.18.25,1.26-2.24a.9.9,0,0,0,.46-1.13c.48-.85.95-1.71,1.42-2.57a.72.72,0,0,0,.45-1c.43-.91.87-1.81,1.31-2.71a3.39,3.39,0,0,0,.38-1.62l1.85-2.08,0,0,2.14-1.56,1.7-2,1.73-1.95c.56-.14,1.11-.25,1.67-.34-5.22,10.54-11.52,20.7-15.49,31.71-14.94,41.35-29.08,83-43.66,124.48-.6,1.73-2.53,3-3.85,4.48Q334.45,642,342.86,616C344,612.47,345.16,609,346.31,605.52Z"/><path class="cls-10" d="M191.62,716.26q1.15-7.23,2.32-14.46l-.12,0q2.48-7.5,5-15l1-3.43,5.07-16.88.33-.34-.2-.43c.41-1,.83-1.91,1.25-2.86l.57-2.82c.39-.91.78-1.81,1.16-2.71s.45-2.08.68-3.12q3.75-12.28,7.52-24.55l-.14.17q1.59-4.75,3.19-9.49l.51-2.65q.91-3.27,1.81-6.52l2-5.39-.13,0c.47-1.3.93-2.61,1.4-3.91.16-.86.32-1.72.49-2.59l1.26-2.94c.18-.91.35-1.82.53-2.74l3.92-9.93-.2.09,1.62-2.23h0c.47-.12.94-.26,1.41-.4.36.36.7.74,1,1.13q-19.5,62.64-39.05,125.25C194.83,710.58,193,713.36,191.62,716.26Z"/><path class="cls-10" d="M258.4,569.27l23.65-4.16-42.48,12.57c2.58-1.6,5-3.54,7.77-4.74C250.89,571.41,254.7,570.47,258.4,569.27Z"/><path class="cls-10" d="M239.64,577.64l-4.82,4.65c-.32-.39-.66-.77-1-1.13a3.83,3.83,0,0,0-.14-1.39Z"/><path class="cls-21" d="M451.9,487.51q-2,5.34-4,10.68H448l-3.39,7.66a.62.62,0,0,0-.32,1l-7,17.46a.83.83,0,0,0-.37,1.2q-2.59,6.79-5.18,13.59a.81.81,0,0,0-.33,1.19l-2.16,5.79,0,0-19.77,52.06q-1.69,4.3-3.38,8.63l.12.47-8,6.3c-3.48-8-7.31-14.85-9.53-22.21-3-9.81-4.28-20.12-7.15-30-.86-2.93-4.57-5-7-7.5,6-22.44,16.67-42.1,37.49-53.54,11.86-6.52,25.41-9.94,38.2-14.76Z"/><path class="cls-8" d="M450.18,485.57c-12.79,4.82-26.34,8.24-38.2,14.76-20.82,11.44-31.52,31.1-37.49,53.54l-32.94,90.49L326.7,683.24l-3.95,1.68q1.77-8.35,3.55-16.73l-.25-.06c1.32-1.48,3.25-2.75,3.85-4.48,14.58-41.49,28.72-83.13,43.66-124.48,4-11,10.27-21.17,15.49-31.71l-.05.18,1.92-1.92-.08.07,1.93-1.92-.08.05,22.2-14.86-.25-.06c9.85-2.4,19.65-5,29.59-7C446.06,481.63,452,478.31,450.18,485.57Z"/><path class="cls-10" d="M414.89,489.06l-22.2,14.86a6.15,6.15,0,0,1,.19-1.71l1.94-1.74,2-1.73,2.06-1.64,1.41-2.27,4.05-1.76,1.46-1.88Z"/><path class="cls-10" d="M390.92,505.72,389,507.64a9.45,9.45,0,0,1,.16-1.76A8.67,8.67,0,0,1,390.92,505.72Z"/><path class="cls-10" d="M392.77,503.87l-1.93,1.92A9.46,9.46,0,0,1,391,504,9.37,9.37,0,0,1,392.77,503.87Z"/><path class="cls-10" d="M1353.9,398.76q4.85-27.25,9.69-54.52c1.57-8.89,3.07-17.79,4.61-26.69.22-1.16.45-2.32.67-3.48l1.32-7.59c.09-.87.19-1.75.29-2.63.43-1.57.86-3.14,1.3-4.7.33-1.77.67-3.53,1-5.3q.45-2.91.92-5.82c.15-.95.31-1.9.47-2.85l3.15-8.25a.94.94,0,0,0,.51-1.1l1.75-2.56-.07.08c.52-.11,1-.24,1.53-.38l.82.79c-1.42,4.64-3.25,9.2-4.17,13.93-6.1,31.35-12,62.73-18,94.1Z"/><path class="cls-10" d="M1410.83,260.54l9.25-.09a76.75,76.75,0,0,1-8,3.67c-10,3.32-20.14,6.44-30.21,9.64l-.82-.79c.11-.52.21-1,.31-1.56l0,0,2-1.82-.1.1,1.77-2,1.9-.42,2.55-1.23a.63.63,0,0,0,1-.08l6.67-1.8.38.27.38-.27,12.17-3.69Z"/><path class="cls-15" d="M1313.34,321.06l-17.21-9.23c-4.66-1.81-9.18-4.52-14-5.26-14.32-2.17-27.84,1.2-40.67,7.66l-1.38-1.52,17.69-8.33,33.17.05a1.06,1.06,0,0,0,1.36.35l2.25,1.16,3.38,1.49,3.76,2,1.77.86Z"/><path class="cls-15" d="M1225.51,324.05l14.57-11.34,1.38,1.52-14.69,11.1C1226.36,324.89,1225.94,324.47,1225.51,324.05Z"/><path class="cls-15" d="M1217,334l4.91-6.16c.41.41.83.81,1.26,1.21l-6,5.11Z"/><path class="cls-15" d="M1215,341.59c-.39-2.18-.77-4.37-1.16-6.55L1217,334l.16.16C1216.42,336.61,1215.7,339.1,1215,341.59Z"/><path class="cls-15" d="M1223.59,325.88l1.92-1.83c.43.42.85.84,1.25,1.28l-1.82,1.82Z"/><path class="cls-15" d="M1221.9,327.8l1.69-1.92,1.35,1.27-1.78,1.86C1222.73,328.61,1222.31,328.21,1221.9,327.8Z"/><path class="cls-15" d="M1215,330.39a6.76,6.76,0,0,1-.38-1.31c0-.11.41-.28.64-.43A1.63,1.63,0,0,1,1215,330.39Z"/><path class="cls-4" d="M1466.27,85.55l-.09.22-8.81,1.57-.32-.46Z"/><path class="cls-10" d="M1178.45,603.85l5.6,0,5.16-.9-.19.06,2.41.7c.35-.91.71-1.83,1.07-2.74l.22.49,2.16-1.92-.16.17,3.57-2.29-.08.31,2-2-.15.25,2.07-2.05-.2.26,2-2.1-.22.24,2-2.09-.19.2c.66-.69,1.32-1.38,2-2.08l-.25.19,2.37-3.54-.11.1,3.31-4.17v.29l2.25-3.69-.16.19,1.88-2.22-.3.14,4.14-7.31-.15.18,1.8-2.27-.35.16,2.09-3.78-.17.17,2-3.86-.2.16,2-3.83-.21.11c.67-1.27,1.33-2.55,2-3.83a1.92,1.92,0,0,0-.13.17l2.33-5.52-.19.15c1.92-2.56,4.47-4.87,5.65-7.74,3.94-9.56,7.39-19.32,11-29l4.24-1.65c-3.09,10.48-5.39,21.26-9.43,31.35-9.28,23.17-18.46,46.5-37.52,64.06-6.83,6.29-14.54,8.84-23.47,7.6C1178.27,610.43,1173.51,609.34,1178.45,603.85Z"/><path class="cls-10" d="M1080.91,681.26l.42-2q.75-3.64,1.51-7.27,2.69-12,5.39-24.08c2.42-7.65,5.39-15.18,7.15-23,6.31-27.94,12.2-56,18.24-84l4,0q-6.7,33.56-13.42,67.12c-4.8,23.9-9.56,47.82-14.53,71.69-.84,4.05-2.63,7.91-4.86,14.41Z"/><path class="cls-14" d="M1117.65,541l-4,0q1-11.18,2.06-22.34c.5-1.1,1-2.19,1.52-3.29q5.7-28,11.39-56.07l3.63-14.05q3.57-13,7.15-26.07l4-.12c-2.45,11.57-5,23.12-7.33,34.69-3.73,18.17-7.28,36.37-11.07,54.51C1122.7,519.19,1120.11,530.07,1117.65,541Z"/><path class="cls-14" d="M1252.49,508l-4.24,1.65c.87-3.87,1.56-7.79,2.61-11.61,8.91-32.51,16.91-65.11,10.57-99.25,2.44,6.91,6.56,13.71,7,20.74,1.62,25-3.93,49.11-11.36,72.83C1255.46,497.49,1254,502.74,1252.49,508Z"/><path class="cls-8" d="M1223.16,329l1.78-1.86,1.82-1.82,14.7-11.1c12.83-6.46,26.35-9.83,40.67-7.66,4.82.74,9.34,3.45,14,5.26-7.92-.31-15.9-1.41-23.73-.76-21,1.74-36.34,13.64-49.39,29.15-2.33,2.78-4.31,7.06-8,1.37.73-2.49,1.45-5,2.18-7.47Z"/><path class="cls-15" d="M1261.43,398.74c6.34,34.14-1.66,66.74-10.57,99.25-1,3.82-1.74,7.74-2.61,11.61-3.64,9.69-7.09,19.45-11,29-1.18,2.87-3.73,5.18-5.65,7.74,8.37-28.08,17.71-55.91,24.8-84.32,5.31-21.26,8.66-43.24,1.31-65.08l1.85,0,2,1.87Z"/><path class="cls-14" d="M1261.49,398.8l-2-1.87Z"/><path class="cls-10" d="M1158.42,301c1.74-5,3.38-10,5.26-14.89,1.5-3.91,3.3-7.7,5-11.53q-10.68,51.61-21.36,103.19c-.5,2.37-1.41,4.64-2.13,7,.09-4.46,0-8.93.31-13.37.29-3.82,1.08-7.6,1.66-11.4,0-1.22.05-2.45.07-3.67l1.69-3.69Z"/><path class="cls-10" d="M1139.37,419.17q-3.57,13-7.15,26.07c-.56-1.59-1.85-3.33-1.56-4.74q4.53-22.28,9.6-44.43c.27-1.22,2-2.1,3-3.14Q1141.35,406.06,1139.37,419.17Z"/><path class="cls-15" d="M1168.77,267.56l0,.34Z"/><path class="cls-15" d="M896.24,348.74q-8.18,26.89-16.34,53.79L878,409.92h0c-.19,1.81-.37,3.62-.55,5.43l-1.34,4.55c0,1.5-.09,3-.14,4.5l-2,3.88c-2.95-1.75-6.81-2.83-8.69-5.37-9.08-12.3-17.61-25-26.34-37.54,10.79-18.57,28.41-27.62,47.59-34.79,3.1-1.16,5.31-4.7,7.94-7.15.75-.8,1.49-1.61,2.24-2.42l.12.25C896.59,343.76,896.42,346.25,896.24,348.74Z"/><path class="cls-10" d="M942.93,439.59l3.3-3.53,1.63-2.21,2.12-3.11,8.59-8.45c-4.78,7.88-9.64,15.71-14.29,23.66-3.36,5.75-6.43,11.67-9.63,17.51-8.44,19.23-17.6,38.2-25.1,57.79-6.15,16.08-10.33,32.91-15.38,49.4-.17-1.53-.77-3.15-.46-4.57,7.38-33.7,19.33-65.82,33.53-97.16a26.59,26.59,0,0,0,1-3.46l3.13-7.42,3.87-5.63,3.7-4.84Q940.95,443.58,942.93,439.59Z"/><path class="cls-10" d="M896.65,341c-.75.81-1.49,1.62-2.24,2.42C873.77,347,855.87,355.87,841,370.82c-1.59,1.6-3.71,2.66-5.58,4l-.33-.32c0-.51.06-1,0-1.53l4.13-4.93,2-2.32-.2.21,2.28-2c13.51-7.75,26.86-15.81,40.64-23,3.42-1.79,8.27-.85,12.46-1.16A2.28,2.28,0,0,1,896.65,341Z"/><path class="cls-10" d="M935.45,409.86a3.07,3.07,0,0,0-.54,1.6,7.67,7.67,0,0,0-1.55.46l-2-2.08c.82-7.07-3.42-4.68-6.73-3.47q-24.36,9-48.67,18c.05-1.5.1-3,.14-4.5,14.92-5.18,29.83-10.4,44.77-15.53,2.83-1,5.78-1.56,8.68-2.33l5.4.67-.13-.11Q935.13,406.23,935.45,409.86Z"/><path class="cls-10" d="M1022.15,378.16q-21.51,11.16-43,22.3c.31-1,.63-2.11.94-3.17l9-7.17.07.07,5.46-3.76.09.08,15.24-7.82.45.18.32-.36,5.54-1.85,3.75-.42Z"/><path class="cls-10" d="M896.24,348.74c.18-2.49.35-5,.53-7.47C896.59,343.76,896.42,346.25,896.24,348.74Z"/><path class="cls-10" d="M878,409.92l1.95-7.39Z"/><path class="cls-10" d="M877.4,415.36c.18-1.81.36-3.62.55-5.43C877.76,411.74,877.58,413.55,877.4,415.36Z"/><path class="cls-10" d="M969.83,409.71c.12-1.06.25-2.12.37-3.19l3.41-.58Z"/><path class="cls-10" d="M975.43,404.13,973.57,406Z"/><path class="cls-10" d="M1069.49,359.82l-1.87,1.88Z"/><path class="cls-10" d="M977.29,402.29l-1.88,1.86Z"/><path class="cls-10" d="M979.14,400.46l-1.87,1.85Z"/><path class="cls-15" d="M927.57,492.78c1.83,4.78,5.23,9.57,5.21,14.34-.08,18.93-1.09,37.86-2.06,56.78-.4,7.89-.64,16-2.54,23.54-3.08,12.28-7.57,24.2-11.24,36.34-1.13,3.75-1.3,7.79-2.28,11.61-.81,3.18-1.59,6.63-3.39,9.26-4.71,6.88-10,13.37-15,20-.6-3.2-1.78-6.4-1.71-9.58.46-20.79,1.18-41.58,1.82-62.36,3.66-15.42,6.44-31.12,11.21-46.18C913.35,528.34,920.83,510.68,927.57,492.78Z"/><path class="cls-10" d="M896.36,592.73c-.64,20.78-1.36,41.57-1.82,62.36-.07,3.18,1.11,6.38,1.71,9.58-1,14.34,5.84,26.52,10.74,39.25.86,2.22,1.48,4.55,2.2,6.82l-3.45,0c-1.35-2.64-2.57-5.35-4.07-7.91-13.22-22.5-15.72-47.5-15.29-72.64.3-17.69,3.57-35.32,5.51-53a56,56,0,0,0,1.17,7.82A64.3,64.3,0,0,0,896.36,592.73Z"/><path class="cls-14" d="M896.36,592.73a64.3,64.3,0,0,1-3.3-7.66,56,56,0,0,1-1.17-7.82l2.28-6.6c5.05-16.49,9.23-33.32,15.38-49.4,7.5-19.59,16.66-38.56,25.1-57.79l5.91-.07-13,29.39c-6.74,17.9-14.22,35.56-20,53.77C902.8,561.61,900,577.31,896.36,592.73Z"/><path class="cls-15" d="M953.3,607.42q2.33,17.39,4.66,34.77C949.4,631.54,950.61,619.58,953.3,607.42Z"/><path class="cls-15" d="M977.13,645.69c-2.2,8.43-9.12,5.35-14.52,6l-.75-4.47Z"/><path class="cls-15" d="M954.55,594.45l-1,9.25Z"/><path class="cls-15" d="M955.09,579.74l0,9.15Z"/><path class="cls-15" d="M959,644.25l2.69,2.88Z"/><path class="cls-2" d="M905.74,710.78l3.45,0c-.28.89-.57,1.78-.86,2.67Z"/><path class="cls-2" d="M987.25,482.1q-1.1,2.07-2.21,4.14Q986.15,484.17,987.25,482.1Z"/><path class="cls-2" d="M990.46,476.34l-1.73,3Z"/><path class="cls-2" d="M988.45,480c-.48.78-1,1.57-1.43,2.36Z"/><path class="cls-2" d="M982.83,491.1c-.49,1-1,1.94-1.49,2.91C981.84,493.05,982.34,492.07,982.83,491.1Z"/><path class="cls-2" d="M981.11,494.77l-1.68,2.3Z"/><path class="cls-10" d="M1030.85,507.44l-15,63.31c-.5-.71-1.55-1.54-1.42-2.1q6.79-28.95,13.87-57.83C1028.58,509.56,1030,508.56,1030.85,507.44Z"/><path class="cls-15" d="M1013.87,573.92q-3.55,11.18-7.1,22.35Q1010.33,585.1,1013.87,573.92Z"/><path class="cls-15" d="M997.48,618.15q-3.76,6.5-7.54,13Z"/><path class="cls-15" d="M1002.78,607l-5.5,11.31Z"/><path class="cls-15" d="M1007.32,599.75l-4.74,7.32q2.14-5.45,4.28-10.89C1007,597.37,1007.17,598.56,1007.32,599.75Z"/><path class="cls-15" d="M987.83,634.47c-1.12,1.37-2.25,2.73-3.37,4.09C985.58,637.2,986.71,635.84,987.83,634.47Z"/><path class="cls-15" d="M990.11,631.05l-2.25,3.67C988.6,633.5,989.36,632.27,990.11,631.05Z"/><path class="cls-15" d="M979.19,643.93,977.1,646Z"/><path class="cls-15" d="M984.73,638.47l-2.1,2.07Z"/><path class="cls-15" d="M1115.68,518.65q-1,11.16-2.06,22.34c-6,28-11.93,56-18.24,84-1.76,7.8-4.73,15.33-7.15,23,3.71-18.77,7.32-37.56,11.15-56.31,4.82-23.67,9.81-47.3,14.79-70.94C1114.33,520,1115.16,519.33,1115.68,518.65Z"/><path class="cls-10" d="M1128.59,459.29q-5.7,28-11.39,56.07c-.52-1.64-1.76-3.44-1.45-4.9,3.55-16.43,7.32-32.81,11.11-49.18C1127,460.52,1128,460,1128.59,459.29Z"/><path class="cls-2" d="M1082.84,672q-.77,3.63-1.51,7.27Q1082.08,675.67,1082.84,672Z"/><path class="cls-10" d="M960.72,419q3.66-3.72,7.33-7.45Q964.38,415.23,960.72,419Z"/><path class="cls-10" d="M958.75,422.67c.66-1.23,1.31-2.46,2-3.69C960.06,420.21,959.41,421.44,958.75,422.67Z"/><path class="cls-10" d="M968,411.54l1.86-1.88Z"/><path class="cls-22" d="M566.42,566.59c8,9.82,8.28,21.56,7.12,33.14-2.78,27.68-13.21,52-33.21,71.86l-1.24,1-.54-.35.58.28c-12.3-.3-23.83-1.74-27.44-16.63-.27-1.09-2.93-1.61-4.48-2.4,3.06-11,6.93-21.85,8.83-33,.94-5.52-.58-12.52-9.07-13l-.05-.7-2.29-2.7v.37l-2-4.24q-3.19,1.88-6.4,3.74l.13-.08-3.91,1.45a3.75,3.75,0,0,1-1.58.28c-.66.71-1.32,1.41-2,2.12l.15-.11-3.41,2.47.07.22c-10.91-7.48-14.18-19.7-19.15-30.86,26-19.59,54.23-29,86.73-19.59L565,564l.28.35Z"/><path class="cls-21" d="M507.21,653.53c1.55.79,4.21,1.31,4.48,2.4,3.61,14.89,15.14,16.33,27.44,16.63-14.92,16.74-33.57,27.84-54.18,36l-3.55.53.1-.08-3.87,1.88-.56.33-.64-.16q-7.71-10.25-15.4-20.5C479.58,682.17,496,671.11,507.21,653.53Z"/><path class="cls-14" d="M573.42,714.36c-1.19-2.68-3.43-5.38-3.39-8.05.24-16.43,1-32.86,1.57-49.28,2.45-26.22,10-51,21.32-74.65,4.27-8.91,9.69-17.26,14.59-25.87l1.38,1.26c-2.38,4.56-5.29,8.94-6.93,13.76-.81,2.41.68,5.6,1.13,8.44-1,2.54-1.89,5.11-3,7.6-12.11,27-21,55-24.59,84.48Q574.46,693.2,573.42,714.36Z"/><path class="cls-14" d="M565,564l-11.7-4.19c-3-1.85-5.87-5.12-8.93-5.29-13-.75-26-.58-39.06-.75l-.06-3,37-1.06,3.47,1Z"/><path class="cls-14" d="M617.94,539.13l1.95-1,3.35-1.81L612.53,552.2c-.42-.44-.87-.86-1.32-1.27l3.24-5.9-.07-.13Z"/><path class="cls-14" d="M607.51,556.51l3.7-5.58c.45.41.9.83,1.32,1.26q-1.81,2.79-3.64,5.58Z"/><path class="cls-15" d="M512.37,769.52l5.19-4c.23.21.45.43.67.65l-5.51,3.72Z"/><path class="cls-15" d="M540.35,744l3.64-3.74.11.1-3.68,3.71Z"/><path class="cls-15" d="M501,776.53l3.51-2.07c.27.32.56.63.86.93l-3.69,1.84Z"/><path class="cls-15" d="M481.4,709.1l3.55-.53Z"/><path class="cls-15" d="M477.63,710.9,481.5,709Z"/><path class="cls-15" d="M506.88,773.25l3.23-2.29.74.74-3.66,1.88Z"/><path class="cls-15" d="M525.52,758.69l2.83-3a9.14,9.14,0,0,0,.93,1.2l-3.64,1.9Z"/><path class="cls-15" d="M537.4,746.73l3-2.74.07.07-1.92,3.63A11.29,11.29,0,0,0,537.4,746.73Z"/><path class="cls-15" d="M544,740.25l1.8-1.89.13.14c-.61.61-1.21,1.23-1.82,1.85Z"/><path class="cls-15" d="M535.64,748.59l1.76-1.86a11.29,11.29,0,0,1,1.1,1l-1.84,1.84C536.33,749.2,536,748.89,535.64,748.59Z"/><path class="cls-15" d="M533.79,750.44l1.85-1.85c.35.3.69.61,1,.94l-1.84,1.85C534.49,751.05,534.15,750.74,533.79,750.44Z"/><path class="cls-15" d="M545.79,738.36l1.85-1.83.13.14-1.85,1.83Z"/><path class="cls-15" d="M532,752.29l1.84-1.85c.36.3.7.61,1,.94L533,753.22A12.94,12.94,0,0,0,532,752.29Z"/><path class="cls-15" d="M530.09,754.12l1.86-1.83a12.94,12.94,0,0,1,1,.93l-1.84,1.85C530.8,754.74,530.45,754.42,530.09,754.12Z"/><path class="cls-15" d="M528.35,755.72l1.74-1.59a13.17,13.17,0,0,1,1,.94l-1.85,1.85A9.14,9.14,0,0,1,528.35,755.72Z"/><path class="cls-15" d="M523.62,760.49l1.9-1.8.12.13-1.85,1.83Z"/><path class="cls-15" d="M521.65,762.2l2-1.71.17.16-1.85,1.84Z"/><path class="cls-15" d="M519.66,763.88l2-1.68.29.29-1.85,1.83Z"/><path class="cls-15" d="M517.56,765.51l2.1-1.63.43.44-1.86,1.84C518,765.94,517.79,765.72,517.56,765.51Z"/><path class="cls-15" d="M510.11,771l2.26-1.44.35.36-1.87,1.82Z"/><path class="cls-15" d="M504.46,774.46l2.42-1.21.31.33-1.87,1.81C505,775.09,504.73,774.78,504.46,774.46Z"/><path class="cls-21" d="M539.09,672.63l1.24-1A1.26,1.26,0,0,1,539.09,672.63Z"/><path class="cls-14" d="M566.42,566.59l-1.18-2.21Z"/><path class="cls-21" d="M466.53,579.43c5,11.17,8.24,23.39,19.15,30.87-20.83,18.74-27.89,44.34-34.7,70-.23.87,1.69,2.31,2.6,3.48l-5.25,10.26c-6.74,0-8-6-11.54-9.9-8.64-9.5-18.29-18.08-27.53-27q5.61-12.89,11.21-25.75c1-1.5,2.08-3,3-4.51C434.77,608.27,448.5,591.9,466.53,579.43Z"/><path class="cls-14" d="M448.33,694.06l5.25-10.26c7.27-3.89,14.33-8.23,21.83-11.59,22.19-10,37.75-41.51,31.56-64.73,8.49.49,10,7.49,9.07,13-1.9,11.19-5.77,22-8.83,33-11.21,17.58-27.63,28.64-46.18,37Z"/><path class="cls-15" d="M341.55,644.36l32.94-90.49c2.41,2.48,6.12,4.57,7,7.5,2.87,9.84,4.19,20.15,7.15,30,2.22,7.36,6.05,14.25,9.53,22.21l8-6.3L378,686.77c-7.35,3.1-10.47.46-13.15-7.08-3.81-10.71-9.4-20.84-15-30.82C348.61,646.53,344.42,645.82,341.55,644.36Z"/><path class="cls-10" d="M423.84,610.78c.78-1.69,1.57-3.37,2.36-5.06l0,0,3.46-2.34-5.43,7.69Z"/><path class="cls-10" d="M415.79,623.17l4.38-6.86.3.3-3.24,7.73Z"/><path class="cls-15" d="M406.05,606.77q1.68-4.32,3.38-8.63Q407.74,602.44,406.05,606.77Z"/><path class="cls-10" d="M411,633l-3.85,7.46Q409.11,636.73,411,633Z"/><path class="cls-10" d="M415.34,629.56l-2.69-.38,3.14-6,1.44,1.16C416.59,626.07,416,627.82,415.34,629.56Z"/><path class="cls-2" d="M354.51,751.85l1.8-3.52Z"/><path class="cls-10" d="M407.41,640.43l-2,3.79Z"/><path class="cls-10" d="M412.93,629.34l-2,3.77Z"/><path class="cls-10" d="M421.6,614.06l2.24-3.28.35.32-1.53,4Z"/><path class="cls-10" d="M420.17,616.31c.48-.75,1-1.5,1.43-2.25l1.06,1-2.19,1.54Z"/><path class="cls-10" d="M505.32,775.39l1.87-1.81,3.66-1.88,1.87-1.82,5.51-3.72,1.86-1.84,1.85-1.83,1.85-1.84,1.85-1.83,3.64-1.9,1.85-1.85,1.84-1.85,1.85-1.84,1.84-1.85,1.84-1.84,1.92-3.63,3.68-3.71c.61-.62,1.21-1.24,1.82-1.85l1.85-1.83c6.34-.15,7.31,3.7,4,7.52C534.71,764,517,783.11,490.06,789.37c-9.25,2.15-18,.74-25.85-5.28,13.11.62,26.5,3.6,37.42-6.86Z"/><path class="cls-8" d="M420.47,616.61l2.19-1.54,1.53-4,5.43-7.69-.05.19,3.69-3.77-.05.08,3.78-5.56,0,0,1.9-1.91-.05,0,11.09-11.11,0,.05,1.9-1.9-.05.06,1.91-1.91-.06,0,3.73-2-.1.06,3.78-3.69-.17.05c2.51-.92,5.06-1.74,7.52-2.77C480.65,564.27,493,559,505.27,553.8c13,.17,26.07,0,39.06.75,3.06.17,5.95,3.44,8.93,5.29-32.5-9.39-60.77,0-86.73,19.6-18,12.46-31.76,28.83-43,47.43-.94,1.55-2,3-3,4.51l-5.13-1.82c.63-1.74,1.25-3.49,1.89-5.23Z"/><path class="cls-22" d="M575.5,672.05c3.62-29.5,12.48-57.46,24.59-84.48,1.11-2.49,2-5.06,3-7.6,8.69-12.59,16.14-26.28,26.28-37.56,31.9-35.45,69-57.92,119.32-42.35l7.47,3.87c10.68,12,10.67,26.56,8.54,40.94-7.56,51-36.38,86-82.72,106.88-14.16,6.37-29.2,10.76-43.81,16.13a36.6,36.6,0,0,0-4.66,2.48c-10.65,6.85-21.66,10.41-33.89,3.92a4.28,4.28,0,0,0-3.53-.11C588.64,678.59,582,676.59,575.5,672.05ZM695.29,546.5c-4.26.41-9.78-.73-12.54,1.52-7.69,6.25-16.2,12.83-20.8,21.24-8,14.73-13.61,30.83-19.73,46.55-1.65,4.23-1.54,9.15-2.24,13.76q-.88,4.08-1.79,8.16l2,1.89c9.5-4.5,19.48-8.22,28.41-13.66C688.18,614,701,596.6,706,574,709.22,559.36,705.45,550.41,695.29,546.5Z"/><path class="cls-14" d="M768.94,673.76c-.92-2.93-3-6-2.56-8.76,2.06-13.09,4.84-26.06,7.21-39.09.22-1.19-.69-2.58-1.07-3.88l4-22.13c1.2-1.93,3-3.73,3.52-5.83,2.48-10.62,4.79-21.3,6.83-32,4-21.14,7.86-42.33,11.77-63.5l3.6-3.83c1,2.29,3.21,4.83,2.8,6.83-8.54,41.72-17.37,83.37-26.15,125Q773.92,650.17,768.94,673.76Z"/><path class="cls-10" d="M745.73,684.19c-3.7,6.42-6.49,13.62-11.27,19.1C721.14,718.57,706.12,732,686.56,739c-11.85,4.21-23.3,2.57-33.77-4.43-.78-.53-.07-3.3-.06-5,14.92,6.58,29.27,4,41.64-5.21,12.67-9.45,24-20.73,35.85-31.28,2.95-2.63,5.65-5.53,8.46-8.3l6.84-.41Z"/><path class="cls-22" d="M802.23,494.72l-3.6,3.83-2.3.13q-9.33,2.1-18.68,4.17l-3.93-1.1c1.49-8.11,3.73-16.17,4.29-24.35.75-10.91,5.73-17,16.52-18.39Q798.37,476.86,802.23,494.72Z"/><path class="cls-10" d="M773.71,501.74l3.94,1.11-10.88,1.65a86.48,86.48,0,0,1,.3-9.54c1-7.47,2.35-14.91,3.55-22.36.33-1.71.66-3.43,1-5.14l2.25-7.47c.28-.6.55-1.21.83-1.81l1.83-2.13,0,0,2.38-1.77a1.12,1.12,0,0,0,1.29-.42l1.88-1.56,0,0,3.7-1.78,3.67-.46,1.89-1.48,1.81-.37,1.86-1.47,1.82-.31,2.65-1.33c10.14-2.32,13.3-9.74,14.85-19.08,1.63-9.78,4.33-19.38,6.56-29.06l0,0c1.34-2.41,2.67-4.83,4-7.25l-.18.09,1.29-2.16a1.2,1.2,0,0,0,.5-1.31l1.37-2.38a.92.92,0,0,0,.51-1.11l1.62-2.65,2-3.06c.59-.81,1.19-1.61,1.78-2.41l-.06.08,1.49-.41.33.32c-5.83,16-13.63,31.6-16.94,48.11-3.4,16.9-11.17,26.94-27.7,30.25-11.77,2.35-16.39,10.28-17.8,21.29-.92,7.26-2.68,14.43-3.33,21.71C769.53,497.89,772.29,499.88,773.71,501.74Z"/><path class="cls-10" d="M796.33,498.68l2.3-.13c-3.91,21.17-7.73,42.36-11.77,63.5-2,10.72-4.35,21.4-6.83,32-.49,2.1-2.32,3.9-3.52,5.83,3.9-20.29,7.75-40.6,11.71-60.88C790.85,525.56,793.62,512.13,796.33,498.68Z"/><path class="cls-10" d="M728.44,487.22l3.43.77,16.21,7.51c-.5.49-1,1-1.48,1.49l-38.33-7.46-1.83-1.89Z"/><path class="cls-10" d="M756.16,503.93l-7.47-3.87L746.6,497c.49-.5,1-1,1.48-1.49Z"/><path class="cls-21" d="M745.52,684.34l-6.84.41Z"/><path class="cls-21" d="M802.23,494.72q-3.86-17.85-7.7-35.71c5.27-2.34,10.89-4.14,15.68-7.23,3.39-2.19,6.85-5.69,8.17-9.37,3.19-8.82,4.57-18.29,7.74-27.12,3.66-10.19,8.45-20,12.76-29.91,8.73,12.55,17.26,25.24,26.34,37.54,1.88,2.54,5.74,3.62,8.69,5.37l2.11,2.82c1.05,11.69,2.18,23.37,3.07,35.06.18,2.32-.61,4.71-1,7.06l.15-.21-12.68,4.39,0-.37-2.4,1.56c-6,26.62-12.21,53.2-17.91,79.89-4.1,19.21-7.48,38.58-11.27,57.86a71.34,71.34,0,0,1-2.43,7.69c-2.34,8.06-5.47,16-6.81,24.23-1.67,10.22-1.86,20.69-2.68,31,0,1.27,0,2.55,0,3.82-1.95,1.44-5.25,2.58-5.65,4.38-4.08,18-21.11,22.68-33,32.43-5.81,4.76-13.28,7.49-20,11.14.29-10.42.09-20.89,1-31.26.79-8.75,2.89-17.38,4.41-26.06q5-23.58,9.94-47.18c8.78-41.66,17.61-83.31,26.15-125C805.44,499.55,803.23,497,802.23,494.72Z"/><path class="cls-15" d="M878.14,473.23c.34-2.35,1.13-4.74,1-7.06-.89-11.69-2-23.37-3.07-35.06l55.3-21.27,2,2.08c0,1.14.09,2.28.14,3.42-.34,1.16-.67,2.32-1,3.47l-1.7,5.6L928,432.05l-.27,3.63-2.13,6.91c-.44,1.38-.89,2.76-1.34,4.14q-2,5.43-4.09,10.87l-1.51,2.07a1.23,1.23,0,0,0-.49,1.31Z"/><path class="cls-10" d="M876,662.74c4.49,4,5.41,7.45-.46,11.48-11,7.52-21.31,15.93-32.39,23.25-5,3.29-11.08,4.15-17-1.29l8.23-4.25a2.3,2.3,0,0,1,0,.26L839,690l-.27.21,3.9-2.08-.22.25,4-2.75Z"/><path class="cls-15" d="M822.15,679.31c.82-10.35,1-20.82,2.68-31,1.34-8.23,4.47-16.17,6.81-24.23q-3.82,21.81-7.62,43.62C823.35,671.54,822.77,675.43,822.15,679.31Z"/><path class="cls-15" d="M865.61,477.41,878.29,473Z"/><path class="cls-15" d="M846.41,685.63l-4,2.75Z"/><path class="cls-15" d="M842.67,688.13l-3.9,2.08Z"/><path class="cls-15" d="M839,690l-4.67,2.19Z"/><path class="cls-15" d="M863.25,478.6l2.4-1.56Z"/><path class="cls-8" d="M1381.87,273.76c10.07-3.2,20.17-6.32,30.21-9.64a76.75,76.75,0,0,0,8-3.67c7-2.34,14-5,21.15-6.86,2.54-.65,5.61.71,8.44,1.16,2.21,4.07,0,4.93-3.6,5.89-15.1,4-30,8.93-45.18,12.4-12.3,2.8-17.71,10-19.83,22-5.14,29.06-11.08,58-16.7,87l-4.63-.19c6-31.37,11.87-62.75,18-94.1C1378.62,283,1380.45,278.4,1381.87,273.76Z"/><path class="cls-10" d="M1316.65,638.65c-1.12-3.91-3.72-8.07-3.12-11.69,3.49-20.92,7.85-41.7,11.63-62.58.68-3.79.08-7.81.07-11.73l0,.15,4.38-11.89,3.66-29.57c.71-2.43,1.43-4.86,2.14-7.29l5.23,1.74c-2,12-3.85,24-6,36-4,21.84-8.27,43.62-12.35,65.44C1320.32,617.69,1318.52,628.18,1316.65,638.65Z"/><path class="cls-14" d="M1340.67,505.79l-5.23-1.74c-.09-1.85-.19-3.69-.28-5.54q1-2.82,1.9-5.63c0-1.2-.11-2.39-.16-3.58l3.81-3.8c2.82-16.11,5.8-32.19,8.39-48.33,1.26-7.85,1.8-15.81,2.67-23.72l2.13-14.69,5.82-17,4.64.19c-5.85,29.27-11.79,58.51-17.49,87.81C1344.54,481.74,1342.72,493.79,1340.67,505.79Z"/><path class="cls-15" d="M1351.77,413.45c-.87,7.91-1.41,15.87-2.67,23.72-2.59,16.14-5.57,32.22-8.39,48.33h-3.34Z"/><path class="cls-9" d="M1333.3,511.34l-3.66,29.57-3.32,0Q1329.8,526.14,1333.3,511.34Z"/><path class="cls-15" d="M1326.32,540.93l3.32,0-4.38,11.89Q1325.79,546.88,1326.32,540.93Z"/><path class="cls-10" d="M1337.06,492.88q-.94,2.81-1.9,5.63Q1336.12,495.69,1337.06,492.88Z"/><path class="cls-10" d="M1337.37,485.49h3.34l-3.81,3.8C1337.06,488,1337.21,486.76,1337.37,485.49Z"/><path class="cls-2" d="M301.89,684.93l-.09,1.87-1.4-.69Z"/><path class="cls-10" d="M326.3,668.19q-1.79,8.37-3.55,16.73-6.56,15.68-13.1,31.34Z"/><path class="cls-10" d="M309.63,716.13l-2,3.77Z"/><path class="cls-9" d="M287.49,563l7.59-1.89Z"/><path class="cls-2" d="M245.21,884.35q.93-6.57,1.84-13.13l-.39,13.7A1.72,1.72,0,0,1,245.21,884.35Z"/><path class="cls-15" d="M1220.7,568.34l-4.14,7.31C1217.93,573.21,1219.31,570.78,1220.7,568.34Z"/><path class="cls-15" d="M1212.88,580.94l-3.31,4.17Z"/><path class="cls-2" d="M1189.21,603l-5.16.9Z"/><path class="cls-15" d="M1231.76,546.2l-2.33,5.52Q1230.59,549,1231.76,546.2Z"/><path class="cls-15" d="M1215.14,577.54l-2.25,3.69Z"/><path class="cls-15" d="M1209.68,585l-2.37,3.54Z"/><path class="cls-15" d="M1224.09,562.63l-2.09,3.78C1222.69,565.15,1223.39,563.89,1224.09,562.63Z"/><path class="cls-15" d="M1198.29,597.46l-3.57,2.29Z"/><path class="cls-15" d="M1225.94,558.94l-2,3.86C1224.59,561.51,1225.26,560.22,1225.94,558.94Z"/><path class="cls-15" d="M1227.78,555.27l-2,3.83Z"/><path class="cls-15" d="M1229.56,551.55c-.66,1.28-1.32,2.56-2,3.83Z"/><path class="cls-15" d="M1192.5,601c-.36.91-.72,1.83-1.07,2.74l0-2.08A.86.86,0,0,1,1192.5,601Z"/><path class="cls-2" d="M1191.4,601.67l0,2.08-2.41-.7Z"/><path class="cls-15" d="M1194.88,599.58l-2.16,1.92Z"/><path class="cls-15" d="M1200.21,595.73l-2,2Z"/><path class="cls-15" d="M1202.13,593.93l-2.07,2.05Z"/><path class="cls-15" d="M1204,592.09l-2,2.1Z"/><path class="cls-15" d="M1205.78,590.24l-2,2.09Z"/><path class="cls-15" d="M1207.56,588.36c-.65.7-1.31,1.39-2,2.08Z"/><path class="cls-15" d="M1216.86,575.51l-1.88,2.22Z"/><path class="cls-15" d="M1222.35,566.25l-1.8,2.27Z"/><path class="cls-8" d="M838.88,385.38c-4.31,9.95-9.1,19.72-12.76,29.91-3.17,8.83-4.55,18.3-7.74,27.12-1.32,3.68-4.78,7.18-8.17,9.37-4.79,3.09-10.41,4.89-15.68,7.23-10.79,1.38-15.77,7.48-16.52,18.39-.56,8.18-2.8,16.24-4.29,24.35-1.43-1.87-4.19-3.86-4-5.59.65-7.28,2.41-14.45,3.33-21.71,1.41-11,6-18.94,17.8-21.29,16.53-3.31,24.3-13.35,27.7-30.25,3.31-16.51,11.11-32.11,16.94-48.11,1.87-1.32,4-2.38,5.58-4,14.83-14.95,32.73-23.82,53.37-27.38-2.63,2.45-4.84,6-7.94,7.15C867.29,357.76,849.67,366.81,838.88,385.38Z"/><path class="cls-8" d="M931.32,409.84,876,431.11l-2.11-2.82,2-3.88q24.33-9,48.67-18C927.9,405.16,932.14,402.77,931.32,409.84Z"/><path class="cls-14" d="M706.44,487.64l1.83,1.89c-12.08,3.53-24.41,6.41-36.16,10.82-8.66,3.26-16.55,8.52-24.79,12.88l-.26-.27a8.76,8.76,0,0,0,.37-1.51l-.06,0,2.41-1.78,1.25-2,5.54-3.72h0l7.71-3.59,5.27-2.53,1.87-1.22,0,.05,7.6-3.5.08.18,5.43-1.92,3.5-.91,2.73-1.16.46.23.4-.33,5.94-1.23,3.29-.77Z"/><path class="cls-10" d="M505.27,553.8C493,559,480.65,564.27,468.32,569.46c-2.46,1-5,1.85-7.52,2.77q2-2.7,4-5.42l1.82-.47,2.24-1.26,3.28-2.35,1.87-1.46,1.82-.43,2.23-1.12-.06.17,7.09-4.16,10.95-3.63,9.14-1.34Z"/><path class="cls-10" d="M438.8,592.52c.39-1.08.79-2.15,1.18-3.23l6.69-6.72,3.22-1.16Z"/><path class="cls-14" d="M641.87,516.89a3.21,3.21,0,0,1,0-1.79h0l1.9-1.85,1.84-.52a3.39,3.39,0,0,0,1.51.22l.26.27Z"/><path class="cls-21" d="M504.64,604.45l-8.44-.5q3.21-1.86,6.4-3.74Z"/><path class="cls-21" d="M496.33,603.87l-3.91,1.45Z"/><path class="cls-21" d="M489,607.61l-3.41,2.47Z"/><path class="cls-21" d="M490.84,605.6l-2,2.11Z"/><path class="cls-21" d="M506.92,606.78l-2.29-2.7Z"/><path class="cls-8" d="M641.87,516.89l5.45-3.66c8.24-4.36,16.13-9.62,24.79-12.88,11.75-4.41,24.08-7.29,36.16-10.82L746.6,497l2.09,3.07c-50.27-15.57-87.42,6.9-119.32,42.35-10.14,11.28-17.59,25-26.28,37.56-.45-2.84-1.94-6-1.13-8.44,1.64-4.82,4.55-9.2,6.93-13.76q1.83-2.79,3.64-5.58l10.71-15.83Z"/><path class="cls-10" d="M457.19,575.87l3.78-3.69Z"/><path class="cls-10" d="M433.21,599.91l3.78-5.56Z"/><path class="cls-10" d="M429.57,603.6l3.69-3.77Z"/><path class="cls-10" d="M453.56,577.76l3.73-2Z"/><path class="cls-10" d="M437,594.39l1.9-1.91Z"/><path class="cls-10" d="M449.86,581.46l1.9-1.9C451.13,580.2,450.49,580.83,449.86,581.46Z"/><path class="cls-10" d="M451.71,579.62l1.91-1.91Z"/><path class="cls-14" d="M679,605.74c6.29-11.45,14.16-22.37,18.28-34.56,2.42-7.18-1.11-16.38-2-24.68,10.16,3.91,13.93,12.86,10.69,27.51-5,22.59-17.8,40-37.4,52-8.93,5.44-18.91,9.16-28.41,13.66l-2-1.89,1.8-8.16,1.87-.26c7.21,1.41,13-.35,16.32-7.45V622l3.81-2.07-.2.15,3.78-2.07-.12.27,2-2-.08.28,2-2-.09.08L673,612.5l-.32-.06Z"/><path class="cls-10" d="M658.18,621.86c-3.34,7.1-9.11,8.86-16.32,7.45Z"/><path class="cls-10" d="M679,605.74l-6.34,6.7Q675.81,609.08,679,605.74Z"/><path class="cls-10" d="M673,612.5l-3.69,2.14Z"/><path class="cls-10" d="M662,619.93,658.17,622Z"/><path class="cls-10" d="M665.56,618l-3.78,2.07Z"/><path class="cls-10" d="M667.45,616.25l-2,2Z"/><path class="cls-10" d="M669.36,614.56l-2,2C668,615.88,668.7,615.22,669.36,614.56Z"/></svg>