<svg id="Layer_1_Image" data-name="Layer 1 Image" xmlns="http://www.w3.org/2000/svg" viewBox="0 0 283 63.03"><defs><style>.cls-1{fill:fillCurrent;}.cls-2{fill:fillCurrent;}.cls-3{fill:fillCurrent;}.cls-4{fill:fillCurrent;}.cls-5{fill:fillCurrent;}.cls-6{fill:fillCurrent;}.cls-7{fill:fillCurrent;}.cls-8{fill:fillCurrent;}.cls-9{fill:fillCurrent;}.cls-10{fill:fillCurrent;}.cls-11{fill:fillCurrent;}.cls-12{fill:fillCurrent;}.cls-13{fill:fillCurrent;}.cls-14{fill:fillCurrent;}.cls-15{fill:fillCurrent;}.cls-16{fill:fillCurrent;}.cls-17{fill:fillCurrent;}.cls-18{fill:fillCurrent;}.cls-19{fill:fillCurrent;}.cls-20{fill:fillCurrent;}</style></defs><path class="cls-1" d="M54,63c.45-1.65-.9-2.32-2-3.53.15-2.27,0-4.81-2-7V45.24l-2.93-1.68c-.39-2.48.73-5.2-1-7.43l2.45-7c1-.66,1.72-2.87,4.41-3.28.39-1.6-.66-4,2.15-4.94,3,.87,1.44,6.16,5.35,6.09C63.8,31.86,62.89,37.27,63,42.28l-5,5.87v7.24c0,.44-1.76,7.11-2,7.64ZM47.69,40.55l1,.7,2.18-1.4c.37-2,.47-3.66-1.57-4.91Zm12.35-2-1.41,1.73,1.17,1.21,2.73-.94-.08-1Z"/><path class="cls-2" d="M277,48a37,37,0,0,0,3.8-.05c.43,0,.8-.62,1.2-.95h1"/><path class="cls-1" d="M73,0H84c4.1-.27,7.64,1.46,10.92,3.51A28.64,28.64,0,0,1,104,12v1c-4.34-2.46-8.73-4.58-13.86-5.13-2.68-.28-5.32-1-8.08-.89C80,7.09,78.19,8.72,76,8l-4,1.32.17.68H82c6.72,1,13,2.92,17,9v1l-4-1.54c0,2.16.13,3.77,0,5.36a23.27,23.27,0,0,1-1,4.06c-2.09,7.21-4.47,14.26-10,19.7-3.12,3-6,6.31-9.94,8.42V55c2.67-3.65,5.38-7.21,7.16-11.49A18,18,0,0,0,83,35.83C83,34,83,32.18,83,30.35c.26-7.88-4.6-13.6-11.34-15.89A18.46,18.46,0,0,0,58,15.53C52.72,18,47.46,20.55,42.17,23c-2.09,1-4.22,1.85-6.36,2.68a29.44,29.44,0,0,1-6.11,2,20.13,20.13,0,0,1-8.07-.39C14.81,25.59,9.77,21.48,5.14,16.61A19.06,19.06,0,0,1,3,13V12a33.84,33.84,0,0,0,20.77,3.88,30.23,30.23,0,0,0,10.64-3.06c4.85-2.58,10.36-3.1,15.07-5.8,3.54,0,6.18-2.7,9.7-3.16A31.76,31.76,0,0,0,68.75.61C70.27-.14,71.61.33,73,0Z"/><path class="cls-1" d="M196,35.07l.11-1.89h17.56L215,34.53c0,1.93,0,3.91,0,5.9A6.7,6.7,0,0,1,211,47c-2.23,1.05-4.5,2.17-7.13,2.08-2.83-.1-5.66,0-8.48,0a23,23,0,0,1-10.68-3.09c-1.56-.85-2.54-2.74-3.75-4.13,0-4.14,0-8.11,0-12.09S182.83,24,186.83,23c5.83-1.58,11.71-.74,17.57-.86a14,14,0,0,1,5.41,1.31c2.36,1,4.46,2.42,4.74,5.64l-23.88-1.32-1.58,2V40.83c5.12,4.11,11.07,1.3,16.1,2.26,2.3-1.24,1.78-3,1.77-4.83h-8.35Z"/><path class="cls-1" d="M282,29v4a8.37,8.37,0,0,1-6.5,6c-.44.11-.9.13-1.94.28L282,47c-.4.33-.77.91-1.2.95A37,37,0,0,1,277,48a9.85,9.85,0,0,1-8-4.51c-1-1.34-3-1.58-3.44-3.34h-5.63c.35,2.62-.58,5.18,1,7.69h-7.67V23c7,0,14.08-.09,21.17,0C277.57,23.13,281.2,26.2,282,29Zm-21.88,4.83h12.26c2.27-1.31,1.56-3,1.46-4.52-4-2.38-8.26-.86-12.29-1.36l-1.43,1.43Z"/><path class="cls-1" d="M179.49,47.83h-9.17l-1.67-3.66H152.59l-2.75,3.73h-8.55c.93-1.82,1.77-3.58,2.72-5.27,3-5.28,5.94-10.55,9-15.77A7.24,7.24,0,0,1,159.73,23c2,0,4,0,6.11,0Zm-24.42-9h10.05c-.31-4-2.91-6.69-4.91-10.1Z"/><path class="cls-1" d="M246.87,25V28H228.19V33h17.65v4.88H228.18c-.09,1.92-.91,3.61,1.47,4.94h17.1v5H224.51c-3.51-1.18-4.72-4-4.56-8,.21-5.48.05-11,.05-16.87,7.53,0,15-.12,22.41.09C244,23.17,245.52,24.42,246.87,25Z"/><path class="cls-1" d="M130.2,33c2.72-3,5.32-5.91,8.12-9l10.36-1.34L134.05,39.85v8h-8c-.12-2.53,0-5.3-.06-8.51L112.14,23.19c1.44-.05,3-.13,4.57-.16s3,0,4.84,0Z"/><path class="cls-1" d="M40,59c-2.6-1.34-5.15-2.74-7.79-4-4.06-1.91-7-5.13-9.93-8.35-1.75-1.93-3-4.35-4.37-6.5a12.89,12.89,0,0,1,1.51-3c1.94-2.14,4-4.12,6.58-6.65a28.82,28.82,0,0,0,3.27,15.13c2.22,4.35,5,8.5,9.66,10.85.49.25.72,1,1.07,1.52Z"/><path class="cls-3" d="M80,30v5c-2.1.09,0-2.63-1.79-2.72-.76,2.37.21,4.52.79,6.72-.15,1.08.08,2.1-.61,3.24-1.15,1.9-1.8,4.1-3.39,5.76l-1-1c.67-2,1.33-4,2-6,.33-.41.93-.81,1-1.24a41.27,41.27,0,0,0,0-6.29c-.14-1.41.54-2.37,1.06-3.47h2Z"/><path class="cls-3" d="M72,19c2.73,0,3.7,2.21,5,4H76l-.83.33L76,24h1l1,1H77c-1.5.08-.85,1.24-1,2H75V26l-1-1-3-5Z"/><path class="cls-3" d="M76,27c.15-.76-.5-1.92,1-2l.33.83L78,25c1.5.08.85,1.24,1,2-1.93.47-.62,2-1,3s-1.2,2.06-1.06,3.47a41.27,41.27,0,0,1,0,6.29c0,.43-.62.83-1,1.24V30C77.37,29,77.37,28,76,27Z"/><path class="cls-3" d="M79,39c-.58-2.2-1.55-4.35-.79-6.72C80,32.4,77.9,35.12,80,35a17.52,17.52,0,0,1,0,2.81C79.88,38.28,79.33,38.64,79,39Z"/><path class="cls-3" d="M44,59c1.46-.36,2.18.62,3.15,1.69-1.31.12-2.53,1.17-3.15-.69Z"/><path class="cls-4" d="M70,57l3-2v1l-2,2Z"/><path class="cls-3" d="M72,50l2-3,1,1-2,2Z"/><path class="cls-5" d="M70,58c-.09,1.49-1.24.85-2,1l-1-1,2-1Z"/><path class="cls-6" d="M67,58l1,1c-.27,1.41-1.19,1.35-1.86.54C65.71,59,65.83,58.05,67,58Z"/><path class="cls-7" d="M76,27c1.37,1,1.37,2,0,3V27Z"/><path class="cls-7" d="M78,30c.38-1-.93-2.53,1-3v3Z"/><path class="cls-8" d="M43,60c-.76-.15-1.91.49-2-1l1-1,1,1Z"/><path class="cls-9" d="M69,54c-.25,1.4-1,1.17-2.1.5L69,53Z"/><path class="cls-3" d="M76,27v2c-1.5-.09-.85-1.24-1-2Z"/><path class="cls-3" d="M79,30V28c1.5.08.85,1.24,1,2Z"/><path class="cls-10" d="M71,19l-1.1-.52c1.09-.64,1.86-.87,2.1.52Z"/><path class="cls-11" d="M70,58l-1-1h1l1,1Z"/><path class="cls-12" d="M105,13l1,1h-1l-1-1Z"/><path class="cls-2" d="M105,14h1l1.1.51C106,15.19,105.24,15.42,105,14Z"/><path class="cls-13" d="M69,54V53l1-1v1Z"/><path class="cls-14" d="M99,20V19c1.39.24,1.16,1,.51,2.1Z"/><path class="cls-15" d="M72,50h1l-1,1Z"/><path class="cls-2" d="M71,52l1-1Z"/><path class="cls-10" d="M70,53V52h1Z"/><path class="cls-16" d="M77,24H76V23h1Z"/><path class="cls-1" d="M73,56V55h1v1Z"/><path class="cls-1" d="M105,13h-1V12Z"/><path class="cls-1" d="M40,59V58h1v1Z"/><path class="cls-17" d="M41,59V58h1Z"/><path class="cls-1" d="M2,12H3v1Z"/><path class="cls-3" d="M74,25l1,1Z"/><path class="cls-18" d="M43,60V59h1v1Z"/><path class="cls-19" d="M71,19h1l-1,1Z"/><path class="cls-20" d="M48.64,41.25l-1-.7"/><path class="cls-19" d="M75,48l-1-1Z"/><path class="cls-3" d="M76,23v1l-.83-.67Z"/><path class="cls-16" d="M78,25l-.67.83L77,25Z"/></svg>